<svg xmlns="http://www.w3.org/2000/svg" xmlns:xlink="http://www.w3.org/1999/xlink" viewBox="0 0 610.175 418">
  <defs>
    <style>
      .cls-1 {
        fill: #fff;
        font-size: 94px;
        font-family: DancingScript-Medium, Dancing Script;
        font-weight: 500;
      }

      .cls-2 {
        opacity: 0.57;
      }

      .cls-3 {
        fill: url(#linear-gradient);
      }
    </style>
    <linearGradient id="linear-gradient" x1="-0.002" y1="0.497" x2="1.009" y2="0.498" gradientUnits="objectBoundingBox">
      <stop offset="0" stop-color="#fff"/>
      <stop offset="1" stop-color="#c67e41"/>
    </linearGradient>
  </defs>
  <g id="Group_1" data-name="Group 1" transform="translate(-156.36 -775)">
    <text id="BAROD_CAFE" data-name="BAROD CAFE" class="cls-1" transform="translate(179 1167)"><tspan x="0" y="0">BAROD CAFE</tspan></text>
    <g id="barodlogo2" class="cls-2" transform="translate(156.36 775)">
      <g id="XMLID_1_" transform="translate(0)">
        <path id="XMLID_100_" class="cls-3" d="M135.46,193.611h0l-1.16-.58v-1.16c.58-1.16,5.221-4.641,31.328-19.145h0l-1.16-.58c-.58-1.16-1.16-1.74,16.824-13.923,8.122-5.221,17.985-12.183,27.847-18.565-20.305,11.6-20.885,11.6-21.465,11.6l-.58-.58c-1.16-1.74,1.16-4.061,27.847-26.107,8.122-6.382,17.4-14.5,23.206-19.145-4.641,2.9-11.6,6.962-17.4,10.443-23.206,13.924-23.786,13.924-24.366,13.924l-.58-.58c-.58-1.16-1.16-1.74,20.305-20.305,6.382-5.8,15.084-13.343,19.725-18.565-6.382,3.481-16.824,9.862-24.946,14.5-4.641,2.9-9.282,5.221-12.763,7.542-5.8,3.481-5.8,3.481-6.382,3.481l-.58-.58c-.58-.58,0-1.16.58-2.321-2.9,1.74-2.9,1.74-3.481,1.16l-.58-.58c-.58-1.74-1.16-1.74,28.427-27.267,1.16-1.16,2.321-1.74,2.9-2.9-9.282,5.221-22.626,13.343-30.748,17.984-11.023,6.382-11.023,6.382-11.6,6.382l-.58-.58c-.58-1.16-1.16-1.74,19.725-22.046l6.382-6.382C195.8,82.8,185.353,88.6,177.23,93.246c-19.145,11.023-19.145,11.023-19.725,11.023l-.58-.58c-.58-1.16-1.16-1.74,24.366-22.045a168.828,168.828,0,0,1-17.4,9.862c-22.046,13.343-22.046,13.343-23.206,12.763l-.58-.58a1.112,1.112,0,0,1,.58-1.74h.58c1.741-.58,11.6-6.962,21.465-12.763C193.475,71.2,193.475,71.2,194.635,71.2l.58.58c.58,1.16.58,1.16-2.321,3.481a66.648,66.648,0,0,1-5.8,4.641c-5.221,4.061-12.763,10.443-19.145,15.664,2.321-1.74,5.221-2.9,8.122-4.641C208.558,71.78,208.558,71.78,209.138,72.36l.58.58c.58,1.16.58,1.16-12.183,13.924-4.641,4.061-10.443,9.862-14.5,13.923a12.138,12.138,0,0,0,3.481-2.321c40.61-23.786,40.61-23.786,41.77-23.786l.58.58c.58,1.16.58,1.16-3.481,4.641a89.385,89.385,0,0,0-8.122,7.542c-6.382,5.8-15.664,13.343-21.465,19.145,6.382-3.481,15.664-9.282,22.626-13.343,15.084-8.7,15.084-8.7,15.664-8.7l.58.58c.58.58,0,1.16-.58,1.74,6.382-3.481,6.382-3.481,6.962-3.481l.58.58c1.16,1.74,0,2.9-25.526,26.106-4.641,4.061-9.862,8.7-13.923,12.183,4.641-2.9,10.443-6.382,15.664-9.282,24.366-14.5,24.366-14.5,24.946-13.923l.58.58c1.16,1.74-1.16,4.641-28.427,26.687-7.542,6.382-16.824,13.924-22.046,18.565,8.7-5.221,24.946-14.5,35.969-20.885,16.244-9.282,16.244-9.282,16.824-9.282l.58.58c.58,1.16,0,1.74-2.9,3.481-1.16,1.16-3.481,2.321-6.382,4.641-5.221,3.481-12.763,8.7-20.885,13.924-9.282,5.8-20.305,13.343-30.168,20.305,3.481-1.74,6.962-4.061,9.862-5.8,36.549-22.046,45.251-27.267,46.992-26.687.58,0,.58.58,1.16.58v1.16q0,.87-3.481,3.481l.58.58a1.112,1.112,0,0,1-.58,1.74h-.58c-3.481,1.16-31.908,18.565-55.114,31.908C141.842,191.29,136.621,193.611,135.46,193.611Zm99.785-62.076c-9.282,5.221-24.366,14.5-36.549,22.046l-3.481,1.74C210.3,146.619,226.543,137.917,235.245,131.535Zm-94.564-30.748.58.58Z" transform="translate(363.705 -25.893)"/>
        <path id="XMLID_135_" class="cls-3" d="M323.688,341.336h0l-1.16-.58c-1.16-1.74-.58-4.641,16.244-16.824,9.862-6.962,24.366-16.824,44.091-29.007l19.145-12.183c-9.282,5.221-17.985,10.443-26.687,15.084-7.542,4.061-14.5,8.122-21.465,12.183-38.87,23.786-50.473,30.748-52.213,30.168-.58,0-.58-.58-1.16-.58l-1.74.58-.58-.58c0-.58-.58-1.16,0-1.74a13.345,13.345,0,0,1,4.061-4.641c-11.023,5.8-15.084,6.382-16.244,5.8a1.248,1.248,0,0,1-1.16-1.16c0-.58-.58-.58,0-1.74,0-.58,0-.58.58-1.16-9.862,5.8-10.443,5.221-11.023,5.221l-1.16-.58c-1.16-1.74-1.74-2.9,45.251-32.488,27.267-17.4,64.976-40.61,100.945-62.656,52.213-32.488,109.647-67.877,134.014-84.121-23.206,13.343-70.778,41.19-117.77,69.037-42.931,25.526-87.022,51.633-121.83,71.358-59.175,34.229-60.335,34.229-61.5,33.648l-1.16-.58c-1.16-1.74-1.74-2.9,33.068-23.786,20.885-12.763,49.892-30.167,80.64-48.732C411.29,233.429,463.5,202.1,504.693,175.995q33.068-20.885,50.473-33.068c16.244-11.6,19.145-15.084,19.145-16.244a4.385,4.385,0,0,0-2.32.58q-12.183,6.962-29.587,17.4c-34.229,20.305-81.22,46.992-127.052,73.678-42.931,24.946-89.342,51.633-124.731,72.518-1.16.58-2.321,1.74-3.481,2.321-58.595,36.549-58.595,35.969-59.755,35.969l-.58-.58c-.58-.58-.58-1.16,1.74-3.481-3.481,1.74-5.221,2.321-5.8,2.321l-1.16-.58c-1.74-2.9,1.16-8.7,54.534-41.19,34.229-20.885,81.22-48.152,126.472-74.839,45.831-26.687,93.4-53.954,128.212-75.419,19.145-11.6,33.068-20.305,42.351-27.267,9.862-6.962,13.923-10.443,15.084-12.183-13.343,5.8-88.762,51.053-162.441,95.144-52.793,31.328-107.327,64.4-149.678,89.342-63.816,37.129-75.419,41.77-77.739,41.19-.58,0-.58-.58-1.16-.58v-1.16c0-.58.58-1.16,4.061-3.481-3.481,1.16-5.221,1.74-6.962,1.16-1.16,0-1.16-.58-1.74-1.16v-1.16h0c-4.641,2.321-5.221,2.321-5.8,1.741-.58,0-.58-.58-1.16-.58v-1.16c0-.58,0-.58,1.16-1.74a6.308,6.308,0,0,1-2.9.58,1.248,1.248,0,0,1-1.16-1.16c-.58-1.16-1.16-1.74,11.023-9.862-9.862,4.061-13.924,5.221-16.244,4.641h-1.16a2.025,2.025,0,0,1-1.16-.58v-2.321c.58-2.321,8.122-8.7,59.175-38.87,34.809-20.305,79.48-46.412,127.632-73.678,48.732-27.847,99.785-57.434,137.494-80.06,49.312-29.007,62.656-38.87,64.976-41.77-.58,0-2.9,0-8.122,1.74-16.244,17.4-102.686,64.976-220.455,129.372-15.664,8.7-31.328,17.4-46.412,25.526l-22.626,13.923c-28.427,17.4-52.793,32.488-70.2,43.511-29.007,17.4-29.587,17.4-30.748,16.824l-1.16-.58c0-.58-.58-1.16,0-1.74,0-1.16,1.16-2.321,3.481-4.061a28.484,28.484,0,0,1-6.962,1.74,1.248,1.248,0,0,1-1.16-1.16h-1.16a1.248,1.248,0,0,1-1.16-1.16c-1.16-1.74-1.74-2.9,48.732-33.068,29.587-17.984,70.2-41.77,112.548-66.717C407.229,142.927,516.3,79.111,525,68.668c-1.741,0-6.962,1.74-21.465,9.282-12.183,6.382-28.427,15.664-49.892,28.427-40.03,23.786-91.083,55.114-140.975,85.861-41.77,26.106-81.22,50.473-111.388,68.457-44.091,26.107-52.793,29.587-55.114,29.007a1.248,1.248,0,0,1-1.16-1.16c0-.58-.58-1.16,0-1.74,2.321-9.282,68.457-46.992,176.364-107.907,45.251-25.526,91.663-51.633,126.472-72.518q27.847-16.534,41.77-26.106c12.763-8.7,15.084-11.6,15.664-12.763-2.9,0-17.4,5.8-75.419,40.03-41.77,24.946-93.983,56.854-144.456,87.6-38.29,23.206-74.259,45.831-101.525,61.5-41.19,24.366-46.992,26.107-48.152,25.526-.58,0-.58-.58-1.16-.58,0-.58-.58-1.16,0-1.74,2.321-8.7,64.4-44.671,165.922-102.106,44.091-24.946,89.342-50.473,122.991-70.778,17.985-11.023,31.328-19.145,40.61-26.107,12.763-8.7,14.5-11.6,15.084-12.763-1.16,0-5.221.58-15.664,5.8-15.664,12.183-64.4,40.03-137.495,80.06C305.7,166.133,285.4,178.9,266.254,191.079c-92.823,57.434-131.113,80.64-135.754,79.48-.58,0-.58-.58-1.16-.58,0-.58-.58-1.16,0-1.741q.87-2.611,8.7-8.7c-11.023,6.382-12.183,6.382-12.763,6.382l-.58-.58c0-.58-.58-1.16,0-1.74,2.321-8.122,59.755-41.19,154.9-94.564,40.03-22.626,81.8-46.412,113.128-64.976C434.5,79.111,443.2,70.989,444.358,68.668c-3.481,0-19.725,6.382-86.442,45.831-46.992,27.267-104.426,62.656-150.838,91.083-24.366,15.084-45.831,27.847-60.915,37.129C120.637,257.8,120.057,257.8,119.477,257.8l-1.16-.58c-1.16-1.74-1.16-2.321,40.03-28.427C182.713,213.7,215.2,193.4,250.01,172.514c69.617-42.351,155.479-94.564,167.082-105.006-4.061,1.16-16.244,6.962-52.213,27.847-30.168,17.985-69.037,41.77-106.747,65.556-88.182,55.114-143.3,88.762-152.578,88.762h-.58a1.248,1.248,0,0,1-1.16-1.16c-1.16-2.321-1.74-2.9,83.541-53.953,41.19-24.946,88.762-53.953,126.472-77.739,52.793-33.648,63.236-44.091,64.976-46.992-13.343,3.481-129.953,73.678-200.73,116.029-74.259,44.671-80.64,48.152-81.8,48.152l-.58-.58c-1.16-1.74.58-5.221,12.763-13.924,8.122-5.8,19.725-13.923,35.969-23.786,29.587-18.565,68.457-41.77,105.586-63.816C294.1,105.8,339.352,78.531,350.955,69.248,334.711,76.79,273.8,113.92,218.682,146.988c-30.748,18.565-62.656,37.709-85.861,51.633-40.03,23.206-41.77,23.206-42.931,22.626-.58,0-.58-.58-1.16-.58v-1.16c.58-1.16,3.481-3.481,9.282-7.542a39.218,39.218,0,0,1-9.862,4.061c-2.9,1.16-4.061,1.74-4.641,1.74s-.58-.58-1.16-.58c0-.58-.58-1.16,0-1.74h0c-.58-.58-.58-1.16,1.74-2.9,3.481-3.481,13.343-9.862,29.007-19.145a51.019,51.019,0,0,1,5.8-3.481c12.763-8.122,28.427-17.984,45.251-27.847,55.114-34.229,129.372-80.64,142.136-91.083-4.641,1.741-18.565,8.122-56.274,30.168-31.328,18.565-69.037,41.77-102.686,62.075-60.916,34.808-70.778,40.609-72.519,40.029l-1.16-.58c-.58-1.16-.58-2.9,10.443-11.023,6.382-4.641,15.664-11.023,28.427-19.145,23.786-15.084,54.534-34.229,84.121-52.213,29.007-17.985,58.595-35.969,74.259-46.412-16.824,9.862-49.312,29.007-81.22,48.152-27.847,16.824-56.854,33.648-78.9,46.992-38.29,22.046-39.45,22.046-40.61,21.465-.58,0-.58-.58-1.16-.58-.58-1.16-.58-1.16,13.924-11.023,8.7-5.221,20.305-12.763,34.229-21.465,41.19-26.106,104.426-66.137,127.632-82.381-13.923,7.542-39.45,23.206-64.4,38.29C154.285,129,127.6,145.247,106.133,157.43,69,178.9,67.264,178.315,66.1,178.315c-.58,0-.58-.58-1.16-.58-.58-1.74-1.16-2.321,21.465-17.984,13.343-9.282,31.328-20.885,49.892-33.068,34.229-22.626,76.579-49.892,85.281-58.595-11.6,5.221-57.434,33.068-92.243,53.954-54.534,33.068-64.976,39.45-66.717,38.87-.58,0-.58-.58-1.16-.58-1.16-1.74-1.16-2.321,58.015-41.77,26.687-17.4,62.076-40.61,71.938-48.732-15.084,6.962-71.358,41.19-102.686,60.335-32.488,19.725-32.488,19.725-33.068,19.145v-2.321c0-.58.58-1.16,1.74-2.321h0l-.58-.58c-.58-1.16,0-1.74,3.481-4.641,2.321-1.74,5.221-3.481,9.282-6.382,7.542-5.221,17.985-12.763,29.587-20.305,16.824-11.6,38.29-26.687,51.053-35.969-9.862,5.8-23.786,14.5-37.129,22.046-46.412,28.427-57.434,34.229-59.175,33.648-.58,0-.58-.58-1.16-.58-1.16-2.321,0-3.481,47.572-31.908,14.5-8.7,31.328-18.565,42.351-25.526-16.244,9.282-45.832,26.687-63.816,37.709-22.626,13.343-22.626,13.343-23.786,13.343l-1.16-.58c-.58-1.16-.58-1.74,15.664-12.763,9.282-6.382,20.885-14.5,31.908-22.045,4.641-2.9,8.7-6.382,13.343-9.282-12.763,7.542-28.427,16.824-40.61,23.786C52.76,117.4,52.76,117.4,52.18,116.82l-.58-.58c-1.16-2.321,1.74-4.641,36.549-27.267,6.382-4.061,13.923-8.7,19.725-12.763-8.7,5.221-19.725,11.6-29.007,16.824-29.007,16.824-29.007,16.824-29.587,16.824l-.58-.58c-1.16-1.74.58-4.061,35.389-31.328,1.16-.58,2.321-1.74,3.481-2.321-5.221,2.9-10.443,6.382-15.664,9.282C52.18,95.934,52.18,95.934,51.6,95.354l-.58-.58c-.58-1.16-1.16-1.74,8.7-8.122-10.443,5.8-10.443,5.8-11.023,5.8l.58-1.16,1.16-.58-1.16.58-.58-1.16c.58-.58,9.282-5.221,17.4-10.443C89.889,65.767,89.889,65.767,91.049,65.767l.58.58c.58,1.16,0,1.74-4.641,5.221-2.321,1.74-5.221,3.481-8.7,5.8,19.725-11.6,20.305-11.6,20.885-11.6l.58.58c.58,1.16.58,1.16-15.084,13.923-8.7,6.962-20.885,16.824-28.427,23.206C61.462,100,69.584,95.934,77.126,91.293c44.091-26.107,44.091-25.526,45.251-25.526l.58.58c1.16,2.321-1.16,4.061-33.648,25.526-6.382,4.061-13.343,8.7-19.725,13.343l3.481-1.74C130.5,69.248,133.98,68.088,135.14,68.088l.58.58c.58,1.16.58,1.16-9.862,8.7-5.8,4.061-13.923,9.862-22.626,15.664-6.962,4.641-15.084,10.443-22.626,15.084,64.4-38.29,72.518-42.351,74.259-41.77l1.16.58c1.16,2.321-2.9,5.8-53.953,36.549-9.282,5.8-19.145,11.6-27.847,16.824,11.023-6.382,24.946-15.084,37.709-22.626,44.091-26.687,49.312-29.587,51.053-29.007l1.16.58c.58,1.16,1.16,1.74-20.305,16.824-12.183,8.7-27.847,19.145-42.931,29.587-8.122,5.8-16.244,11.6-23.206,16.244,9.862-5.8,23.206-13.923,35.969-21.465,62.076-37.129,76-45.251,78.32-44.671l1.16.58v.58c4.061-1.74,4.641-1.74,5.221-1.74s.58.58,1.16.58c.58,1.74,1.74,2.9-23.786,19.725-14.5,9.862-33.648,22.046-51.633,34.229-17.4,11.6-37.129,24.366-48.152,31.908,12.183-6.962,33.648-20.305,54.534-33.068,64.976-39.45,92.823-56.274,96.3-55.114.58,0,.58.58,1.16.58,1.16,1.74,1.74,2.9-27.267,23.206-16.824,11.6-38.87,26.107-60.335,40.61-26.687,17.4-56.274,37.129-66.717,45.251,13.924-7.542,66.137-38.87,105.587-62.656,62.656-37.709,73.678-44.091,75.419-43.511l1.16.58c1.16,1.74,1.74,2.9-47.572,34.809-27.267,17.985-62.076,39.45-89.342,56.854-9.862,6.382-19.145,12.183-26.687,16.824,23.786-13.343,62.656-37.129,96.3-56.854,23.786-14.5,46.992-27.847,63.816-38.29,29.007-16.824,29.587-16.824,30.748-16.244l1.16.58c1.16,2.321-1.74,5.221-85.861,56.854-44.091,27.267-102.686,63.236-117.769,76,11.023-6.382,36.549-22.045,63.236-38.29,87.6-53.954,155.479-95.144,163.021-92.823a1.248,1.248,0,0,1,1.16,1.16c1.16,1.74,1.74,2.9-47.572,34.229-27.267,17.4-62.656,39.45-94.564,59.755,7.542-4.061,16.244-8.7,24.946-13.343,84.121-52.213,139.815-85.861,147.357-84.121l.58.58h.58c.58,0,.58.58,1.16.58v1.16h-.58v.58c0,1.16-1.74,2.321-4.641,4.641,15.664-8.7,17.4-8.122,17.985-8.122s.58.58,1.16.58c.58,1.74,0,2.9-8.122,8.7-5.221,3.481-12.763,8.122-22.626,14.5-19.145,12.183-45.831,27.847-74.259,44.671-36.549,21.465-73.678,44.091-103.266,62.656-32.488,20.305-44.091,29.587-48.152,33.648,9.862-5.8,41.77-24.366,77.159-45.831C215.2,159.17,265.093,129,304.543,105.8c69.037-40.61,72.518-39.45,74.259-39.45.58,0,.58.58,1.16.58,1.16,1.74.58,5.221-16.824,17.985-10.443,8.122-26.107,17.984-46.992,31.908-38.29,24.366-88.182,55.114-128.792,79.48-35.389,21.465-69.617,42.351-79.48,49.312,5.221-1.74,17.4-8.122,46.992-25.526,27.847-16.824,64.976-39.45,100.365-62.076,95.724-59.755,154.9-95.724,162.441-93.983a1.248,1.248,0,0,1,1.16,1.16c1.16,1.74,1.74,3.481-53.373,38.29-32.488,20.305-74.839,45.831-115.449,70.778-41.77,25.526-84.7,51.633-109.647,67.3,16.244-9.862,38.87-23.786,63.816-38.87C328.909,126.1,433.335,62.866,443.778,65.767c.58,0,1.16.58,1.74,1.16,0,.58.58,1.16,0,1.74-.58,2.9-7.542,8.122-19.145,16.244,36.549-20.305,38.87-19.725,40.03-19.145a2.025,2.025,0,0,1,1.16.58c0,.58.58,1.16,0,1.74h0c5.8-2.321,9.862-3.481,11.6-3.481.58,0,1.16.58,1.74,1.16,0,.58.58,1.16,0,2.321-.58,2.9-6.962,8.122-18.565,16.244,24.366-13.923,39.45-20.885,43.511-20.305a1.248,1.248,0,0,1,1.16,1.16c0,.58.58,1.16,0,1.74-.58,2.321-5.221,6.382-12.763,12.183,17.4-9.282,28.427-13.923,31.328-13.343,1.16,0,1.16.58,1.741,1.16,1.16,2.321,2.32,4.061-65.557,45.251-39.45,23.786-91.663,54.534-142.136,84.121-70.778,41.19-143.876,84.121-157.8,95.144,3.481-2.321,12.183-7.542,33.068-19.145,21.465-12.183,50.473-28.427,84.7-47.572,26.687-16.244,55.114-33.648,83.541-50.473,46.992-28.427,91.663-55.694,125.892-76.579,51.053-30.167,60.335-33.648,62.656-33.068h0a13.067,13.067,0,0,1,4.061-.58,1.248,1.248,0,0,1,1.16,1.16c0,.58.58,1.16,0,2.321h0c2.9-.58,5.221-1.16,6.382-.58,1.16,0,1.741.58,1.741,1.16s.58.58,0,1.74c-1.741,7.542-78.32,51.633-204.211,123.571-51.053,29.587-106.747,61.5-143.3,83.541,5.221-2.9,10.443-5.8,16.244-9.282,35.969-20.885,83.541-47.572,133.433-75.419,20.305-11.6,40.61-23.206,60.915-34.229,39.45-23.786,76-45.831,103.846-62.075,29.007-16.824,41.19-23.786,46.412-26.106,4.061-2.321,5.221-2.9,5.8-2.321l1.16.58v1.16c0,.58,0,.58-1.74,1.74-.58,1.16-2.9,3.481-9.282,8.122,8.122-4.061,13.923-5.8,16.244-5.221,1.16,0,1.16.58,1.74,1.16,0,.58.58,1.16,0,1.74a15.96,15.96,0,0,1-4.641,5.221l.58.58v1.16c0,.58-.58,1.16-2.321,2.9a.568.568,0,0,1,.58.58.8.8,0,0,1,0,1.16c0,1.16-.58,2.321-11.023,9.282,9.862-5.221,10.443-5.221,11.6-4.641.58,0,.58.58,1.16.58,1.741,2.9-1.16,8.7-56.854,42.931-9.282,5.8-19.145,11.6-30.167,17.984,75.419-44.091,89.342-48.152,93.4-46.992,1.16,0,1.16.58,1.741,1.16.58,1.16-.58,2.321-4.061,4.641a119.189,119.189,0,0,1-11.6,6.962c-2.321,1.16-4.641,2.9-7.542,4.641a.568.568,0,0,1,.58.58c1.16,1.74.58,4.641-17.985,18.565-11.6,8.122-27.847,19.145-50.473,33.068-41.19,26.107-95.144,58.015-142.136,86.442-43.511,26.107-85.862,51.633-103.846,63.236,27.847-15.084,106.167-61.5,171.143-99.785,34.229-20.305,66.717-39.45,91.083-53.373,40.61-23.786,41.19-23.206,41.77-23.206l.58.58c1.16,1.74,1.74,2.9-45.831,32.488-27.847,17.4-65.556,41.19-102.106,63.236-52.793,33.068-111.388,69.037-135.174,84.7,4.641-2.321,9.862-5.8,16.244-9.282,10.443-6.962,27.267-16.824,53.373-32.488,9.282-5.221,18.565-11.023,28.427-16.824,37.709-22.626,79.48-48.152,112.548-67.3,59.755-34.809,62.656-34.229,63.816-33.648.58,0,.58.58,1.16.58v1.16c-.58,1.74-6.382,5.221-76.579,44.671-30.748,17.4-67.3,37.709-100.365,56.854a23.517,23.517,0,0,1-5.221,2.9c-27.267,16.824-53.373,32.488-72.518,43.511-1.16.58-2.9,1.74-4.061,2.321-9.862,6.382-13.923,9.862-15.664,11.6,2.9-.58,9.862-3.481,29.007-13.923,24.366-16.244,71.938-44.091,131.693-78.32,11.023-6.962,21.465-13.343,31.908-19.145,64.4-39.45,74.839-45.251,76.579-45.251l1.16.58v1.16c-1.16,3.481-29.587,20.305-99.785,60.335a52.96,52.96,0,0,0-7.542,4.641c-30.168,18.565-63.236,38.29-91.083,55.114-17.4,10.443-30.748,17.985-40.61,23.206-7.542,5.221-12.183,8.122-14.5,10.443C311.5,327.412,350.375,304.787,390.4,281c69.037-42.351,123.571-75.419,142.136-82.961,12.763-6.962,13.343-6.962,13.923-6.962l.58.58v1.16c0,.58-.58,1.16-7.542,5.8a14.436,14.436,0,0,1-4.061,2.9c-2.321,1.16-5.221,3.481-9.862,5.8-8.122,5.221-20.305,12.183-34.229,20.305-31.328,18.565-74.839,44.091-109.647,66.137-43.511,27.267-56.274,37.709-60.335,41.77,9.282-4.641,40.03-23.206,71.938-42.931,29.007-17.985,62.656-38.29,88.762-53.373,45.251-26.687,48.152-26.107,49.893-25.526a2.025,2.025,0,0,1,1.16.58c.58,1.16,1.16,1.741-17.985,13.924-11.023,7.542-26.687,17.4-43.511,27.847C431.6,281.581,373,319.29,360.817,329.733c16.824-6.962,95.144-54.534,138.655-80.64,40.61-24.366,40.61-24.366,41.77-24.366l.58.58c1.16,1.74,0,3.481-37.129,30.748C494.251,263.6,482.648,272.3,475.106,278.1c11.023-6.382,33.068-19.145,53.953-31.908,70.2-41.77,87.022-51.633,88.762-51.053.58,0,.58.58,1.16.58a.8.8,0,0,1,0,1.16c-.58,2.321-9.863,8.7-27.267,19.145,0,.58-.58.58-.58,1.16h-.58c-.58,0-1.74,1.16-4.061,2.321-5.8,3.481-12.183,7.542-19.725,11.6-3.481,2.321-6.962,4.061-10.443,6.382-33.648,20.305-35.389,20.885-36.549,20.885l-1.16-.58v-1.16c0-1.16,0-1.16,21.465-13.343,6.962-4.061,15.664-9.282,24.946-14.5,9.862-5.8,16.244-9.862,19.725-11.6,11.023-6.962,21.465-12.763,27.267-16.824-13.924,7.542-51.053,29.587-81.8,47.572-56.274,33.648-62.075,36.549-63.236,36.549l-.58-.58c-1.16-1.74,0-3.481,36.549-30.748,9.862-6.962,20.885-15.084,27.847-20.885-7.542,4.641-18.565,11.023-30.168,18.565C475.106,266.5,440.3,287.382,411.87,304.206c-50.473,29.587-53.373,29.007-54.534,28.427-.58,0-.58-.58-1.16-.58-1.16-1.74-1.741-2.9,37.129-29.007,22.046-14.5,51.053-33.068,76.579-49.312C493.09,238.65,515.136,224.727,525,217.765c-20.305,9.282-85.281,49.312-130.533,76.579C339.352,333.794,326.588,341.336,323.688,341.336ZM470.464,173.674c-22.046,12.763-44.671,26.107-67.877,39.45-44.671,25.526-90.5,52.213-124.151,73.1-39.45,23.786-51.633,33.648-54.534,37.129,10.443-5.221,51.633-30.748,98.045-59.175C367.779,236.33,422.312,202.1,470.464,173.674Zm-251.2,132.853c-6.962,4.061-12.763,7.542-16.244,9.863,23.206-10.443,117.189-66.717,200.73-116.609-15.084,8.7-29.587,16.824-44.671,25.526-17.984,10.443-35.969,20.885-53.373,30.748C267.994,279.26,238.987,296.085,219.262,306.527Zm143.3-88.182c-5.8,3.481-11.6,6.382-16.824,9.862-70.778,39.45-136.914,76.579-149.1,85.281,2.321-.58,8.122-2.321,19.725-8.7.58-.58,1.16-.58,1.74-1.16,6.962-4.061,16.244-9.862,28.427-16.824,16.824-9.862,37.129-21.465,59.175-34.229C323.688,242.131,342.833,230.528,362.557,218.345Zm-162.441,87.6a42.335,42.335,0,0,0-7.542,5.221c13.923-6.962,49.892-27.847,92.823-53.954-9.282,5.221-18.565,10.443-27.267,15.664C232.6,287.962,212.88,299.565,200.117,305.947Zm16.244-15.664c-15.084,9.282-25.526,15.664-30.168,19.145,2.321-.58,5.8-2.321,12.183-5.8,6.962-4.641,17.984-11.023,34.229-20.305,7.542-4.061,15.084-8.7,23.786-13.343,21.465-12.763,45.831-28.427,72.518-44.671-11.023,6.382-21.465,12.763-31.908,19.145C259.872,266.5,234.345,281,216.361,290.283Zm131.113-83.541c-75.419,42.351-147.937,83.541-166.5,95.724C201.277,293.764,273.8,250.833,347.474,206.742Zm-164.761,80.64q-9.572,6.092-12.183,8.7c6.962-4.061,23.206-13.343,44.091-26.107C201.277,276.94,190.834,282.741,182.712,287.382Zm37.709-2.321c-4.061,2.321-7.542,4.061-11.023,6.382l3.481-1.74c.58-.58,1.74-.58,2.321-1.16A13.7,13.7,0,0,1,220.422,285.062ZM358.5,160.331c-11.6,6.382-23.206,13.343-35.389,20.305-42.931,24.366-87.6,49.312-120.67,69.037-42.351,25.526-52.793,33.648-54.534,36.549,3.481-.58,16.244-6.962,52.793-29.007,30.167-17.984,69.617-42.351,110.808-67.877C327.749,179.475,343.413,169.613,358.5,160.331Zm-20.885-1.74c-11.6,6.382-23.206,13.343-35.969,20.305-42.351,24.366-82.961,46.992-113.708,65.556-37.709,22.626-48.152,30.748-50.473,34.229,11.6-4.061,80.06-46.412,146.2-87.022Q311.5,174.254,337.611,158.59ZM273.8,182.376c-31.908,17.4-62.656,34.809-87.022,49.312-40.61,23.786-52.213,32.488-55.114,35.969,11.6-4.061,72.518-42.351,132.273-78.9C267.414,186.437,270.895,184.116,273.8,182.376Zm3.481-9.862c-36.549,20.885-74.259,42.351-102.686,58.595-28.427,16.824-40.61,25.526-45.251,29.587,12.183-6.962,45.831-26.687,83.541-49.892Q243.338,192.529,277.276,172.514Zm246.562,37.709c-17.4,9.862-41.77,24.366-67.3,38.87C482.067,234.009,506.433,220.086,523.838,210.223Zm-73.678-56.274c-27.847,16.824-57.434,35.389-86.442,53.373-17.4,10.443-33.068,20.305-48.152,29.587,8.7-4.641,17.984-9.862,27.267-15.084,4.641-2.321,9.282-5.221,13.923-7.542,2.9-1.74,6.382-4.061,9.282-5.8C418.251,177.155,472.2,144.667,513.975,120.3c45.831-26.687,63.816-36.549,71.358-38.87,4.641-3.481,6.382-5.221,6.962-6.382-1.16,0-5.8.58-23.206,9.282-5.221,2.321-11.023,5.8-17.4,9.282-8.7,5.221-20.305,12.183-33.648,20.305Q486.709,133.064,450.159,153.949ZM552.845,134.8a118.934,118.934,0,0,0-14.5,7.542c-18.565,9.862-44.091,24.366-76,43.511-26.687,15.664-55.694,33.068-83.541,50.473,11.6-6.382,23.206-13.343,34.229-19.725C462.923,187.017,516.876,155.689,552.845,134.8Zm41.19-24.946c-2.9.58-10.443,3.481-29.007,12.763-16.824,8.7-38.87,21.465-68.457,38.87-34.809,20.305-74.839,44.671-113.128,68.457,87.6-53.373,164.181-98.625,185.647-104.426C581.852,117.4,590.554,112.179,594.035,109.858ZM357.916,216.6c-6.382,4.061-12.763,7.542-19.145,11.6,1.74-1.16,3.481-1.741,5.221-2.9,24.366-13.923,50.473-28.427,76-43.511h.58Q390.984,198.33,357.916,216.6Zm73.678-56.854c-2.321,1.16-4.061,2.321-6.382,3.481-29.007,17.4-59.755,35.969-89.342,53.954,9.282-5.221,19.145-11.023,28.427-16.824,6.382-3.481,12.763-7.542,19.145-11.023,19.145-11.6,37.709-23.206,56.274-34.809C437.4,156.27,434.5,158.01,431.595,159.75Zm-228-8.7C158.926,176.575,109.034,205,93.95,215.444,110.194,207.322,157.766,178.315,203.6,151.048Zm343.446,29.587c-12.763,6.962-34.809,19.145-60.335,34.229C511.655,200.941,534.28,188.178,547.044,180.636ZM421.152,184.7c-4.641,2.9-9.282,5.8-13.343,8.7-10.443,6.382-20.885,13.343-30.748,19.145,47.572-27.267,95.724-54.534,134.014-77.159,53.373-31.328,70.778-42.931,74.839-46.992-.58,0-.58,0-1.16.58-8.122,5.8-27.847,18.565-76,46.412C482.647,149.308,452.48,166.712,421.152,184.7Zm-304.576,7.542c-9.282,5.8-16.824,10.443-22.626,14.5,10.443-5.8,26.687-15.664,45.831-27.267-5.8,3.481-11.6,6.382-16.824,9.282C120.057,190.5,118.316,191.658,116.576,192.239ZM464.663,68.087c-16.824,5.221-144.456,81.22-232.638,134.013,21.465-12.183,46.412-25.526,73.1-40.61l19.145-10.443c63.816-38.87,112.548-67.877,137.494-80.06A13.066,13.066,0,0,0,464.663,68.087ZM353.275,187.017c-6.382,4.061-12.183,7.542-18.565,11.6,53.954-29.587,109.647-59.755,152-84.7,23.206-13.343,40.03-23.786,51.633-31.908,4.641-2.9,8.122-5.8,10.443-7.542-2.32,1.16-5.221,2.321-8.122,4.061-12.183,8.122-35.969,22.626-80.64,48.732C427.534,145.247,390.4,166.132,353.275,187.017ZM182.132,156.85c-5.8,3.481-11.6,6.962-16.824,10.443-9.282,5.8-17.4,11.023-24.946,15.084,15.664-9.282,33.068-19.725,51.053-30.748C188.514,153.369,185.613,155.109,182.132,156.85ZM570.249,91.873c-27.847,15.084-83.541,47.572-140.4,81.8,15.664-8.7,31.328-17.4,45.832-26.107,42.351-26.107,73.679-44.671,92.823-55.114A5.843,5.843,0,0,1,570.249,91.873Zm-338.8,38.87c-9.282,5.8-18.565,11.6-27.267,16.824,17.984-10.443,37.129-20.885,55.114-31.328C250.589,120.3,241.307,125.522,231.445,130.743ZM507.014,95.354c-14.5,8.122-31.908,17.984-51.633,29.587-9.282,5.221-18.565,11.023-27.847,16.824,10.443-5.8,20.305-11.6,30.168-17.4C478.006,112.759,494.25,102.9,507.014,95.354ZM294.1,88.973c-5.221,2.9-11.6,6.382-17.984,10.443q-18.275,10.443-38.29,22.626a122.766,122.766,0,0,1,12.183-6.382C267.994,105.217,282.5,96.515,294.1,88.973ZM548.2,69.248c-8.7,4.061-25.526,12.763-59.175,32.488-10.443,6.382-22.046,13.343-34.229,20.305,35.389-20.885,64.4-37.129,84.121-46.412C543.563,72.729,546.464,70.408,548.2,69.248ZM437.4,87.232c-8.7,4.641-19.145,11.023-32.488,18.565-4.641,2.9-9.862,5.8-15.084,8.7,9.282-5.221,17.4-9.862,25.526-14.5C424.053,94.774,431.015,90.713,437.4,87.232ZM331.81,70.408c-6.962,3.481-17.984,10.443-31.328,18.565C314.405,80.851,325.428,74.469,331.81,70.408Zm222.2-3.481c0,.58-.58,1.16-2.9,3.481a9.8,9.8,0,0,1,2.9-1.16c1.16-1.16,1.74-1.74,1.74-2.321S555.166,66.347,554.005,66.927Z" transform="translate(-48.459 -63.39)"/>
      </g>
    </g>
  </g>
</svg>
