<?xml version="1.0" encoding="utf-8"?>
<!-- Generator: Adobe Illustrator 19.0.0, SVG Export Plug-In . SVG Version: 6.00 Build 0)  -->
<svg version="1.1" id="Layer_1" xmlns="http://www.w3.org/2000/svg" xmlns:xlink="http://www.w3.org/1999/xlink" x="0px" y="0px"
	 viewBox="0 0 200 200" style="enable-background:new 0 0 200 200;" xml:space="preserve">
<style type="text/css">
	.st0{fill:url(#XMLID_3_);}
	.st1{fill:url(#XMLID_4_);}
	.st2{fill:url(#XMLID_5_);}
	.st3{fill:url(#XMLID_6_);}
	.st4{fill:url(#XMLID_7_);}
	.st5{fill:url(#XMLID_8_);}
	.st6{fill:url(#XMLID_9_);}
	.st7{fill:url(#XMLID_11_);}
	.st8{fill:url(#XMLID_12_);}
	.st9{fill:url(#XMLID_13_);}
	.st10{fill:url(#XMLID_16_);}
</style>
<g id="XMLID_1_">
	<linearGradient id="XMLID_3_" gradientUnits="userSpaceOnUse" x1="134.258" y1="81.6902" x2="153.8055" y2="81.7034">
		<stop  offset="0" style="stop-color:#6B3113"/>
		<stop  offset="1" style="stop-color:#C67E41"/>
	</linearGradient>
	<path id="XMLID_100_" class="st0" d="M134.5,92.3L134.5,92.3l-0.2-0.1c0-0.1,0-0.1,0-0.2c0.1-0.2,0.9-0.8,5.4-3.3l0,0l-0.2-0.1
		c-0.1-0.2-0.2-0.3,2.9-2.4c1.4-0.9,3.1-2.1,4.8-3.2c-3.5,2-3.6,2-3.7,2l-0.1-0.1c-0.2-0.3,0.2-0.7,4.8-4.5c1.4-1.1,3-2.5,4-3.3
		c-0.8,0.5-2,1.2-3,1.8c-4,2.4-4.1,2.4-4.2,2.4l-0.1-0.1c-0.1-0.2-0.2-0.3,3.5-3.5c1.1-1,2.6-2.3,3.4-3.2c-1.1,0.6-2.9,1.7-4.3,2.5
		c-0.8,0.5-1.6,0.9-2.2,1.3c-1,0.6-1,0.6-1.1,0.6l-0.1-0.1c-0.1-0.1,0-0.2,0.1-0.4c-0.5,0.3-0.5,0.3-0.6,0.2l-0.1-0.1
		c-0.1-0.3-0.2-0.3,4.9-4.7c0.2-0.2,0.4-0.3,0.5-0.5c-1.6,0.9-3.9,2.3-5.3,3.1c-1.9,1.1-1.9,1.1-2,1.1l-0.1-0.1
		c-0.1-0.2-0.2-0.3,3.4-3.8c0.4-0.4,0.7-0.7,1.1-1.1c-1.1,0.7-2.9,1.7-4.3,2.5c-3.3,1.9-3.3,1.9-3.4,1.9l-0.1-0.1
		c-0.1-0.2-0.2-0.3,4.2-3.8c-0.9,0.6-2,1.2-3,1.7c-3.8,2.3-3.8,2.3-4,2.2l-0.1-0.1c-0.1-0.1,0-0.3,0.1-0.3l0.1,0
		c0.3-0.1,2-1.2,3.7-2.2c5.3-3.1,5.3-3.1,5.5-3.1l0.1,0.1c0.1,0.2,0.1,0.2-0.4,0.6c-0.2,0.2-0.6,0.5-1,0.8c-0.9,0.7-2.2,1.8-3.3,2.7
		c0.4-0.3,0.9-0.5,1.4-0.8c5.6-3.3,5.6-3.3,5.7-3.2l0.1,0.1c0.1,0.2,0.1,0.2-2.1,2.4c-0.8,0.7-1.8,1.7-2.5,2.4
		c0.2-0.1,0.4-0.2,0.6-0.4c7-4.1,7-4.1,7.2-4.1l0.1,0.1c0.1,0.2,0.1,0.2-0.6,0.8c-0.4,0.3-0.9,0.8-1.4,1.3c-1.1,1-2.7,2.3-3.7,3.3
		c1.1-0.6,2.7-1.6,3.9-2.3c2.6-1.5,2.6-1.5,2.7-1.5l0.1,0.1c0.1,0.1,0,0.2-0.1,0.3c1.1-0.6,1.1-0.6,1.2-0.6l0.1,0.1
		c0.2,0.3,0,0.5-4.4,4.5c-0.8,0.7-1.7,1.5-2.4,2.1c0.8-0.5,1.8-1.1,2.7-1.6c4.2-2.5,4.2-2.5,4.3-2.4l0.1,0.1
		c0.2,0.3-0.2,0.8-4.9,4.6c-1.3,1.1-2.9,2.4-3.8,3.2c1.5-0.9,4.3-2.5,6.2-3.6c2.8-1.6,2.8-1.6,2.9-1.6l0.1,0.1
		c0.1,0.2,0,0.3-0.5,0.6c-0.2,0.2-0.6,0.4-1.1,0.8c-0.9,0.6-2.2,1.5-3.6,2.4c-1.6,1-3.5,2.3-5.2,3.5c0.6-0.3,1.2-0.7,1.7-1
		c6.3-3.8,7.8-4.7,8.1-4.6c0.1,0,0.1,0.1,0.2,0.1c0,0.1,0,0.2,0,0.2c0,0.1-0.2,0.3-0.6,0.6l0.1,0.1c0.1,0.1,0,0.3-0.1,0.3l-0.1,0
		c-0.6,0.2-5.5,3.2-9.5,5.5C135.6,91.9,134.7,92.3,134.5,92.3z M151.7,81.6c-1.6,0.9-4.2,2.5-6.3,3.8c-0.2,0.1-0.4,0.2-0.6,0.3
		C147.4,84.2,150.2,82.7,151.7,81.6z M135.4,76.3l0.1,0.1L135.4,76.3z"/>
	<linearGradient id="XMLID_4_" gradientUnits="userSpaceOnUse" x1="48.2731" y1="87.3212" x2="147.8491" y2="87.3885">
		<stop  offset="0" style="stop-color:#6B3113"/>
		<stop  offset="1" style="stop-color:#C67E41"/>
	</linearGradient>
	<path id="XMLID_135_" class="st1" d="M95.9,111.3L95.9,111.3l-0.2-0.1c-0.2-0.3-0.1-0.8,2.8-2.9c1.7-1.2,4.2-2.9,7.6-5
		c1.1-0.7,2.2-1.4,3.3-2.1c-1.6,0.9-3.1,1.8-4.6,2.6c-1.3,0.7-2.5,1.4-3.7,2.1c-6.7,4.1-8.7,5.3-9,5.2c-0.1,0-0.1-0.1-0.2-0.1
		c-0.3,0.1-0.3,0.1-0.3,0.1l-0.1-0.1c0-0.1-0.1-0.2,0-0.3c0.1-0.2,0.3-0.5,0.7-0.8c-1.9,1-2.6,1.1-2.8,1c-0.1,0-0.2-0.1-0.2-0.2
		c0-0.1-0.1-0.1,0-0.3c0-0.1,0-0.1,0.1-0.2c-1.7,1-1.8,0.9-1.9,0.9l-0.2-0.1c-0.2-0.3-0.3-0.5,7.8-5.6c4.7-3,11.2-7,17.4-10.8
		c9-5.6,18.9-11.7,23.1-14.5c-4,2.3-12.2,7.1-20.3,11.9c-7.4,4.4-15,8.9-21,12.3c-10.2,5.9-10.4,5.9-10.6,5.8l-0.2-0.1
		c-0.2-0.3-0.3-0.5,5.7-4.1c3.6-2.2,8.6-5.2,13.9-8.4c8-4.8,17-10.2,24.1-14.7c3.8-2.4,6.7-4.3,8.7-5.7c2.8-2,3.3-2.6,3.3-2.8
		c-0.1,0-0.2,0-0.4,0.1c-1.4,0.8-3.1,1.8-5.1,3c-5.9,3.5-14,8.1-21.9,12.7c-7.4,4.3-15.4,8.9-21.5,12.5c-0.2,0.1-0.4,0.3-0.6,0.4
		c-10.1,6.3-10.1,6.2-10.3,6.2l-0.1-0.1c-0.1-0.1-0.1-0.2,0.3-0.6c-0.6,0.3-0.9,0.4-1,0.4l-0.2-0.1c-0.3-0.5,0.2-1.5,9.4-7.1
		c5.9-3.6,14-8.3,21.8-12.9c7.9-4.6,16.1-9.3,22.1-13c3.3-2,5.7-3.5,7.3-4.7c1.7-1.2,2.4-1.8,2.6-2.1c-2.3,1-15.3,8.8-28,16.4
		c-9.1,5.4-18.5,11.1-25.8,15.4c-11,6.4-13,7.2-13.4,7.1c-0.1,0-0.1-0.1-0.2-0.1c0-0.1,0-0.1,0-0.2c0-0.1,0.1-0.2,0.7-0.6
		c-0.6,0.2-0.9,0.3-1.2,0.2c-0.2,0-0.2-0.1-0.3-0.2l0-0.2l0,0c-0.8,0.4-0.9,0.4-1,0.3c-0.1,0-0.1-0.1-0.2-0.1c0-0.1,0-0.1,0-0.2
		c0-0.1,0-0.1,0.2-0.3c-0.2,0.1-0.4,0.1-0.5,0.1c-0.1,0-0.2-0.1-0.2-0.2c-0.1-0.2-0.2-0.3,1.9-1.7c-1.7,0.7-2.4,0.9-2.8,0.8
		c-0.1,0-0.2,0-0.2,0c-0.1,0-0.2-0.1-0.2-0.1l0-0.2l0-0.1l0-0.1c0.1-0.4,1.4-1.5,10.2-6.7c6-3.5,13.7-8,22-12.7
		c8.4-4.8,17.2-9.9,23.7-13.8c8.5-5,10.8-6.7,11.2-7.2c-0.1,0-0.5,0-1.4,0.3c-2.8,3-17.7,11.2-38,22.3c-2.7,1.5-5.4,3-8,4.4
		c-1.3,0.8-2.6,1.6-3.9,2.4c-4.9,3-9.1,5.6-12.1,7.5c-5,3-5.1,3-5.3,2.9l-0.2-0.1c0-0.1-0.1-0.2,0-0.3c0-0.2,0.2-0.4,0.6-0.7
		c-0.6,0.2-1,0.3-1.2,0.3c-0.1,0-0.2-0.1-0.2-0.2c-0.1,0-0.1,0-0.2,0c-0.1,0-0.2-0.1-0.2-0.2c-0.2-0.3-0.3-0.5,8.4-5.7
		c5.1-3.1,12.1-7.2,19.4-11.5c15.2-8.9,34-19.9,35.5-21.7c-0.3,0-1.2,0.3-3.7,1.6c-2.1,1.1-4.9,2.7-8.6,4.9
		c-6.9,4.1-15.7,9.5-24.3,14.8c-7.2,4.5-14,8.7-19.2,11.8c-7.6,4.5-9.1,5.1-9.5,5c-0.1,0-0.2-0.1-0.2-0.2c0-0.1-0.1-0.2,0-0.3
		c0.4-1.6,11.8-8.1,30.4-18.6c7.8-4.4,15.8-8.9,21.8-12.5c3.2-1.9,5.6-3.4,7.2-4.5c2.2-1.5,2.6-2,2.7-2.2c-0.5,0-3,1-13,6.9
		c-7.2,4.3-16.2,9.8-24.9,15.1c-6.6,4-12.8,7.9-17.5,10.6c-7.1,4.2-8.1,4.5-8.3,4.4c-0.1,0-0.1-0.1-0.2-0.1c0-0.1-0.1-0.2,0-0.3
		c0.4-1.5,11.1-7.7,28.6-17.6c7.6-4.3,15.4-8.7,21.2-12.2c3.1-1.9,5.4-3.3,7-4.5c2.2-1.5,2.5-2,2.6-2.2c-0.2,0-0.9,0.1-2.7,1
		c-2.7,2.1-11.1,6.9-23.7,13.8c-3.5,2.1-7,4.3-10.3,6.4c-16,9.9-22.6,13.9-23.4,13.7c-0.1,0-0.1-0.1-0.2-0.1c0-0.1-0.1-0.2,0-0.3
		c0.1-0.3,0.6-0.8,1.5-1.5c-1.9,1.1-2.1,1.1-2.2,1.1l-0.1-0.1c0-0.1-0.1-0.2,0-0.3c0.4-1.4,10.3-7.1,26.7-16.3
		c6.9-3.9,14.1-8,19.5-11.2c7.2-4.3,8.7-5.7,8.9-6.1c-0.6,0-3.4,1.1-14.9,7.9c-8.1,4.7-18,10.8-26,15.7c-4.2,2.6-7.9,4.8-10.5,6.4
		c-4.4,2.6-4.5,2.6-4.6,2.6l-0.2-0.1c-0.2-0.3-0.2-0.4,6.9-4.9c4.2-2.6,9.8-6.1,15.8-9.7c12-7.3,26.8-16.3,28.8-18.1
		c-0.7,0.2-2.8,1.2-9,4.8c-5.2,3.1-11.9,7.2-18.4,11.3c-15.2,9.5-24.7,15.3-26.3,15.3l-0.1,0c-0.1,0-0.2-0.1-0.2-0.2
		c-0.2-0.4-0.3-0.5,14.4-9.3c7.1-4.3,15.3-9.3,21.8-13.4c9.1-5.8,10.9-7.6,11.2-8.1c-2.3,0.6-22.4,12.7-34.6,20
		c-12.8,7.7-13.9,8.3-14.1,8.3l-0.1-0.1c-0.2-0.3,0.1-0.9,2.2-2.4c1.4-1,3.4-2.4,6.2-4.1c5.1-3.2,11.8-7.2,18.2-11
		c7.6-4.5,15.4-9.2,17.4-10.8c-2.8,1.3-13.3,7.7-22.8,13.4c-5.3,3.2-10.8,6.5-14.8,8.9c-6.9,4-7.2,4-7.4,3.9c-0.1,0-0.1-0.1-0.2-0.1
		c0-0.1,0-0.1,0-0.2c0.1-0.2,0.6-0.6,1.6-1.3c-0.7,0.4-1.3,0.6-1.7,0.7c-0.5,0.2-0.7,0.3-0.8,0.3c-0.1,0-0.1-0.1-0.2-0.1
		c0-0.1-0.1-0.2,0-0.3l0,0c-0.1-0.1-0.1-0.2,0.3-0.5c0.6-0.6,2.3-1.7,5-3.3c0.3-0.2,0.6-0.4,1-0.6c2.2-1.4,4.9-3.1,7.8-4.8
		c9.5-5.9,22.3-13.9,24.5-15.7c-0.8,0.3-3.2,1.4-9.7,5.2c-5.4,3.2-11.9,7.2-17.7,10.7C55,86.6,53.3,87.6,53,87.5l-0.2-0.1
		c-0.1-0.2-0.1-0.5,1.8-1.9c1.1-0.8,2.7-1.9,4.9-3.3c4.1-2.6,9.4-5.9,14.5-9c5-3.1,10.1-6.2,12.8-8c-2.9,1.7-8.5,5-14,8.3
		c-4.8,2.9-9.8,5.8-13.6,8.1c-6.6,3.8-6.8,3.8-7,3.7c-0.1,0-0.1-0.1-0.2-0.1c-0.1-0.2-0.1-0.2,2.4-1.9c1.5-0.9,3.5-2.2,5.9-3.7
		c7.1-4.5,18-11.4,22-14.2c-2.4,1.3-6.8,4-11.1,6.6c-4.5,2.7-9.1,5.5-12.8,7.6c-6.4,3.7-6.7,3.6-6.9,3.6c-0.1,0-0.1-0.1-0.2-0.1
		c-0.1-0.3-0.2-0.4,3.7-3.1c2.3-1.6,5.4-3.6,8.6-5.7c5.9-3.9,13.2-8.6,14.7-10.1c-2,0.9-9.9,5.7-15.9,9.3
		c-9.4,5.7-11.2,6.8-11.5,6.7c-0.1,0-0.1-0.1-0.2-0.1c-0.2-0.3-0.2-0.4,10-7.2c4.6-3,10.7-7,12.4-8.4c-2.6,1.2-12.3,7.1-17.7,10.4
		c-5.6,3.4-5.6,3.4-5.7,3.3L49.7,78c0-0.1,0-0.1,0-0.2c0-0.1,0.1-0.2,0.3-0.4l0,0l-0.1-0.1c-0.1-0.2,0-0.3,0.6-0.8
		c0.4-0.3,0.9-0.6,1.6-1.1c1.3-0.9,3.1-2.2,5.1-3.5c2.9-2,6.6-4.6,8.8-6.2c-1.7,1-4.1,2.5-6.4,3.8c-8,4.9-9.9,5.9-10.2,5.8
		c-0.1,0-0.1-0.1-0.2-0.1c-0.2-0.4,0-0.6,8.2-5.5c2.5-1.5,5.4-3.2,7.3-4.4c-2.8,1.6-7.9,4.6-11,6.5c-3.9,2.3-3.9,2.3-4.1,2.3
		L49.4,74c-0.1-0.2-0.1-0.3,2.7-2.2c1.6-1.1,3.6-2.5,5.5-3.8c0.8-0.5,1.5-1.1,2.3-1.6c-2.2,1.3-4.9,2.9-7,4.1
		c-3.7,2.2-3.7,2.2-3.8,2.1l-0.1-0.1c-0.2-0.4,0.3-0.8,6.3-4.7c1.1-0.7,2.4-1.5,3.4-2.2c-1.5,0.9-3.4,2-5,2.9c-5,2.9-5,2.9-5.1,2.9
		l-0.1-0.1c-0.2-0.3,0.1-0.7,6.1-5.4c0.2-0.1,0.4-0.3,0.6-0.4c-0.9,0.5-1.8,1.1-2.7,1.6C49.1,69,49.1,69,49,68.9l-0.1-0.1
		c-0.1-0.2-0.2-0.3,1.5-1.4c-1.8,1-1.8,1-1.9,1l0.1-0.2l0.2-0.1l-0.2,0.1l-0.1-0.2c0.1-0.1,1.6-0.9,3-1.8c4.1-2.4,4.1-2.4,4.3-2.4
		l0.1,0.1c0.1,0.2,0,0.3-0.8,0.9c-0.4,0.3-0.9,0.6-1.5,1c3.4-2,3.5-2,3.6-2l0.1,0.1c0.1,0.2,0.1,0.2-2.6,2.4c-1.5,1.2-3.6,2.9-4.9,4
		c0.9-0.6,2.3-1.3,3.6-2.1c7.6-4.5,7.6-4.4,7.8-4.4l0.1,0.1c0.2,0.4-0.2,0.7-5.8,4.4c-1.1,0.7-2.3,1.5-3.4,2.3
		c0.2-0.1,0.4-0.2,0.6-0.3c9.9-5.9,10.5-6.1,10.7-6.1l0.1,0.1c0.1,0.2,0.1,0.2-1.7,1.5c-1,0.7-2.4,1.7-3.9,2.7
		c-1.2,0.8-2.6,1.8-3.9,2.6c11.1-6.6,12.5-7.3,12.8-7.2l0.2,0.1c0.2,0.4-0.5,1-9.3,6.3c-1.6,1-3.3,2-4.8,2.9
		c1.9-1.1,4.3-2.6,6.5-3.9c7.6-4.6,8.5-5.1,8.8-5l0.2,0.1c0.1,0.2,0.2,0.3-3.5,2.9c-2.1,1.5-4.8,3.3-7.4,5.1c-1.4,1-2.8,2-4,2.8
		c1.7-1,4-2.4,6.2-3.7c10.7-6.4,13.1-7.8,13.5-7.7l0.2,0.1l0,0.1c0.7-0.3,0.8-0.3,0.9-0.3c0.1,0,0.1,0.1,0.2,0.1
		c0.1,0.3,0.3,0.5-4.1,3.4c-2.5,1.7-5.8,3.8-8.9,5.9c-3,2-6.4,4.2-8.3,5.5c2.1-1.2,5.8-3.5,9.4-5.7c11.2-6.8,16-9.7,16.6-9.5
		c0.1,0,0.1,0.1,0.2,0.1c0.2,0.3,0.3,0.5-4.7,4c-2.9,2-6.7,4.5-10.4,7c-4.6,3-9.7,6.4-11.5,7.8C55.2,81,64.2,75.6,71,71.5
		C81.8,65,83.7,63.9,84,64l0.2,0.1c0.2,0.3,0.3,0.5-8.2,6c-4.7,3.1-10.7,6.8-15.4,9.8C58.9,81,57.3,82,56,82.8
		c4.1-2.3,10.8-6.4,16.6-9.8c4.1-2.5,8.1-4.8,11-6.6c5-2.9,5.1-2.9,5.3-2.8l0.2,0.1c0.2,0.4-0.3,0.9-14.8,9.8
		C66.7,78.2,56.6,84.4,54,86.6c1.9-1.1,6.3-3.8,10.9-6.6C80,70.7,91.7,63.6,93,64c0.1,0,0.2,0.1,0.2,0.2c0.2,0.3,0.3,0.5-8.2,5.9
		c-4.7,3-10.8,6.8-16.3,10.3c1.3-0.7,2.8-1.5,4.3-2.3c14.5-9,24.1-14.8,25.4-14.5l0.1,0.1l0.1,0c0.1,0,0.1,0.1,0.2,0.1
		c0,0.1,0,0.2,0,0.2L98.7,64l0,0.1c0,0.2-0.3,0.4-0.8,0.8c2.7-1.5,3-1.4,3.1-1.4c0.1,0,0.1,0.1,0.2,0.1c0.1,0.3,0,0.5-1.4,1.5
		c-0.9,0.6-2.2,1.4-3.9,2.5c-3.3,2.1-7.9,4.8-12.8,7.7c-6.3,3.7-12.7,7.6-17.8,10.8c-5.6,3.5-7.6,5.1-8.3,5.8
		c1.7-1,7.2-4.2,13.3-7.9c6.9-4.1,15.5-9.3,22.3-13.3c11.9-7,12.5-6.8,12.8-6.8c0.1,0,0.1,0.1,0.2,0.1c0.2,0.3,0.1,0.9-2.9,3.1
		c-1.8,1.4-4.5,3.1-8.1,5.5c-6.6,4.2-15.2,9.5-22.2,13.7c-6.1,3.7-12,7.3-13.7,8.5c0.9-0.3,3-1.4,8.1-4.4
		c4.8-2.9,11.2-6.8,17.3-10.7c16.5-10.3,26.7-16.5,28-16.2c0.1,0,0.2,0.1,0.2,0.2c0.2,0.3,0.3,0.6-9.2,6.6
		c-5.6,3.5-12.9,7.9-19.9,12.2c-7.2,4.4-14.6,8.9-18.9,11.6c2.8-1.7,6.7-4.1,11-6.7c21.5-13.2,39.5-24.1,41.3-23.6
		c0.1,0,0.2,0.1,0.3,0.2c0,0.1,0.1,0.2,0,0.3c-0.1,0.5-1.3,1.4-3.3,2.8c6.3-3.5,6.7-3.4,6.9-3.3c0.1,0,0.2,0.1,0.2,0.1
		c0,0.1,0.1,0.2,0,0.3l0,0c1-0.4,1.7-0.6,2-0.6c0.1,0,0.2,0.1,0.3,0.2c0,0.1,0.1,0.2,0,0.4c-0.1,0.5-1.2,1.4-3.2,2.8
		c4.2-2.4,6.8-3.6,7.5-3.5c0.1,0,0.2,0.1,0.2,0.2c0,0.1,0.1,0.2,0,0.3c-0.1,0.4-0.9,1.1-2.2,2.1c3-1.6,4.9-2.4,5.4-2.3
		c0.2,0,0.2,0.1,0.3,0.2c0.2,0.4,0.4,0.7-11.3,7.8c-6.8,4.1-15.8,9.4-24.5,14.5c-12.2,7.1-24.8,14.5-27.2,16.4
		c0.6-0.4,2.1-1.3,5.7-3.3c3.7-2.1,8.7-4.9,14.6-8.2c4.6-2.8,9.5-5.8,14.4-8.7c8.1-4.9,15.8-9.6,21.7-13.2
		c8.8-5.2,10.4-5.8,10.8-5.7l0,0c0.3-0.1,0.6-0.1,0.7-0.1c0.1,0,0.2,0.1,0.2,0.2c0,0.1,0.1,0.2,0,0.4l0,0c0.5-0.1,0.9-0.2,1.1-0.1
		c0.2,0,0.3,0.1,0.3,0.2c0,0.1,0.1,0.1,0,0.3c-0.3,1.3-13.5,8.9-35.2,21.3c-8.8,5.1-18.4,10.6-24.7,14.4c0.9-0.5,1.8-1,2.8-1.6
		c6.2-3.6,14.4-8.2,23-13c3.5-2,7-4,10.5-5.9c6.8-4.1,13.1-7.9,17.9-10.7c5-2.9,7.1-4.1,8-4.5c0.7-0.4,0.9-0.5,1-0.4l0.2,0.1
		c0,0.1,0,0.1,0,0.2c0,0.1,0,0.1-0.3,0.3c-0.1,0.2-0.5,0.6-1.6,1.4c1.4-0.7,2.4-1,2.8-0.9c0.2,0,0.2,0.1,0.3,0.2
		c0,0.1,0.1,0.2,0,0.3c-0.1,0.2-0.3,0.5-0.8,0.9l0.1,0.1c0,0.1,0,0.1,0,0.2c0,0.1-0.1,0.2-0.4,0.5c0.1,0,0.1,0.1,0.1,0.1
		c0,0,0.1,0.1,0,0.2c0,0.2-0.1,0.4-1.9,1.6c1.7-0.9,1.8-0.9,2-0.8c0.1,0,0.1,0.1,0.2,0.1c0.3,0.5-0.2,1.5-9.8,7.4
		c-1.6,1-3.3,2-5.2,3.1c13-7.6,15.4-8.3,16.1-8.1c0.2,0,0.2,0.1,0.3,0.2c0.1,0.2-0.1,0.4-0.7,0.8c-0.4,0.3-1.1,0.7-2,1.2
		c-0.4,0.2-0.8,0.5-1.3,0.8c0.1,0,0.1,0.1,0.1,0.1c0.2,0.3,0.1,0.8-3.1,3.2c-2,1.4-4.8,3.3-8.7,5.7c-7.1,4.5-16.4,10-24.5,14.9
		c-7.5,4.5-14.8,8.9-17.9,10.9c4.8-2.6,18.3-10.6,29.5-17.2c5.9-3.5,11.5-6.8,15.7-9.2c7-4.1,7.1-4,7.2-4l0.1,0.1
		c0.2,0.3,0.3,0.5-7.9,5.6c-4.8,3-11.3,7.1-17.6,10.9c-9.1,5.7-19.2,11.9-23.3,14.6c0.8-0.4,1.7-1,2.8-1.6c1.8-1.2,4.7-2.9,9.2-5.6
		c1.6-0.9,3.2-1.9,4.9-2.9c6.5-3.9,13.7-8.3,19.4-11.6c10.3-6,10.8-5.9,11-5.8c0.1,0,0.1,0.1,0.2,0.1l0,0.2
		c-0.1,0.3-1.1,0.9-13.2,7.7c-5.3,3-11.6,6.5-17.3,9.8c-0.3,0.2-0.6,0.4-0.9,0.5c-4.7,2.9-9.2,5.6-12.5,7.5
		c-0.2,0.1-0.5,0.3-0.7,0.4c-1.7,1.1-2.4,1.7-2.7,2c0.5-0.1,1.7-0.6,5-2.4c4.2-2.8,12.4-7.6,22.7-13.5c1.9-1.2,3.7-2.3,5.5-3.3
		c11.1-6.8,12.9-7.8,13.2-7.8l0.2,0.1c0,0.1,0,0.1,0,0.2c-0.2,0.6-5.1,3.5-17.2,10.4c-0.4,0.2-0.9,0.5-1.3,0.8
		c-5.2,3.2-10.9,6.6-15.7,9.5c-3,1.8-5.3,3.1-7,4c-1.3,0.9-2.1,1.4-2.5,1.8c2.2-1.2,8.9-5.1,15.8-9.2c11.9-7.3,21.3-13,24.5-14.3
		c2.2-1.2,2.3-1.2,2.4-1.2l0.1,0.1c0,0.1,0,0.1,0,0.2c0,0.1-0.1,0.2-1.3,1c-0.1,0.1-0.3,0.3-0.7,0.5c-0.4,0.2-0.9,0.6-1.7,1
		c-1.4,0.9-3.5,2.1-5.9,3.5c-5.4,3.2-12.9,7.6-18.9,11.4c-7.5,4.7-9.7,6.5-10.4,7.2c1.6-0.8,6.9-4,12.4-7.4c5-3.1,10.8-6.6,15.3-9.2
		c7.8-4.6,8.3-4.5,8.6-4.4c0.1,0,0.2,0.1,0.2,0.1c0.1,0.2,0.2,0.3-3.1,2.4c-1.9,1.3-4.6,3-7.5,4.8c-6.9,4.4-17,10.9-19.1,12.7
		c2.9-1.2,16.4-9.4,23.9-13.9c7-4.2,7-4.2,7.2-4.2l0.1,0.1c0.2,0.3,0,0.6-6.4,5.3c-1.8,1.3-3.8,2.8-5.1,3.8c1.9-1.1,5.7-3.3,9.3-5.5
		c12.1-7.2,15-8.9,15.3-8.8c0.1,0,0.1,0.1,0.2,0.1c0,0,0.1,0.1,0,0.2c-0.1,0.4-1.7,1.5-4.7,3.3c0,0.1-0.1,0.1-0.1,0.2l-0.1,0
		c-0.1,0-0.3,0.2-0.7,0.4c-1,0.6-2.1,1.3-3.4,2c-0.6,0.4-1.2,0.7-1.8,1.1c-5.8,3.5-6.1,3.6-6.3,3.6l-0.2-0.1l0-0.2
		c0-0.2,0-0.2,3.7-2.3c1.2-0.7,2.7-1.6,4.3-2.5c1.7-1,2.8-1.7,3.4-2c1.9-1.2,3.7-2.2,4.7-2.9c-2.4,1.3-8.8,5.1-14.1,8.2
		c-9.7,5.8-10.7,6.3-10.9,6.3l-0.1-0.1c-0.2-0.3,0-0.6,6.3-5.3c1.7-1.2,3.6-2.6,4.8-3.6c-1.3,0.8-3.2,1.9-5.2,3.2
		c-4.4,2.7-10.4,6.3-15.3,9.2c-8.7,5.1-9.2,5-9.4,4.9c-0.1,0-0.1-0.1-0.2-0.1c-0.2-0.3-0.3-0.5,6.4-5c3.8-2.5,8.8-5.7,13.2-8.5
		c4-2.6,7.8-5,9.5-6.2c-3.5,1.6-14.7,8.5-22.5,13.2C98.6,110,96.4,111.3,95.9,111.3z M121.2,82.4c-3.8,2.2-7.7,4.5-11.7,6.8
		c-7.7,4.4-15.6,9-21.4,12.6c-6.8,4.1-8.9,5.8-9.4,6.4c1.8-0.9,8.9-5.3,16.9-10.2C103.5,93.2,112.9,87.3,121.2,82.4z M77.9,105.3
		c-1.2,0.7-2.2,1.3-2.8,1.7c4-1.8,20.2-11.5,34.6-20.1c-2.6,1.5-5.1,2.9-7.7,4.4c-3.1,1.8-6.2,3.6-9.2,5.3
		C86.3,100.6,81.3,103.5,77.9,105.3z M102.6,90.1c-1,0.6-2,1.1-2.9,1.7C87.5,98.6,76.1,105,74,106.5c0.4-0.1,1.4-0.4,3.4-1.5
		c0.1-0.1,0.2-0.1,0.3-0.2c1.2-0.7,2.8-1.7,4.9-2.9c2.9-1.7,6.4-3.7,10.2-5.9C95.9,94.2,99.2,92.2,102.6,90.1z M74.6,105.2
		c-0.5,0.3-1,0.6-1.3,0.9c2.4-1.2,8.6-4.8,16-9.3c-1.6,0.9-3.2,1.8-4.7,2.7C80.2,102.1,76.8,104.1,74.6,105.2z M77.4,102.5
		c-2.6,1.6-4.4,2.7-5.2,3.3c0.4-0.1,1-0.4,2.1-1c1.2-0.8,3.1-1.9,5.9-3.5c1.3-0.7,2.6-1.5,4.1-2.3c3.7-2.2,7.9-4.9,12.5-7.7
		c-1.9,1.1-3.7,2.2-5.5,3.3C84.9,98.4,80.5,100.9,77.4,102.5z M100,88.1c-13,7.3-25.5,14.4-28.7,16.5C74.8,103.1,87.3,95.7,100,88.1
		z M71.6,102c-1.1,0.7-1.8,1.2-2.1,1.5c1.2-0.7,4-2.3,7.6-4.5C74.8,100.2,73,101.2,71.6,102z M78.1,101.6c-0.7,0.4-1.3,0.7-1.9,1.1
		c0.2-0.1,0.4-0.2,0.6-0.3c0.1-0.1,0.3-0.1,0.4-0.2C77.5,101.9,77.8,101.7,78.1,101.6z M101.9,80.1c-2,1.1-4,2.3-6.1,3.5
		c-7.4,4.2-15.1,8.5-20.8,11.9c-7.3,4.4-9.1,5.8-9.4,6.3c0.6-0.1,2.8-1.2,9.1-5c5.2-3.1,12-7.3,19.1-11.7
		C96.6,83.4,99.3,81.7,101.9,80.1z M98.3,79.8c-2,1.1-4,2.3-6.2,3.5c-7.3,4.2-14.3,8.1-19.6,11.3c-6.5,3.9-8.3,5.3-8.7,5.9
		c2-0.7,13.8-8,25.2-15C92.2,83.5,95.3,81.6,98.3,79.8z M87.3,83.9c-5.5,3-10.8,6-15,8.5c-7,4.1-9,5.6-9.5,6.2
		c2-0.7,12.5-7.3,22.8-13.6C86.2,84.6,86.8,84.2,87.3,83.9z M87.9,82.2c-6.3,3.6-12.8,7.3-17.7,10.1c-4.9,2.9-7,4.4-7.8,5.1
		c2.1-1.2,7.9-4.6,14.4-8.6C80.3,86.7,84,84.5,87.9,82.2z M130.4,88.7c-3,1.7-7.2,4.2-11.6,6.7C123.2,92.8,127.4,90.4,130.4,88.7z
		 M117.7,79c-4.8,2.9-9.9,6.1-14.9,9.2c-3,1.8-5.7,3.5-8.3,5.1c1.5-0.8,3.1-1.7,4.7-2.6c0.8-0.4,1.6-0.9,2.4-1.3
		c0.5-0.3,1.1-0.7,1.6-1c9-5.4,18.3-11,25.5-15.2c7.9-4.6,11-6.3,12.3-6.7c0.8-0.6,1.1-0.9,1.2-1.1c-0.2,0-1,0.1-4,1.6
		c-0.9,0.4-1.9,1-3,1.6c-1.5,0.9-3.5,2.1-5.8,3.5C125.8,74.3,121.9,76.6,117.7,79z M135.4,75.7c-0.7,0.3-1.5,0.7-2.5,1.3
		c-3.2,1.7-7.6,4.2-13.1,7.5c-4.6,2.7-9.6,5.7-14.4,8.7c2-1.1,4-2.3,5.9-3.4C119.9,84.7,129.2,79.3,135.4,75.7z M142.5,71.4
		c-0.5,0.1-1.8,0.6-5,2.2c-2.9,1.5-6.7,3.7-11.8,6.7c-6,3.5-12.9,7.7-19.5,11.8c15.1-9.2,28.3-17,32-18
		C140.4,72.7,141.9,71.8,142.5,71.4z M101.8,89.8c-1.1,0.7-2.2,1.3-3.3,2c0.3-0.2,0.6-0.3,0.9-0.5c4.2-2.4,8.7-4.9,13.1-7.5l0.1,0
		C109.2,85.7,105.6,87.7,101.8,89.8z M114.5,80c-0.4,0.2-0.7,0.4-1.1,0.6c-5,3-10.3,6.2-15.4,9.3c1.6-0.9,3.3-1.9,4.9-2.9
		c1.1-0.6,2.2-1.3,3.3-1.9c3.3-2,6.5-4,9.7-6C115.5,79.4,115,79.7,114.5,80z M75.2,78.5c-7.7,4.4-16.3,9.3-18.9,11.1
		C59.1,88.2,67.3,83.2,75.2,78.5z M134.4,83.6c-2.2,1.2-6,3.3-10.4,5.9C128.3,87.1,132.2,84.9,134.4,83.6z M112.7,84.3
		c-0.8,0.5-1.6,1-2.3,1.5c-1.8,1.1-3.6,2.3-5.3,3.3c8.2-4.7,16.5-9.4,23.1-13.3c9.2-5.4,12.2-7.4,12.9-8.1c-0.1,0-0.1,0-0.2,0.1
		c-1.4,1-4.8,3.2-13.1,8C123.3,78.2,118.1,81.2,112.7,84.3z M60.2,85.6c-1.6,1-2.9,1.8-3.9,2.5c1.8-1,4.6-2.7,7.9-4.7
		c-1,0.6-2,1.1-2.9,1.6C60.8,85.3,60.5,85.5,60.2,85.6z M120.2,64.2c-2.9,0.9-24.9,14-40.1,23.1c3.7-2.1,8-4.4,12.6-7
		c1.1-0.6,2.2-1.2,3.3-1.8c11-6.7,19.4-11.7,23.7-13.8C120,64.5,120.1,64.3,120.2,64.2z M101,84.7c-1.1,0.7-2.1,1.3-3.2,2
		c9.3-5.1,18.9-10.3,26.2-14.6c4-2.3,6.9-4.1,8.9-5.5c0.8-0.5,1.4-1,1.8-1.3c-0.4,0.2-0.9,0.4-1.4,0.7c-2.1,1.4-6.2,3.9-13.9,8.4
		C113.8,77.5,107.4,81.1,101,84.7z M71.5,79.5c-1,0.6-2,1.2-2.9,1.8c-1.6,1-3,1.9-4.3,2.6c2.7-1.6,5.7-3.4,8.8-5.3
		C72.6,78.9,72.1,79.2,71.5,79.5z M138.4,68.3c-4.8,2.6-14.4,8.2-24.2,14.1c2.7-1.5,5.4-3,7.9-4.5c7.3-4.5,12.7-7.7,16-9.5
		C138.1,68.4,138.3,68.3,138.4,68.3z M80,75c-1.6,1-3.2,2-4.7,2.9c3.1-1.8,6.4-3.6,9.5-5.4C83.3,73.2,81.7,74.1,80,75z M127.5,68.9
		c-2.5,1.4-5.5,3.1-8.9,5.1c-1.6,0.9-3.2,1.9-4.8,2.9c1.8-1,3.5-2,5.2-3C122.5,71.9,125.3,70.2,127.5,68.9z M90.8,67.8
		c-0.9,0.5-2,1.1-3.1,1.8c-2.1,1.2-4.3,2.5-6.6,3.9c0.7-0.4,1.4-0.8,2.1-1.1C86.3,70.6,88.8,69.1,90.8,67.8z M134.6,64.4
		c-1.5,0.7-4.4,2.2-10.2,5.6c-1.8,1.1-3.8,2.3-5.9,3.5c6.1-3.6,11.1-6.4,14.5-8C133.8,65,134.3,64.6,134.6,64.4z M115.5,67.5
		c-1.5,0.8-3.3,1.9-5.6,3.2c-0.8,0.5-1.7,1-2.6,1.5c1.6-0.9,3-1.7,4.4-2.5C113.2,68.8,114.4,68.1,115.5,67.5z M97.3,64.6
		c-1.2,0.6-3.1,1.8-5.4,3.2C94.3,66.4,96.2,65.3,97.3,64.6z M135.6,64c0,0.1-0.1,0.2-0.5,0.6c0.2-0.1,0.4-0.2,0.5-0.2
		c0.2-0.2,0.3-0.3,0.3-0.4C135.9,63.9,135.8,63.9,135.6,64z"/>
</g>
<g id="XMLID_10_">
	<linearGradient id="XMLID_5_" gradientUnits="userSpaceOnUse" x1="24.413" y1="128.9172" x2="315.6669" y2="137.9942">
		<stop  offset="0" style="stop-color:#6B3113"/>
		<stop  offset="1" style="stop-color:#C67E41"/>
	</linearGradient>
	<path id="XMLID_14_" class="st2" d="M37.1,127.3c0,0.1,0.1,0.2,0.3,0.3c1,0.3,1.8,0.8,2.6,1.6c0.8,0.8,1.1,1.8,1.1,2.9
		c0,1.7-1.1,3.5-3.3,5.3c-2.2,1.8-4.5,2.7-6.9,2.7c-0.7,0-1.2-0.1-1.6-0.3c-0.4-0.2-0.6-0.4-0.6-0.6c0-1.1,0.8-1.7,2.4-1.7
		c0.2,0,0.6,0,1.1,0c0.5,0,1-0.1,1.6-0.3c0.6-0.2,1.2-0.6,1.8-1c0.6-0.4,1.1-0.8,1.5-1.2c0.4-0.4,0.8-0.9,1-1.3
		c0.3-0.5,0.4-0.9,0.4-1.4c0-0.8-0.3-1.5-1-2.1c-0.7-0.6-1.6-0.9-2.7-0.9c-0.2,0-0.6,0.1-1.3,0.4c-0.7,0.3-1.1,0.4-1.3,0.4
		c-0.7,0-1.1-0.1-1.3-0.3c-0.2-0.2-0.3-0.5-0.3-1c0-0.3,0.8-0.7,2.3-1.4c1.3-0.5,2.5-1.3,3.7-2.5c1.2-1.1,1.8-2.1,1.8-2.9
		c0-0.6-0.2-1-0.7-1.3s-1.1-0.5-1.9-0.5c-1.3,0-2.7,0.2-4,0.5c-1.3,0.3-2.1,0.6-2.2,0.9c-0.1,0.3-0.5,2.5-1.1,6.6
		c-0.6,4.1-0.9,6.5-0.9,7.1c0,0.6,0,1.2,0,1.8c0,0.5-0.1,1-0.3,1.4c-0.2,0.4-0.6,0.6-1.1,0.6c-0.5,0-0.9-0.2-1.1-0.6
		c-0.3-0.4-0.4-0.9-0.4-1.5c0-0.2,0-0.4,0.1-0.7c0.5-1.9,0.9-4.4,1.3-7.5c0.4-3,0.6-4.8,0.6-5.2c0-0.4-0.1-0.7-0.2-0.8
		c-0.1-0.2-0.3-0.3-0.7-0.3c-0.1,0-0.3,0-0.4,0c-0.1,0-0.3-0.1-0.4-0.3c-0.1-0.2-0.2-0.4-0.2-0.7c0-0.8,1.3-1.6,3.8-2.3
		c2.6-0.8,5.2-1.2,7.8-1.2c1.4,0,2.5,0.4,3.3,1.1c0.9,0.7,1.3,1.6,1.3,2.6c0,0.7-0.4,1.6-1.1,2.6C39.4,125.5,38.4,126.4,37.1,127.3z
		"/>
	<linearGradient id="XMLID_6_" gradientUnits="userSpaceOnUse" x1="24.3671" y1="130.3894" x2="315.621" y2="139.4664">
		<stop  offset="0" style="stop-color:#6B3113"/>
		<stop  offset="1" style="stop-color:#C67E41"/>
	</linearGradient>
	<path id="XMLID_32_" class="st3" d="M53.7,133.5c-1.3,1.7-2.5,3-3.8,3.8c-1.2,0.8-2.4,1.3-3.4,1.3c-0.7,0-1.3-0.3-1.8-0.9
		c-0.5-0.6-0.8-1.3-0.8-2.3c0-2.4,1.1-4.9,3.2-7.7c2.1-2.7,4.2-4.1,6.3-4.1c0.8,0,1.3,0.4,1.7,1.3c0.1,0.3,0.3,0.4,0.6,0.4
		c0.7,0,1.1,0.3,1.1,0.8c0,0.3,0,0.7-0.1,1.2c-0.5,2.7-0.7,4.5-0.7,5.6c0,2.2,0.4,3.5,1.2,3.9c0.4,0.2,0.6,0.5,0.6,0.8
		c0,0.3-0.2,0.6-0.6,0.8c-0.4,0.3-0.8,0.4-1.1,0.4c-0.7,0-1.3-0.5-1.7-1.4C53.9,136.6,53.7,135.3,53.7,133.5z M52.9,125.9
		c-1.2,0-2.6,1.1-4.2,3.4c-1.6,2.2-2.4,4.1-2.4,5.6c0,1,0.3,1.6,1,1.6c1,0,2.4-1,4.1-3c1.8-2,2.6-3.9,2.6-5.5
		C54.1,126.5,53.7,125.9,52.9,125.9z"/>
	<linearGradient id="XMLID_7_" gradientUnits="userSpaceOnUse" x1="24.3696" y1="130.3098" x2="315.6235" y2="139.3868">
		<stop  offset="0" style="stop-color:#6B3113"/>
		<stop  offset="1" style="stop-color:#C67E41"/>
	</linearGradient>
	<path id="XMLID_60_" class="st4" d="M63.6,133c0.1-0.2,0.2-0.4,0.3-0.7c0.6-1.4,1.2-2.5,1.7-3.3c0.5-0.8,1.1-1.6,1.7-2.3
		c0.6-0.7,1.2-1.3,1.7-1.7c0.5-0.4,1-0.6,1.4-0.8c0.4-0.1,0.8-0.2,1.2-0.2c0.8,0,1.4,0.2,1.9,0.7c0.5,0.5,0.7,1,0.7,1.7
		c0,0.3-0.1,0.5-0.3,0.8c-0.2,0.2-0.4,0.3-0.8,0.3c-0.4,0-0.7-0.2-1-0.5c-0.3-0.3-0.7-0.5-1-0.5c-0.9,0-2.2,1.1-3.9,3.4
		s-2.7,4.8-3,7.5c-0.1,0.7-0.3,1.2-0.5,1.4c-0.3,0.2-0.6,0.3-1.1,0.3c-0.4,0-0.8-0.3-1-1c-0.2-0.7-0.3-1.8-0.3-3.3
		c0-0.4,0-1.4,0.1-2.8c0.1-1.7,0.2-3.1,0.3-4.1c0-0.2,0.1-0.6,0.1-1.2c0.1-0.7,0.1-1.2,0.2-1.5c0.1-0.3,0.3-0.5,0.6-0.8
		c0.3-0.2,0.6-0.4,1-0.4c0.3,0,0.6,0.1,0.8,0.3c0.2,0.2,0.3,0.4,0.3,0.7c0,0.4-0.1,0.9-0.3,1.5c-0.2,0.7-0.3,1.2-0.4,1.5
		c0,0.3-0.1,0.6-0.1,1c-0.1,0.4-0.2,1.4-0.3,3.1l0,0.5V133z"/>
	<linearGradient id="XMLID_8_" gradientUnits="userSpaceOnUse" x1="24.3869" y1="129.7551" x2="315.6407" y2="138.8321">
		<stop  offset="0" style="stop-color:#6B3113"/>
		<stop  offset="1" style="stop-color:#C67E41"/>
	</linearGradient>
	<path id="XMLID_62_" class="st5" d="M79,139.1c-1.2,0-2.3-0.5-3.1-1.4c-0.8-0.9-1.2-2.1-1.2-3.5c0-2.3,0.8-4.6,2.4-6.9
		c1.6-2.3,3.4-3.4,5.6-3.4c1.4,0,2.6,0.6,3.5,1.7c0.9,1.1,1.3,2.4,1.3,4c0,2.4-0.9,4.5-2.8,6.5C82.9,138.1,81,139.1,79,139.1z
		 M77.1,133.9c0,0.9,0.2,1.7,0.6,2.2c0.4,0.6,0.9,0.9,1.5,0.9c1.3,0,2.7-0.7,4.1-2.2c1.4-1.5,2-3.1,2-4.9c0-1.1-0.3-2-0.8-2.7
		c-0.5-0.7-1.2-1-2.1-1c-1.5,0-2.7,0.9-3.7,2.7C77.6,130.5,77.1,132.2,77.1,133.9z"/>
	<linearGradient id="XMLID_9_" gradientUnits="userSpaceOnUse" x1="24.5412" y1="124.8039" x2="315.7951" y2="133.8809">
		<stop  offset="0" style="stop-color:#6B3113"/>
		<stop  offset="1" style="stop-color:#C67E41"/>
	</linearGradient>
	<path id="XMLID_65_" class="st6" d="M100.4,132.8c-1.2,1.9-2.5,3.4-3.9,4.5c-1.4,1.1-2.6,1.6-3.7,1.6c-0.9,0-1.6-0.3-2.1-1
		c-0.5-0.7-0.8-1.6-0.8-2.7c0-2.3,0.9-4.6,2.8-7c1.9-2.4,3.9-3.6,6-3.6c0.9,0,1.8,0.4,2.6,1.2l1.9-8.9c0.1-0.6,0.4-1,0.8-1.2
		c0.4-0.2,0.7-0.3,0.9-0.3c0.6,0,0.9,0.6,0.9,1.7c0,0.2-0.2,0.9-0.6,2.2c-0.7,2-1.3,4.4-1.9,7.3c-0.6,2.9-0.9,5.2-0.9,7
		c0,1.8,0.4,2.7,1.2,2.7c0.5,0,1-0.2,1.6-0.5c0.2-0.2,0.4-0.2,0.6-0.2c0.3,0,0.4,0.2,0.4,0.6c0,0.5-0.4,1-1.2,1.6
		c-0.8,0.6-1.6,0.9-2.5,0.9c-1.5,0-2.2-1.4-2.2-4.3C100.4,133.8,100.4,133.3,100.4,132.8z M98.6,126.5c-1.5,0-2.9,1-4.4,3
		c-1.4,2-2.2,3.8-2.2,5.5c0,1.1,0.4,1.7,1.1,1.7c0.7,0,1.6-0.4,2.6-1.1c1-0.7,2-1.9,3.1-3.5c1.1-1.6,1.6-2.8,1.6-3.7
		c0-0.4-0.2-0.8-0.5-1.2C99.6,126.7,99.2,126.5,98.6,126.5z"/>
	<linearGradient id="XMLID_11_" gradientUnits="userSpaceOnUse" x1="24.5241" y1="125.3516" x2="315.778" y2="134.4286">
		<stop  offset="0" style="stop-color:#6B3113"/>
		<stop  offset="1" style="stop-color:#C67E41"/>
	</linearGradient>
	<path id="XMLID_68_" class="st7" d="M134.3,134.3c0.4,0,0.5,0.2,0.5,0.7c0,0.5-0.5,1.1-1.5,1.9c-1,0.8-2.2,1.5-3.5,2
		c-1.3,0.5-2.5,0.7-3.6,0.7c-1.6,0-3.1-0.5-4.4-1.6c-1.3-1.1-2-2.6-2-4.6c0-3.7,1.6-7.2,4.7-10.7s6.2-5.2,9.1-5.2c1.1,0,2,0.3,2.6,1
		c0.7,0.7,1,1.5,1,2.4c0,0.8,0,1.5-0.1,2c-0.1,0.5-0.4,0.9-0.9,1.2c-0.5,0.3-0.9,0.5-1.2,0.5c-0.2,0-0.4-0.1-0.5-0.3
		c-0.2-0.2-0.2-0.4-0.2-0.7c0-0.2,0.1-0.6,0.2-1.3c0.2-0.7,0.2-1.1,0.2-1.5c0-0.9-0.4-1.4-1.2-1.4c-1.2,0-2.8,0.7-4.6,2.1
		c-1.8,1.4-3.4,3.2-4.7,5.5c-1.3,2.2-1.9,4.2-1.9,6.1c0,1.2,0.4,2.3,1.1,3.1c0.7,0.8,1.8,1.2,3.2,1.2c0.8,0,1.7-0.2,2.9-0.6
		c1.1-0.4,2.2-0.9,3.1-1.6C133.6,134.7,134.2,134.3,134.3,134.3z"/>
	<linearGradient id="XMLID_12_" gradientUnits="userSpaceOnUse" x1="24.4588" y1="127.4474" x2="315.7127" y2="136.5244">
		<stop  offset="0" style="stop-color:#6B3113"/>
		<stop  offset="1" style="stop-color:#C67E41"/>
	</linearGradient>
	<path id="XMLID_70_" class="st8" d="M148.2,133.5c-1.3,1.7-2.5,3-3.8,3.8c-1.2,0.8-2.4,1.3-3.4,1.3c-0.7,0-1.3-0.3-1.8-0.9
		c-0.5-0.6-0.8-1.3-0.8-2.3c0-2.4,1.1-4.9,3.2-7.7c2.1-2.7,4.2-4.1,6.3-4.1c0.8,0,1.3,0.4,1.7,1.3c0.1,0.3,0.3,0.4,0.6,0.4
		c0.7,0,1.1,0.3,1.1,0.8c0,0.3,0,0.7-0.1,1.2c-0.5,2.7-0.7,4.5-0.7,5.6c0,2.2,0.4,3.5,1.2,3.9c0.4,0.2,0.6,0.5,0.6,0.8
		c0,0.3-0.2,0.6-0.6,0.8c-0.4,0.3-0.8,0.4-1.1,0.4c-0.7,0-1.3-0.5-1.7-1.4C148.4,136.6,148.2,135.3,148.2,133.5z M147.4,125.9
		c-1.2,0-2.6,1.1-4.2,3.4c-1.6,2.2-2.4,4.1-2.4,5.6c0,1,0.3,1.6,1,1.6c1,0,2.4-1,4.1-3c1.8-2,2.6-3.9,2.6-5.5
		C148.6,126.5,148.2,125.9,147.4,125.9z"/>
	<linearGradient id="XMLID_13_" gradientUnits="userSpaceOnUse" x1="24.5962" y1="123.0377" x2="315.8501" y2="132.1147">
		<stop  offset="0" style="stop-color:#6B3113"/>
		<stop  offset="1" style="stop-color:#C67E41"/>
	</linearGradient>
	<path id="XMLID_73_" class="st9" d="M158,139.1c-0.1,0.2-0.2,0.4-0.5,0.6c-0.3,0.2-0.6,0.2-0.8,0.2c-0.9,0-1.4-0.7-1.4-2
		c0-0.6,0.2-2.5,0.6-5.5c0.3-1.8,0.4-3.2,0.4-4.2c0-0.2-0.2-0.4-0.6-0.6c-0.4-0.3-0.6-0.5-0.6-0.7c0-0.4,0.3-0.8,0.9-1.3
		c0.5-0.4,0.7-0.7,0.8-1.2c0.1-0.4,0.2-1,0.4-1.8c0.5-2.8,1.2-4.8,2.2-6.1c1-1.2,2.2-1.9,3.7-1.9c0.8,0,1.5,0.3,2,0.8
		c0.6,0.5,0.8,1.2,0.8,2c0,0.7-0.2,1.4-0.5,2.2c-0.3,0.8-0.7,1.3-1.1,1.3c-0.3,0-0.4-0.1-0.4-0.4l0.1-1.3c0-1.7-0.5-2.6-1.5-2.6
		c-1.1,0-1.9,1-2.6,3.1c-0.7,2.1-1,3.8-1,5.1c0,0.4,0.3,0.6,0.8,0.6c2.4,0,3.7,0,4.2,0c0.4,0,0.6,0.2,0.6,0.5c0,0.4-0.2,0.7-0.7,0.8
		c-0.5,0.2-1.5,0.4-3,0.5c-1.3,0.1-2.1,0.2-2.2,0.3c-0.6,3.4-0.9,6.4-0.9,9c0,0.8,0,1.4,0.1,1.7C158,138.7,158,139,158,139.1z"/>
	<linearGradient id="XMLID_16_" gradientUnits="userSpaceOnUse" x1="24.4835" y1="126.6558" x2="315.7373" y2="135.7328">
		<stop  offset="0" style="stop-color:#6B3113"/>
		<stop  offset="1" style="stop-color:#C67E41"/>
	</linearGradient>
	<path id="XMLID_75_" class="st10" d="M177.3,133.8c0,0.9-0.8,2-2.4,3.3c-1.6,1.3-3.3,2-5.1,2c-1.5,0-2.6-0.4-3.4-1.3
		c-0.8-0.9-1.2-2.1-1.2-3.6c0-2.6,0.9-5,2.6-7.4c1.7-2.3,3.7-3.5,5.7-3.5c0.7,0,1.2,0.2,1.7,0.7c0.4,0.4,0.6,1,0.6,1.6
		c0,1.4-0.7,2.7-2,4c-1.4,1.3-3.2,2.5-5.5,3.8c-0.5,0.2-0.7,0.6-0.7,0.9c0,0.8,0.2,1.4,0.7,1.8c0.4,0.5,1.1,0.7,1.9,0.7
		c1.9,0,3.9-1.1,6-3.2c0.3-0.3,0.5-0.4,0.7-0.4C177.2,133.1,177.3,133.4,177.3,133.8z M167.9,131.7c3.8-2.3,5.8-4.1,5.8-5.5
		c0-0.5-0.2-0.8-0.7-0.8c-0.8,0-1.8,0.6-2.8,1.8C169,128.5,168.3,130,167.9,131.7z"/>
</g>
</svg>
