<?xml version="1.0" encoding="utf-8"?>
<!-- Generator: Adobe Illustrator 19.0.0, SVG Export Plug-In . SVG Version: 6.00 Build 0)  -->
<svg version="1.1" id="Layer_1" xmlns="http://www.w3.org/2000/svg" xmlns:xlink="http://www.w3.org/1999/xlink" x="0px" y="0px"
	 viewBox="0 0 95 75.5" style="enable-background:new 0 0 95 75.5;" xml:space="preserve">
<style type="text/css">
	.st0{fill:url(#XMLID_78_);}
	.st1{fill:url(#XMLID_79_);}
	.st2{fill:url(#XMLID_80_);}
	.st3{fill:url(#XMLID_81_);}
	.st4{fill:url(#XMLID_82_);}
	.st5{fill:url(#XMLID_83_);}
	.st6{fill:url(#XMLID_84_);}
	.st7{fill:url(#XMLID_85_);}
	.st8{fill:url(#XMLID_86_);}
	.st9{fill:url(#XMLID_87_);}
	.st10{fill:url(#XMLID_88_);}
</style>
<g id="XMLID_1_">
	<linearGradient id="XMLID_78_" gradientUnits="userSpaceOnUse" x1="76.0345" y1="24.5515" x2="92.5448" y2="24.5626">
		<stop  offset="0" style="stop-color:#6B3113"/>
		<stop  offset="1" style="stop-color:#C67E41"/>
	</linearGradient>
	<path id="XMLID_100_" class="st0" d="M76.2,33.6L76.2,33.6l-0.2-0.1c0,0,0-0.1,0-0.2c0.1-0.2,0.7-0.6,4.5-2.8l0,0l-0.1-0.1
		c-0.1-0.2-0.1-0.3,2.5-2c1.2-0.8,2.6-1.8,4-2.7c-2.9,1.7-3,1.7-3.1,1.7l-0.1-0.1c-0.2-0.3,0.1-0.6,4-3.8c1.2-1,2.6-2.1,3.4-2.8
		c-0.7,0.4-1.7,1-2.5,1.5c-3.4,2-3.4,2-3.6,2L84.9,24c-0.1-0.2-0.1-0.2,2.9-3c1-0.9,2.2-2,2.9-2.7c-0.9,0.5-2.4,1.4-3.6,2.1
		c-0.7,0.4-1.3,0.8-1.8,1.1C84.4,22,84.4,22,84.3,22l-0.1-0.1c-0.1-0.1,0-0.2,0.1-0.3c-0.4,0.2-0.5,0.2-0.5,0.2l-0.1-0.1
		c-0.1-0.2-0.1-0.3,4.1-4c0.2-0.1,0.3-0.3,0.5-0.4c-1.3,0.8-3.3,1.9-4.5,2.6c-1.6,0.9-1.6,0.9-1.7,0.9L82,20.8
		c-0.1-0.2-0.1-0.2,2.9-3.2c0.3-0.3,0.6-0.6,0.9-0.9c-1,0.6-2.4,1.4-3.6,2.1c-2.8,1.6-2.8,1.6-2.9,1.6l-0.1-0.1
		C79.1,20.1,79,20,82.7,17c-0.8,0.5-1.7,1-2.5,1.5c-3.2,1.9-3.2,1.9-3.4,1.9l-0.1-0.1c-0.1-0.1,0-0.2,0.1-0.3l0.1,0
		c0.2-0.1,1.7-1,3.1-1.8c4.5-2.7,4.5-2.6,4.6-2.6l0.1,0.1c0.1,0.2,0,0.2-0.4,0.5c-0.2,0.2-0.5,0.4-0.8,0.7c-0.7,0.6-1.9,1.5-2.8,2.3
		c0.4-0.2,0.8-0.5,1.2-0.7c4.7-2.8,4.7-2.8,4.9-2.7l0.1,0.1c0.1,0.2,0.1,0.2-1.8,2c-0.6,0.6-1.5,1.5-2.1,2.1
		c0.2-0.1,0.3-0.2,0.5-0.3c5.9-3.5,6-3.5,6.1-3.4l0.1,0.1c0.1,0.2,0.1,0.2-0.5,0.7c-0.3,0.3-0.7,0.6-1.2,1.1c-0.9,0.8-2.3,2-3.1,2.8
		c0.9-0.5,2.3-1.3,3.3-1.9c2.2-1.3,2.2-1.3,2.3-1.3l0.1,0.1c0.1,0.1,0,0.2-0.1,0.3c0.9-0.5,1-0.5,1-0.5l0.1,0.1
		c0.1,0.2,0,0.4-3.7,3.8c-0.7,0.6-1.4,1.3-2,1.8c0.7-0.4,1.5-0.9,2.3-1.4c3.5-2.1,3.5-2.1,3.7-2l0.1,0.1c0.2,0.3-0.2,0.7-4.2,3.9
		c-1.1,0.9-2.5,2-3.2,2.7c1.3-0.7,3.6-2.1,5.2-3.1c2.3-1.4,2.3-1.4,2.4-1.4l0.1,0.1c0.1,0.2,0,0.3-0.4,0.5c-0.2,0.1-0.5,0.4-0.9,0.6
		c-0.8,0.5-1.9,1.2-3,2c-1.3,0.9-3,2-4.4,2.9c0.5-0.3,1-0.6,1.5-0.9c5.3-3.2,6.6-3.9,6.8-3.9c0.1,0,0.1,0.1,0.1,0.1
		c0,0.1,0,0.1,0,0.2c0,0.1-0.2,0.3-0.5,0.5l0.1,0.1c0.1,0.1,0,0.2-0.1,0.3l-0.1,0c-0.5,0.2-4.7,2.7-8,4.7
		C77.2,33.1,76.4,33.6,76.2,33.6z M90.8,24.5c-1.4,0.8-3.6,2.1-5.3,3.2c-0.2,0.1-0.3,0.2-0.5,0.3C87.2,26.7,89.5,25.4,90.8,24.5z
		 M77,20L77,20L77,20z"/>
	<linearGradient id="XMLID_79_" gradientUnits="userSpaceOnUse" x1="3.4096" y1="29.3075" x2="87.5139" y2="29.3644">
		<stop  offset="0" style="stop-color:#6B3113"/>
		<stop  offset="1" style="stop-color:#C67E41"/>
	</linearGradient>
	<path id="XMLID_135_" class="st1" d="M43.7,49.5L43.7,49.5l-0.2-0.1c-0.2-0.3-0.1-0.7,2.4-2.4c1.4-1,3.6-2.4,6.4-4.2
		c0.9-0.6,1.8-1.1,2.8-1.7c-1.3,0.8-2.7,1.5-3.9,2.2c-1.1,0.6-2.1,1.2-3.1,1.8c-5.7,3.5-7.3,4.4-7.6,4.4c-0.1,0-0.1,0-0.1-0.1
		c-0.2,0.1-0.2,0.1-0.3,0.1l-0.1-0.1c0-0.1-0.1-0.1,0-0.3c0-0.2,0.2-0.4,0.6-0.7c-1.6,0.8-2.2,0.9-2.4,0.9c-0.1,0-0.2-0.1-0.2-0.1
		c0,0-0.1-0.1,0-0.2c0,0,0-0.1,0.1-0.2c-1.4,0.8-1.5,0.8-1.6,0.8l-0.1-0.1c-0.1-0.2-0.2-0.4,6.6-4.7c4-2.5,9.4-5.9,14.7-9.2
		c7.6-4.7,15.9-9.9,19.5-12.3c-3.4,1.9-10.3,6-17.1,10c-6.2,3.7-12.7,7.5-17.8,10.4c-8.6,5-8.8,4.9-8.9,4.9L33,48.5
		c-0.1-0.2-0.2-0.4,4.8-3.5c3-1.9,7.3-4.4,11.7-7.1c6.7-4,14.4-8.6,20.3-12.4c3.2-2,5.6-3.6,7.3-4.8c2.4-1.7,2.8-2.2,2.8-2.4
		c-0.1,0-0.2,0-0.4,0c-1.2,0.7-2.6,1.5-4.3,2.5c-5,2.9-11.9,6.9-18.5,10.7c-6.3,3.6-13,7.5-18.2,10.5c-0.2,0.1-0.4,0.2-0.5,0.3
		c-8.5,5.3-8.6,5.3-8.7,5.2l-0.1-0.1c-0.1-0.1-0.1-0.2,0.3-0.5c-0.5,0.3-0.7,0.4-0.8,0.3l-0.1-0.1c-0.2-0.4,0.2-1.2,7.9-6
		c5-3,11.8-7,18.4-10.9c6.7-3.9,13.6-7.9,18.7-11c2.8-1.7,4.8-3,6.2-4c1.5-1,2-1.6,2.2-1.8c-1.9,0.8-12.9,7.4-23.6,13.8
		c-7.7,4.6-15.6,9.4-21.8,13c-9.3,5.4-11,6.1-11.3,6c-0.1,0-0.1-0.1-0.2-0.1c0-0.1,0-0.1,0-0.2c0-0.1,0-0.2,0.6-0.5
		c-0.5,0.2-0.8,0.2-1,0.2c-0.1,0-0.2-0.1-0.2-0.2l0-0.2l0,0c-0.7,0.3-0.8,0.3-0.9,0.3c-0.1,0-0.1-0.1-0.1-0.1c0-0.1,0-0.1,0-0.2
		c0-0.1,0-0.1,0.2-0.3c-0.2,0.1-0.3,0.1-0.4,0c-0.1,0-0.2-0.1-0.2-0.1c-0.1-0.2-0.2-0.3,1.6-1.4c-1.4,0.6-2,0.7-2.3,0.7
		c-0.1,0-0.1,0-0.2,0c-0.1,0-0.1-0.1-0.2-0.1l0-0.2l0,0l0-0.1c0.1-0.3,1.2-1.3,8.6-5.7c5-3,11.6-6.8,18.6-10.7
		c7.1-4.1,14.5-8.3,20-11.6c7.2-4.3,9.1-5.7,9.4-6.1c-0.1,0-0.4,0-1.1,0.3c-2.3,2.5-14.9,9.5-32.1,18.9c-2.3,1.3-4.6,2.5-6.7,3.7
		c-1.1,0.7-2.2,1.4-3.3,2c-4.1,2.5-7.7,4.7-10.3,6.3c-4.2,2.6-4.3,2.5-4.5,2.5l-0.1-0.1c0,0-0.1-0.1,0-0.2c0-0.1,0.2-0.3,0.5-0.6
		c-0.5,0.2-0.8,0.3-1,0.2c-0.1,0-0.2-0.1-0.2-0.1c-0.1,0-0.1,0-0.2,0c-0.1,0-0.2-0.1-0.2-0.1c-0.2-0.3-0.3-0.4,7.1-4.9
		c4.3-2.6,10.2-6,16.4-9.7c12.8-7.5,28.7-16.8,30-18.3c-0.3,0-1,0.2-3.1,1.3c-1.8,0.9-4.1,2.3-7.3,4.1c-5.9,3.5-13.3,8.1-20.5,12.5
		c-6.1,3.8-11.8,7.3-16.2,9.9c-6.4,3.8-7.7,4.3-8,4.2c-0.1,0-0.2-0.1-0.2-0.1c0-0.1-0.1-0.1,0-0.3c0.4-1.3,9.9-6.8,25.7-15.7
		c6.6-3.7,13.4-7.5,18.4-10.6c2.7-1.6,4.7-2.9,6.1-3.8c1.8-1.3,2.2-1.7,2.2-1.9c-0.5,0-2.5,0.8-11,5.8C53,18.9,45.3,23.6,38,28.1
		c-5.6,3.4-10.8,6.6-14.8,9c-6,3.6-6.8,3.8-7.1,3.8c-0.1,0-0.1-0.1-0.2-0.1c0-0.1-0.1-0.1,0-0.3c0.3-1.3,9.4-6.5,24.2-14.9
		c6.4-3.6,13-7.4,17.9-10.3c2.7-1.6,4.6-2.8,5.9-3.8c1.8-1.3,2.1-1.7,2.2-1.9c-0.2,0-0.8,0.1-2.3,0.9c-2.3,1.8-9.4,5.8-20,11.7
		C41,24,38,25.9,35.2,27.6C21.6,36,16.1,39.4,15.4,39.2c-0.1,0-0.1-0.1-0.2-0.1c0-0.1-0.1-0.1,0-0.3c0.1-0.3,0.5-0.7,1.3-1.2
		c-1.6,0.9-1.7,1-1.8,0.9l-0.1-0.1c0-0.1-0.1-0.1,0-0.3c0.3-1.1,8.7-6,22.6-13.8C43,21,49,17.6,53.6,14.9c6.1-3.7,7.4-4.8,7.5-5.1
		c-0.5,0-2.8,0.9-12.6,6.6c-6.8,4-15.2,9.1-21.9,13.3c-3.6,2.2-6.6,4.1-8.9,5.4c-3.7,2.2-3.8,2.2-3.9,2.2l-0.1-0.1
		c-0.1-0.2-0.2-0.4,5.8-4.1c3.5-2.2,8.3-5.1,13.4-8.2c10.1-6.2,22.6-13.8,24.3-15.3c-0.6,0.2-2.4,1-7.6,4.1
		c-4.4,2.6-10,6.1-15.5,9.5c-12.9,8-20.9,12.9-22.2,12.9l-0.1,0c-0.1,0-0.2-0.1-0.2-0.1c-0.2-0.3-0.2-0.4,12.1-7.9
		c6-3.7,12.9-7.8,18.4-11.4c7.7-4.9,9.2-6.4,9.4-6.8c-2,0.5-18.9,10.7-29.2,16.9c-10.8,6.5-11.7,7-11.9,7l-0.1-0.1
		c-0.2-0.3,0.1-0.7,1.8-2c1.2-0.9,2.9-2,5.2-3.5c4.3-2.7,9.9-6.1,15.4-9.3c6.4-3.8,13-7.8,14.7-9.1c-2.3,1.1-11.3,6.5-19.2,11.3
		c-4.5,2.7-9.1,5.5-12.5,7.5c-5.8,3.4-6.1,3.3-6.2,3.3c-0.1,0-0.1-0.1-0.1-0.1c0-0.1,0-0.1,0-0.2c0-0.2,0.5-0.5,1.4-1.1
		c-0.6,0.3-1.1,0.5-1.4,0.6c-0.4,0.2-0.6,0.3-0.7,0.3c-0.1,0-0.1-0.1-0.1-0.1c0-0.1-0.1-0.1,0-0.2l0,0c0-0.1-0.1-0.2,0.3-0.4
		c0.5-0.5,1.9-1.5,4.2-2.8c0.3-0.2,0.5-0.3,0.8-0.5c1.9-1.2,4.2-2.6,6.5-4.1c8-5,18.9-11.8,20.7-13.3c-0.7,0.2-2.7,1.2-8.2,4.4
		c-4.6,2.7-10.1,6.1-14.9,9c-8.5,5.2-10,6.1-10.2,6l-0.1-0.1c-0.1-0.2-0.1-0.4,1.5-1.6c0.9-0.7,2.3-1.6,4.2-2.8
		c3.4-2.2,7.9-5,12.2-7.6c4.2-2.6,8.5-5.3,10.8-6.8c-2.5,1.4-7.2,4.2-11.8,7c-4.1,2.4-8.3,4.9-11.5,6.8c-5.6,3.2-5.8,3.2-5.9,3.1
		c-0.1,0-0.1-0.1-0.1-0.1c-0.1-0.2-0.1-0.2,2-1.6c1.2-0.8,3-1.9,5-3.2c6-3.8,15.2-9.6,18.5-12c-2,1.1-5.7,3.4-9.4,5.6
		c-3.8,2.3-7.7,4.6-10.8,6.5c-5.4,3.1-5.6,3.1-5.8,3c-0.1,0-0.1-0.1-0.1-0.1c-0.1-0.2-0.2-0.3,3.1-2.6c1.9-1.3,4.5-3,7.3-4.8
		c5-3.3,11.1-7.3,12.4-8.5c-1.7,0.7-8.4,4.8-13.4,7.9c-7.9,4.8-9.5,5.7-9.8,5.6c-0.1,0-0.1-0.1-0.1-0.1c-0.2-0.3-0.2-0.4,8.5-6
		c3.9-2.6,9.1-5.9,10.5-7.1c-2.2,1-10.4,6-15,8.8c-4.7,2.9-4.7,2.9-4.8,2.8l-0.1-0.1c0-0.1,0-0.1,0-0.2c0-0.1,0.1-0.2,0.2-0.3l0,0
		l-0.1-0.1c-0.1-0.2,0-0.3,0.5-0.6c0.3-0.2,0.7-0.5,1.3-1c1.1-0.8,2.7-1.8,4.3-3c2.5-1.7,5.6-3.9,7.5-5.2c-1.4,0.8-3.5,2.1-5.4,3.2
		c-6.8,4.1-8.3,5-8.6,4.9c-0.1,0-0.1-0.1-0.1-0.1c-0.2-0.3,0-0.5,6.9-4.6c2.1-1.3,4.6-2.7,6.1-3.7c-2.4,1.4-6.7,3.9-9.3,5.5
		c-3.3,2-3.3,2-3.4,1.9L4.4,18c-0.1-0.2-0.1-0.2,2.3-1.9c1.3-0.9,3-2.1,4.6-3.2c0.7-0.4,1.3-0.9,1.9-1.3c-1.8,1.1-4.2,2.5-5.9,3.5
		C4.2,17,4.2,17,4.1,16.9L4,16.8c-0.2-0.3,0.2-0.7,5.3-4c1-0.6,2-1.3,2.9-1.9c-1.3,0.7-2.9,1.7-4.2,2.5c-4.2,2.5-4.2,2.5-4.3,2.5
		l-0.1-0.1c-0.2-0.3,0-0.6,5.1-4.6c0.2-0.1,0.3-0.2,0.5-0.4c-0.7,0.4-1.5,0.9-2.3,1.3c-2.7,1.6-2.7,1.6-2.8,1.6l-0.1-0.1
		c-0.1-0.2-0.1-0.2,1.3-1.2c-1.5,0.9-1.5,0.9-1.6,0.8l0.1-0.2L3.8,13l-0.2,0.1l-0.1-0.2c0.1,0,1.3-0.8,2.6-1.5c3.5-2,3.5-2,3.6-2
		l0.1,0.1c0.1,0.2,0,0.3-0.7,0.7c-0.3,0.2-0.8,0.5-1.3,0.8c2.9-1.7,2.9-1.7,3-1.7L11,9.5c0.1,0.2,0.1,0.2-2.2,2
		c-1.2,1-3.1,2.4-4.1,3.3c0.8-0.5,1.9-1.1,3-1.8c6.4-3.8,6.4-3.8,6.6-3.7l0.1,0.1c0.2,0.3-0.2,0.6-4.9,3.7c-0.9,0.6-2,1.3-2.9,1.9
		c0.2-0.1,0.3-0.2,0.5-0.3c8.3-5,8.8-5.2,9-5.1l0.1,0.1c0.1,0.2,0.1,0.2-1.5,1.3c-0.9,0.6-2,1.4-3.3,2.3c-1,0.7-2.2,1.5-3.3,2.2
		C17.6,9.9,18.8,9.3,19,9.4l0.1,0.1c0.2,0.4-0.4,0.9-7.9,5.3c-1.4,0.8-2.8,1.7-4,2.4c1.6-1,3.7-2.2,5.5-3.3c6.4-3.9,7.2-4.3,7.4-4.2
		l0.1,0.1c0.1,0.2,0.1,0.3-3,2.5c-1.8,1.2-4,2.8-6.2,4.3c-1.2,0.8-2.4,1.7-3.4,2.4c1.5-0.9,3.4-2,5.2-3.1c9.1-5.4,11.1-6.6,11.4-6.5
		l0.1,0.1l0,0.1c0.6-0.3,0.7-0.2,0.8-0.2c0.1,0,0.1,0.1,0.1,0.1c0.1,0.2,0.2,0.4-3.5,2.9c-2.1,1.4-4.9,3.2-7.5,5
		c-2.6,1.7-5.4,3.5-7,4.6c1.8-1,4.9-2.9,8-4.8c9.5-5.8,13.5-8.2,14.1-8c0.1,0,0.1,0.1,0.2,0.1c0.1,0.2,0.3,0.4-4,3.4
		c-2.4,1.7-5.7,3.8-8.8,5.9c-3.9,2.6-8.2,5.4-9.7,6.6c2.4-1.2,9.9-5.7,15.6-9.2c9.1-5.5,10.8-6.4,11-6.4l0.1,0.1
		c0.1,0.2,0.2,0.4-6.9,5.1c-4,2.6-9,5.7-13,8.3c-1.4,0.9-2.8,1.7-3.9,2.5c3.5-2,9.1-5.4,14-8.3c3.5-2.1,6.8-4.1,9.3-5.5
		c4.2-2.5,4.3-2.4,4.5-2.4l0.1,0.1c0.2,0.4-0.2,0.7-12.5,8.3c-6.4,4-14.9,9.2-17.2,11c1.6-0.9,5.3-3.2,9.2-5.6
		C30.2,15.3,40.1,9.3,41.2,9.6c0.1,0,0.2,0.1,0.2,0.1c0.1,0.2,0.2,0.4-6.9,5c-4,2.6-9.2,5.8-13.8,8.7c1.1-0.6,2.3-1.3,3.6-2
		C36.5,13.8,44.6,8.9,45.7,9.2l0.1,0.1l0.1,0c0.1,0,0.1,0.1,0.1,0.1c0,0.1,0,0.1,0,0.2L46,9.6l0,0.1c0,0.1-0.3,0.4-0.7,0.7
		c2.3-1.3,2.5-1.2,2.6-1.2c0.1,0,0.1,0.1,0.1,0.1c0.1,0.2,0,0.4-1.2,1.3c-0.7,0.5-1.8,1.2-3.3,2.1c-2.8,1.7-6.7,4-10.8,6.5
		c-5.3,3.1-10.8,6.4-15,9.1c-4.7,3-6.4,4.3-7,4.9c1.5-0.8,6.1-3.6,11.3-6.7c5.8-3.5,13-7.9,18.8-11.2c10.1-5.9,10.6-5.8,10.8-5.7
		c0.1,0,0.1,0.1,0.2,0.1c0.2,0.3,0.1,0.7-2.4,2.6c-1.5,1.1-3.8,2.6-6.8,4.6c-5.6,3.6-12.9,8-18.7,11.6c-5.2,3.2-10.1,6.2-11.6,7.2
		c0.8-0.3,2.6-1.2,6.8-3.7c4.1-2.4,9.4-5.8,14.6-9c14-8.7,22.5-13.9,23.7-13.7c0.1,0,0.2,0.1,0.2,0.1c0.2,0.3,0.3,0.5-7.8,5.5
		c-4.7,2.9-10.9,6.7-16.8,10.3c-6.1,3.7-12.3,7.5-15.9,9.8c2.3-1.4,5.7-3.4,9.3-5.7C44.5,18.2,59.7,9,61.2,9.4
		c0.1,0,0.2,0.1,0.2,0.2c0,0.1,0.1,0.1,0,0.3c-0.1,0.4-1.1,1.2-2.8,2.3c5.3-2.9,5.6-2.8,5.8-2.8c0.1,0,0.1,0.1,0.2,0.1
		c0,0,0.1,0.1,0,0.2l0,0c0.9-0.4,1.4-0.5,1.7-0.5c0.1,0,0.2,0.1,0.2,0.2c0,0.1,0.1,0.2,0,0.3c-0.1,0.4-1,1.2-2.7,2.3
		c3.6-2,5.8-3,6.3-2.9c0.1,0,0.2,0.1,0.2,0.1c0,0.1,0.1,0.2,0,0.3c-0.1,0.3-0.7,0.9-1.9,1.7c2.5-1.4,4.1-2,4.6-1.9
		c0.1,0,0.2,0.1,0.2,0.2c0.2,0.3,0.4,0.6-9.5,6.6c-5.8,3.5-13.4,7.9-20.7,12.2c-10.3,6-20.9,12.3-23,13.8c0.5-0.3,1.8-1.1,4.8-2.8
		c3.1-1.8,7.4-4.2,12.3-6.9c3.9-2.3,8-4.9,12.1-7.4C56.3,21,62.8,17,67.8,14.1c7.4-4.4,8.8-4.9,9.2-4.8l0,0c0.3-0.1,0.5-0.1,0.6-0.1
		c0.1,0,0.2,0.1,0.2,0.1c0,0.1,0.1,0.2,0,0.3l0,0c0.4-0.1,0.7-0.2,0.9-0.1c0.2,0,0.2,0.1,0.3,0.2c0,0,0.1,0.1,0,0.2
		c-0.3,1.1-11.4,7.5-29.7,18c-7.5,4.3-15.5,8.9-20.9,12.1c0.7-0.4,1.5-0.9,2.4-1.4c5.3-3,12.2-6.9,19.5-11c2.9-1.7,5.9-3.3,8.9-5
		c5.7-3.4,11.1-6.7,15.1-9c4.2-2.5,6-3.5,6.7-3.8c0.6-0.3,0.8-0.4,0.9-0.4L82,9.6c0,0.1,0,0.1,0,0.2c0,0,0,0.1-0.2,0.3
		c-0.1,0.2-0.5,0.5-1.4,1.1c1.2-0.6,2-0.8,2.3-0.7c0.1,0,0.2,0.1,0.2,0.2c0,0.1,0.1,0.1,0,0.3c0,0.2-0.3,0.4-0.6,0.7l0.1,0.1
		c0,0.1,0,0.1,0,0.2c0,0.1,0,0.2-0.3,0.4c0.1,0,0.1,0.1,0.1,0.1c0,0,0,0.1,0,0.2c0,0.1-0.1,0.3-1.6,1.4c1.4-0.8,1.6-0.7,1.7-0.7
		c0.1,0,0.1,0.1,0.1,0.1c0.3,0.4-0.2,1.3-8.3,6.3c-1.3,0.8-2.8,1.7-4.4,2.7c11-6.4,13-7,13.6-6.9c0.1,0,0.2,0.1,0.2,0.2
		c0.1,0.2-0.1,0.3-0.6,0.7c-0.4,0.2-0.9,0.6-1.7,1c-0.3,0.2-0.7,0.4-1.1,0.7c0.1,0,0.1,0.1,0.1,0.1c0.2,0.3,0.1,0.7-2.6,2.7
		c-1.6,1.2-4,2.8-7.3,4.8c-6,3.8-13.8,8.5-20.7,12.6c-6.4,3.8-12.5,7.5-15.1,9.2c4.1-2.2,15.5-8.9,25-14.5c5-3,9.7-5.7,13.3-7.8
		c5.9-3.4,6-3.4,6.1-3.4l0.1,0.1c0.1,0.2,0.2,0.4-6.7,4.8c-4,2.6-9.5,6-14.8,9.2C49.9,40.6,41.4,45.9,38,48.2
		c0.6-0.4,1.4-0.8,2.4-1.4c1.5-1,3.9-2.5,7.8-4.7c1.3-0.8,2.7-1.6,4.2-2.4c5.5-3.3,11.6-7,16.4-9.8c8.7-5.1,9.1-5,9.3-4.9
		c0.1,0,0.1,0.1,0.2,0.1l0,0.2c-0.1,0.2-1,0.8-11.2,6.5c-4.5,2.5-9.8,5.5-14.6,8.3c-0.3,0.2-0.5,0.3-0.8,0.5
		c-4,2.4-7.8,4.7-10.6,6.3c-0.2,0.1-0.4,0.2-0.6,0.4c-1.5,1-2,1.4-2.2,1.7c0.4-0.1,1.5-0.5,4.2-2c3.6-2.4,10.5-6.4,19.2-11.4
		c1.6-1,3.2-1.9,4.6-2.8c9.4-5.8,10.9-6.6,11.1-6.6l0.1,0.1c0,0.1,0,0.1,0,0.2c-0.1,0.5-4.3,3-14.6,8.8c-0.4,0.2-0.7,0.4-1.1,0.6
		c-4.4,2.7-9.2,5.6-13.3,8c-2.6,1.5-4.5,2.6-6,3.4c-1.1,0.7-1.7,1.2-2.1,1.5c1.8-1,7.5-4.3,13.3-7.7c10-6.2,18-11,20.7-12
		c1.9-1,1.9-1,2-1l0.1,0.1c0,0.1,0,0.1,0,0.2c0,0.1-0.1,0.2-1.1,0.9c-0.1,0.1-0.2,0.2-0.6,0.4c-0.3,0.2-0.8,0.5-1.4,0.9
		c-1.2,0.7-3,1.8-5,3c-4.6,2.7-10.9,6.4-15.9,9.6c-6.3,3.9-8.2,5.5-8.8,6c1.3-0.7,5.8-3.4,10.5-6.3c4.3-2.6,9.1-5.5,12.9-7.8
		c6.6-3.9,7-3.8,7.2-3.7c0.1,0,0.1,0.1,0.2,0.1c0.1,0.2,0.1,0.2-2.6,2.1c-1.6,1.1-3.9,2.5-6.3,4.1c-5.8,3.7-14.3,9.2-16.1,10.7
		c2.5-1,13.9-7.9,20.2-11.8c5.9-3.6,5.9-3.6,6-3.5l0.1,0.1c0.2,0.3,0,0.5-5.4,4.5c-1.5,1.1-3.2,2.4-4.3,3.2c1.6-0.9,4.8-2.8,7.9-4.7
		c10.2-6.1,12.6-7.5,13-7.4c0.1,0,0.1,0.1,0.1,0.1c0,0,0,0.1,0,0.2c-0.1,0.4-1.4,1.3-4,2.8c0,0.1,0,0.1-0.1,0.1l-0.1,0
		c-0.1,0-0.3,0.1-0.6,0.3c-0.9,0.5-1.8,1.1-2.9,1.7c-0.5,0.3-1,0.6-1.5,0.9c-4.9,3-5.2,3.1-5.4,3l-0.1-0.1l0-0.2
		c0-0.1,0-0.1,3.1-1.9c1-0.6,2.3-1.3,3.6-2.1c1.5-0.9,2.3-1.4,2.9-1.7c1.6-1,3.1-1.9,3.9-2.5c-2.1,1.1-7.4,4.3-11.9,7
		c-8.2,4.9-9,5.4-9.2,5.3l-0.1-0.1c-0.2-0.3,0-0.5,5.3-4.4c1.4-1,3-2.2,4.1-3.1c-1.1,0.7-2.7,1.6-4.4,2.7c-3.7,2.3-8.8,5.3-12.9,7.8
		c-7.4,4.3-7.8,4.2-8,4.2c-0.1,0-0.1-0.1-0.2-0.1c-0.1-0.2-0.3-0.4,5.4-4.2c3.2-2.1,7.4-4.8,11.1-7.2c3.4-2.2,6.6-4.2,8-5.2
		c-3,1.4-12.4,7.2-19,11.1C45.9,48.5,44,49.5,43.7,49.5z M65,25.1c-3.2,1.9-6.5,3.8-9.9,5.7c-6.5,3.8-13.1,7.6-18.1,10.6
		c-5.7,3.5-7.5,4.9-8,5.4c1.5-0.8,7.5-4.4,14.3-8.6C50,34.2,58,29.3,65,25.1z M28.4,44.5c-1,0.6-1.8,1.1-2.4,1.5
		c3.4-1.5,17.1-9.7,29.3-17c-2.2,1.2-4.3,2.5-6.5,3.7c-2.6,1.5-5.3,3-7.8,4.5C35.6,40.5,31.3,43,28.4,44.5z M49.3,31.6
		c-0.8,0.5-1.7,0.9-2.5,1.4c-10.2,5.8-19.8,11.2-21.7,12.5c0.4-0.1,1.2-0.4,2.9-1.3c0.1,0,0.2-0.1,0.3-0.1c1-0.6,2.3-1.4,4.1-2.4
		c2.5-1.4,5.4-3.1,8.6-5C43.6,35.1,46.4,33.4,49.3,31.6z M25.7,44.4c-0.5,0.3-0.8,0.5-1.1,0.7c2-1,7.2-4.1,13.5-7.8
		c-1.4,0.8-2.7,1.5-4,2.2C30.4,41.8,27.5,43.4,25.7,44.4z M28,42.1c-2.2,1.3-3.7,2.3-4.4,2.8c0.3-0.1,0.9-0.4,1.8-0.8
		c1-0.6,2.6-1.6,5-3c1.1-0.6,2.2-1.3,3.4-2c3.1-1.9,6.7-4.1,10.5-6.5c-1.6,1-3.1,1.9-4.6,2.8C34.4,38.7,30.6,40.8,28,42.1z M47.1,30
		c-11,6.2-21.6,12.2-24.2,13.9C25.8,42.7,36.4,36.4,47.1,30z M23.1,41.7c-0.9,0.6-1.5,1-1.8,1.3c1.1-0.6,3.4-2,6.4-3.8
		C25.8,40.2,24.3,41.1,23.1,41.7z M28.6,41.3C28,41.7,27.5,42,27,42.2c0.2-0.1,0.4-0.2,0.5-0.3c0.1-0.1,0.2-0.1,0.4-0.2
		C28.1,41.6,28.3,41.5,28.6,41.3z M48.7,23.2c-1.7,0.9-3.4,1.9-5.2,2.9c-6.3,3.5-12.8,7.2-17.6,10.1c-6.2,3.7-7.7,4.9-7.9,5.3
		c0.5-0.1,2.3-1,7.7-4.2c4.4-2.6,10.1-6.2,16.1-9.9C44.2,26,46.5,24.6,48.7,23.2z M45.6,23c-1.7,0.9-3.4,1.9-5.2,3
		c-6.2,3.5-12.1,6.8-16.6,9.5c-5.5,3.3-7,4.5-7.4,5c1.7-0.6,11.7-6.7,21.3-12.6C40.5,26.1,43.1,24.5,45.6,23z M36.4,26.4
		c-4.6,2.6-9.1,5.1-12.7,7.2c-5.9,3.5-7.6,4.7-8,5.2c1.7-0.6,10.6-6.1,19.2-11.5C35.5,27,35.9,26.7,36.4,26.4z M36.9,25
		c-5.4,3-10.8,6.1-14.9,8.6c-4.1,2.5-5.9,3.7-6.6,4.3c1.7-1,6.6-3.9,12.2-7.2C30.4,28.8,33.6,26.9,36.9,25z M72.7,30.4
		c-2.5,1.5-6.1,3.5-9.8,5.7C66.7,34,70.2,31.9,72.7,30.4z M62,22.3c-4.1,2.5-8.4,5.2-12.6,7.8c-2.5,1.5-4.8,3-7,4.3
		c1.3-0.7,2.6-1.4,3.9-2.2c0.7-0.4,1.3-0.7,2-1.1c0.5-0.3,0.9-0.6,1.4-0.8c7.6-4.6,15.4-9.3,21.5-12.8c6.7-3.9,9.3-5.3,10.4-5.7
		c0.7-0.5,0.9-0.8,1-0.9c-0.2,0-0.9,0.1-3.4,1.4c-0.7,0.4-1.6,0.8-2.5,1.4c-1.3,0.8-2.9,1.8-4.9,3C68.9,18.3,65.6,20.2,62,22.3z
		 M77,19.5c-0.6,0.3-1.3,0.6-2.1,1.1c-2.7,1.4-6.4,3.5-11.1,6.3c-3.9,2.3-8.1,4.8-12.2,7.3c1.7-1,3.4-1.9,5-2.9
		C63.9,27.1,71.7,22.6,77,19.5z M83,15.8c-0.5,0.1-1.6,0.5-4.2,1.9c-2.4,1.3-5.7,3.1-10,5.6c-5.1,3-10.9,6.5-16.5,9.9
		c12.8-7.8,23.9-14.3,27-15.2C81.2,17,82.5,16.2,83,15.8z M48.6,31.4c-0.9,0.6-1.9,1.1-2.8,1.7c0.2-0.1,0.5-0.3,0.7-0.4
		c3.5-2,7.3-4.1,11.1-6.3l0.1,0C54.9,28,51.8,29.6,48.6,31.4z M59.4,23.1c-0.3,0.2-0.6,0.4-0.9,0.5c-4.2,2.5-8.7,5.2-13,7.8
		c1.4-0.8,2.8-1.6,4.2-2.4c0.9-0.5,1.9-1.1,2.8-1.6c2.8-1.7,5.5-3.4,8.2-5C60.2,22.6,59.8,22.9,59.4,23.1z M26.1,21.8
		c-6.5,3.7-13.8,7.9-15.9,9.4C12.5,30,19.5,25.9,26.1,21.8z M76.2,26.1c-1.9,1-5.1,2.8-8.8,5C71,29.1,74.3,27.3,76.2,26.1z
		 M57.9,26.7c-0.7,0.4-1.3,0.8-2,1.2c-1.6,1-3.1,1.9-4.5,2.8c6.9-4,13.9-8,19.5-11.3c7.8-4.6,10.3-6.3,10.9-6.8c0,0-0.1,0-0.2,0
		c-1.2,0.9-4.1,2.7-11.1,6.7C66.8,21.6,62.4,24.2,57.9,26.7z M13.5,27.9c-1.3,0.8-2.5,1.6-3.3,2.1c1.5-0.8,3.9-2.3,6.6-3.9
		c-0.9,0.5-1.7,0.9-2.5,1.4C14,27.6,13.7,27.7,13.5,27.9z M64.2,9.8c-2.5,0.7-21,11.8-33.9,19.5c3.2-1.8,6.7-3.8,10.6-5.9
		c0.9-0.5,1.9-1,2.8-1.5c9.3-5.7,16.4-9.9,20-11.7C64,10,64.1,9.9,64.2,9.8z M47.9,27.1c-0.9,0.6-1.8,1.1-2.7,1.7
		c7.8-4.3,16-8.7,22.1-12.3c3.3-1.9,5.8-3.5,7.5-4.6c0.7-0.5,1.2-0.8,1.6-1.1c-0.3,0.2-0.7,0.3-1.2,0.6c-1.8,1.2-5.2,3.3-11.8,7.1
		C58.7,21,53.3,24,47.9,27.1z M23,22.7c-0.8,0.5-1.7,1-2.5,1.5C19.2,25,18,25.8,17,26.4c2.3-1.3,4.8-2.9,7.5-4.5
		C24,22.2,23.5,22.4,23,22.7z M79.5,13.2c-4.1,2.2-12.1,7-20.4,11.9c2.3-1.3,4.5-2.6,6.7-3.8c6.1-3.8,10.7-6.5,13.5-8
		C79.3,13.3,79.4,13.3,79.5,13.2z M30.2,18.9c-1.4,0.8-2.7,1.7-4,2.4c2.6-1.5,5.4-3.1,8-4.6C33,17.4,31.6,18.1,30.2,18.9z
		 M70.4,13.8c-2.1,1.2-4.6,2.6-7.5,4.3c-1.3,0.8-2.7,1.6-4.1,2.4c1.5-0.9,3-1.7,4.4-2.5C66.1,16.3,68.5,14.9,70.4,13.8z M39.3,12.9
		c-0.8,0.4-1.7,1-2.7,1.5c-1.7,1-3.6,2.2-5.6,3.3c0.6-0.3,1.2-0.6,1.8-1C35.5,15.2,37.6,13.9,39.3,12.9z M76.4,9.9
		c-1.2,0.6-3.7,1.9-8.6,4.8c-1.5,0.9-3.2,1.9-4.9,3c5.1-3,9.4-5.4,12.2-6.8C75.6,10.5,76.1,10.1,76.4,9.9z M60.2,12.6
		c-1.3,0.7-2.8,1.6-4.7,2.7c-0.7,0.4-1.5,0.9-2.2,1.3c1.3-0.7,2.6-1.5,3.7-2.1C58.2,13.7,59.3,13.1,60.2,12.6z M44.8,10.1
		c-1,0.5-2.6,1.5-4.6,2.7C42.3,11.6,43.9,10.7,44.8,10.1z M77.2,9.6c0,0.1-0.1,0.2-0.4,0.5c0.2-0.1,0.3-0.1,0.5-0.2
		c0.2-0.2,0.2-0.3,0.2-0.3C77.4,9.5,77.3,9.6,77.2,9.6z"/>
</g>
<g id="XMLID_2_">
	<linearGradient id="XMLID_80_" gradientUnits="userSpaceOnUse" x1="12.661" y1="62.362" x2="101.661" y2="68.612">
		<stop  offset="0" style="stop-color:#6B3113"/>
		<stop  offset="1" style="stop-color:#C67E41"/>
	</linearGradient>
	<path id="XMLID_4_" class="st2" d="M8.6,68c-0.5,0-0.9-0.1-1.2-0.3C7.1,67.6,7,67.3,7,66.9c0,0,0,0,0.1,0c0.1,0,0.2,0,0.4,0.1
		c0.2,0,0.5,0.1,1,0.1c0.8,0,1.6-0.1,2.3-0.3c0.7-0.2,1.3-0.4,1.8-0.8c0.5-0.3,0.9-0.7,1.2-1.1s0.4-0.8,0.4-1.3c0-0.4-0.1-0.7-0.3-1
		c-0.2-0.2-0.5-0.4-0.9-0.6c-0.4-0.1-0.8-0.2-1.2-0.3c-0.4,0-0.8-0.1-1.3-0.1c-0.2,0-0.4,0-0.6,0c-0.2,0-0.4,0-0.5,0
		c-0.2,0.8-0.4,1.6-0.7,2.4c-0.2,0.8-0.4,1.6-0.7,2.3c-0.2,0-0.4-0.1-0.6-0.2c-0.2-0.1-0.2-0.3-0.2-0.5c0-0.1,0-0.3,0.1-0.4
		s0.1-0.3,0.1-0.4c0.1-0.2,0.2-0.5,0.3-1c0.1-0.5,0.3-1,0.5-1.6s0.4-1.2,0.7-1.9c0.3-0.7,0.5-1.3,0.8-2c0.3-0.6,0.5-1.2,0.8-1.7
		c-0.4,0.1-0.7,0.2-1,0.3c-0.3,0.1-0.5,0.2-0.6,0.3c-0.2,0.1-0.3,0.2-0.3,0.2c0,0-0.1,0-0.2-0.1c-0.1,0-0.1-0.1-0.2-0.2
		c-0.1-0.1-0.1-0.1-0.1-0.2c0.5-0.2,1-0.4,1.5-0.6c0.5-0.2,1.2-0.2,1.9-0.2c0.3,0,0.7,0,1.1,0.1c0.4,0.1,0.8,0.2,1.1,0.3
		c0.3,0.2,0.6,0.4,0.9,0.7c0.2,0.3,0.3,0.7,0.3,1.2c0,0.5-0.1,0.9-0.3,1.2c-0.2,0.3-0.5,0.6-0.8,0.8c-0.3,0.2-0.7,0.4-1.1,0.5
		c-0.4,0.1-0.8,0.2-1.1,0.3c0.7,0,1.3,0.1,1.7,0.3c0.4,0.2,0.8,0.4,1,0.6c0.2,0.2,0.4,0.5,0.5,0.7c0.1,0.3,0.1,0.5,0.1,0.7
		c0,0.6-0.1,1.1-0.4,1.5c-0.3,0.5-0.7,0.9-1.1,1.2c-0.5,0.3-1,0.6-1.6,0.9c-0.6,0.2-1.1,0.4-1.7,0.5C9.5,68,9,68,8.6,68z M9.6,61.4
		c0.5,0,1.1-0.1,1.6-0.2c0.5-0.1,1-0.3,1.4-0.5c0.4-0.2,0.8-0.5,1.1-0.9c0.3-0.4,0.4-0.8,0.4-1.3c0-0.5-0.1-0.9-0.4-1.2
		c-0.2-0.3-0.5-0.5-0.9-0.6c-0.4-0.1-0.8-0.2-1.2-0.2c0,0-0.1,0-0.1,0c0,0-0.1,0-0.1,0c-0.3,0.7-0.7,1.4-1,2.2
		C10.1,59.7,9.8,60.5,9.6,61.4z"/>
	<linearGradient id="XMLID_81_" gradientUnits="userSpaceOnUse" x1="12.7061" y1="61.7205" x2="101.7061" y2="67.9705">
		<stop  offset="0" style="stop-color:#6B3113"/>
		<stop  offset="1" style="stop-color:#C67E41"/>
	</linearGradient>
	<path id="XMLID_7_" class="st3" d="M15.8,68c-0.2-0.1-0.3-0.3-0.4-0.4c-0.1-0.1-0.1-0.3-0.1-0.4c0-0.3,0.1-0.6,0.3-1.1
		c0.2-0.5,0.5-1,0.8-1.6c0.3-0.6,0.7-1.2,1.1-1.9c-0.4,0-0.7,0-0.9-0.1s-0.5,0-0.7,0h-0.5c0.1-0.3,0.3-0.5,0.6-0.6
		c0.3-0.1,0.6-0.2,1-0.2c0.2,0,0.3,0,0.5,0c0.2,0,0.4,0,0.5,0.1c0.5-0.7,1-1.5,1.5-2.2c0.5-0.7,1-1.3,1.5-1.9c0.5-0.5,0.8-1,1.1-1.2
		c0.3-0.3,0.5-0.4,0.7-0.4c0.1,0,0.2,0,0.4,0.1c0.1,0.1,0.3,0.2,0.4,0.3c-0.1,0.1-0.2,0.3-0.4,0.6c-0.2,0.3-0.3,0.8-0.5,1.3
		c-0.2,0.5-0.3,1.1-0.5,1.7c-0.2,0.6-0.3,1.2-0.5,1.8c-0.1,0.6-0.3,1.2-0.3,1.8c-0.1,0.6-0.1,1.1-0.1,1.5c0,0.4,0,0.7,0.1,0.9
		c0.1,0.2,0.2,0.3,0.4,0.3c0.3,0,0.5-0.2,0.9-0.5c0.3-0.3,0.7-0.9,1-1.6l0.1,0.1c-0.3,0.8-0.7,1.4-1.1,1.9s-0.9,0.7-1.4,0.7
		c-0.4,0-0.7-0.2-0.9-0.5c-0.2-0.4-0.3-0.8-0.3-1.4c0-0.3,0-0.6,0.1-1c0-0.4,0.1-0.8,0.2-1.1c-0.4-0.1-0.8-0.1-1.2-0.2
		s-0.7-0.1-1-0.1c-0.5,0.8-0.9,1.7-1.3,2.6C16.6,66.3,16.2,67.2,15.8,68z M20.6,62.6c0.1-0.6,0.3-1.3,0.5-1.9
		c0.2-0.7,0.4-1.3,0.6-1.9c0.2-0.6,0.4-1.1,0.6-1.6c-0.3,0.2-0.6,0.5-1,1c-0.4,0.5-0.8,1-1.2,1.7c-0.4,0.7-0.9,1.4-1.3,2.2
		c0.3,0.1,0.7,0.1,1,0.2C20,62.5,20.3,62.5,20.6,62.6z"/>
	<linearGradient id="XMLID_82_" gradientUnits="userSpaceOnUse" x1="12.7412" y1="61.2196" x2="101.7412" y2="67.4696">
		<stop  offset="0" style="stop-color:#6B3113"/>
		<stop  offset="1" style="stop-color:#C67E41"/>
	</linearGradient>
	<path id="XMLID_10_" class="st4" d="M30.9,68.5c-0.2,0-0.5-0.1-0.7-0.4c-0.3-0.3-0.6-0.6-0.9-1c-0.3-0.4-0.6-0.9-0.9-1.4
		c-0.3-0.5-0.6-1-0.8-1.5c-0.3-0.5-0.5-1-0.6-1.4c-0.3,0.9-0.5,1.9-0.8,2.8s-0.5,1.7-0.7,2.5c-0.2,0-0.5-0.1-0.7-0.2
		c-0.2-0.1-0.3-0.3-0.3-0.5c0-0.1,0-0.2,0.1-0.4c0-0.2,0.1-0.3,0.1-0.4c0.2-0.8,0.5-1.5,0.7-2.2c0.2-0.7,0.5-1.3,0.7-2
		c0.2-0.6,0.5-1.3,0.7-1.9c0.2-0.6,0.5-1.2,0.7-1.9c0.3-0.6,0.5-1.3,0.8-2c-0.4,0.1-0.8,0.2-1.1,0.3c-0.3,0.1-0.5,0.3-0.7,0.4
		c-0.2,0.1-0.3,0.2-0.4,0.2c0,0-0.1,0-0.2-0.1c-0.1,0-0.1-0.1-0.2-0.2c-0.1-0.1-0.1-0.1-0.1-0.2c0.3-0.1,0.5-0.2,0.9-0.3
		c0.3-0.1,0.7-0.2,1.1-0.3c0.4-0.1,0.8-0.1,1.3-0.1c0.4,0,0.8,0.1,1.3,0.2c0.4,0.1,0.8,0.3,1.2,0.5s0.7,0.5,0.9,0.8
		c0.2,0.3,0.3,0.8,0.3,1.2c0,0.5-0.1,0.9-0.3,1.2s-0.5,0.6-0.9,0.9c-0.4,0.2-0.7,0.4-1.2,0.6S29.4,61.9,29,62
		c-0.4,0.1-0.8,0.1-1.1,0.1c-0.3,0-0.6,0-0.7,0c0.3,0.5,0.6,1,0.9,1.5c0.3,0.5,0.6,1,0.9,1.4c0.3,0.5,0.7,1,1.1,1.4
		c0.4,0.5,1,1,1.6,1.5c-0.1,0.1-0.2,0.2-0.3,0.3C31.2,68.5,31,68.5,30.9,68.5z M27.1,62c0.5,0,1.1-0.1,1.6-0.3
		c0.5-0.1,1-0.3,1.5-0.6c0.4-0.3,0.8-0.6,1.1-1c0.3-0.4,0.4-0.9,0.4-1.4c0-0.5-0.1-1-0.4-1.3c-0.3-0.3-0.6-0.5-1-0.7
		c-0.4-0.1-0.8-0.2-1.2-0.2c-0.3,0.7-0.7,1.5-1,2.4C27.7,60,27.4,60.9,27.1,62z"/>
	<linearGradient id="XMLID_83_" gradientUnits="userSpaceOnUse" x1="12.7924" y1="60.4908" x2="101.7924" y2="66.7408">
		<stop  offset="0" style="stop-color:#6B3113"/>
		<stop  offset="1" style="stop-color:#C67E41"/>
	</linearGradient>
	<path id="XMLID_13_" class="st5" d="M35.4,68c-0.6,0-1-0.1-1.5-0.4c-0.4-0.3-0.7-0.7-1-1.3c-0.2-0.5-0.4-1.2-0.4-1.9
		c0-0.7,0.1-1.5,0.4-2.3c0.2-0.8,0.6-1.5,1-2.2c0.4-0.7,0.9-1.3,1.4-1.9c0.5-0.5,1.1-1,1.6-1.3c0.6-0.3,1.1-0.5,1.7-0.5
		c0.2,0,0.3,0,0.5,0c0.1,0,0.3,0.1,0.4,0.1c-0.1,0-0.1,0-0.1,0c0,0,0,0,0,0c-0.5,0-1,0.2-1.5,0.5c-0.5,0.3-1,0.8-1.5,1.4
		c-0.5,0.6-0.9,1.2-1.2,1.9c-0.4,0.7-0.7,1.4-0.9,2.2c-0.2,0.8-0.3,1.5-0.3,2.2c0,0.5,0.1,1,0.2,1.4c0.1,0.4,0.3,0.8,0.6,1.1
		c0.3,0.3,0.7,0.4,1.1,0.4c0.5,0,1.1-0.2,1.5-0.5c0.5-0.3,0.9-0.8,1.3-1.4c0.4-0.6,0.7-1.2,1-1.9c0.3-0.7,0.5-1.4,0.6-2.2
		c0.2-0.7,0.2-1.5,0.2-2.2c0-0.3,0-0.6-0.1-0.9c0-0.3-0.1-0.6-0.2-0.8c-0.1-0.2-0.2-0.3-0.4-0.3c-0.2,0-0.4,0.1-0.6,0.3
		c-0.2,0.2-0.4,0.5-0.6,0.8c-0.2,0.3-0.4,0.7-0.5,1c-0.1,0.4-0.2,0.7-0.3,0.9c-0.2-0.1-0.4-0.2-0.5-0.3c-0.1-0.1-0.2-0.3-0.2-0.4
		c0-0.3,0.1-0.5,0.3-0.9c0.2-0.3,0.4-0.6,0.7-0.9c0.3-0.3,0.6-0.5,0.9-0.7c0.3-0.2,0.6-0.3,0.8-0.3c0.3,0,0.5,0.1,0.6,0.3
		c0.2,0.2,0.3,0.4,0.4,0.7c0.1,0.3,0.2,0.6,0.2,0.9c0,0.3,0.1,0.6,0.1,0.9c0,1.1-0.1,2-0.4,2.9s-0.6,1.6-1,2.3
		c-0.4,0.7-0.9,1.2-1.3,1.7c-0.5,0.5-1,0.8-1.5,1C36.3,67.9,35.8,68,35.4,68z"/>
	<linearGradient id="XMLID_84_" gradientUnits="userSpaceOnUse" x1="12.8336" y1="59.9044" x2="101.8336" y2="66.1544">
		<stop  offset="0" style="stop-color:#6B3113"/>
		<stop  offset="1" style="stop-color:#C67E41"/>
	</linearGradient>
	<path id="XMLID_15_" class="st6" d="M43.6,68c-0.3,0-0.6,0-0.9-0.1c-0.3-0.1-0.5-0.3-0.7-0.5c0.1-0.5,0.2-1,0.4-1.5
		c0.1-0.5,0.3-1.1,0.5-1.7c0.2-0.6,0.3-1.1,0.5-1.7c0.2-0.5,0.3-1.1,0.5-1.5c0.2-0.5,0.3-0.9,0.4-1.2c0.1-0.4,0.2-0.6,0.3-0.8
		c0-0.1,0.1-0.2,0.1-0.3c0.1-0.2,0.2-0.3,0.2-0.5c0.1-0.2,0.2-0.3,0.3-0.4c0.1-0.1,0.3-0.2,0.4-0.2c0.1,0,0.3,0,0.4,0.1
		c-0.3,0.7-0.6,1.5-0.9,2.3c-0.3,0.8-0.6,1.7-0.9,2.6c-0.3,0.9-0.5,1.8-0.8,2.6c-0.2,0.9-0.4,1.6-0.6,2.3c0.1,0,0.2,0,0.3,0
		c0.1,0,0.2,0,0.3,0c0.6,0,1.2-0.1,1.8-0.4c0.6-0.3,1.1-0.7,1.6-1.2c0.5-0.5,0.9-1.1,1.3-1.7c0.4-0.6,0.7-1.3,0.9-2
		c0.2-0.7,0.3-1.4,0.3-2.2c0-0.8-0.1-1.4-0.4-1.9c-0.3-0.5-0.6-0.9-1-1.1c-0.4-0.2-1-0.4-1.6-0.4c-0.6,0-1.2,0.1-1.7,0.4
		s-0.9,0.6-1.2,1c-0.3,0.4-0.4,0.9-0.4,1.4c0,0.1,0,0.2,0,0.3c0,0.1,0,0.2,0.1,0.2c-0.3,0-0.5-0.1-0.7-0.2c-0.1-0.2-0.2-0.3-0.2-0.6
		c0-0.3,0.1-0.7,0.4-1s0.6-0.7,1-1c0.4-0.3,0.9-0.5,1.5-0.7c0.6-0.2,1.1-0.3,1.8-0.3c0.9,0,1.6,0.2,2.1,0.5c0.5,0.4,0.9,0.8,1.2,1.4
		c0.2,0.6,0.4,1.3,0.4,2c0,0.8-0.1,1.6-0.4,2.4c-0.3,0.8-0.6,1.5-1.1,2.1c-0.5,0.6-1,1.2-1.6,1.7c-0.6,0.5-1.2,0.9-1.9,1.1
		C44.9,67.9,44.2,68,43.6,68z"/>
	<linearGradient id="XMLID_85_" gradientUnits="userSpaceOnUse" x1="12.9012" y1="58.9417" x2="101.9012" y2="65.1917">
		<stop  offset="0" style="stop-color:#6B3113"/>
		<stop  offset="1" style="stop-color:#C67E41"/>
	</linearGradient>
	<path id="XMLID_17_" class="st7" d="M57.6,68c-0.7,0-1.2-0.2-1.7-0.5c-0.4-0.3-0.7-0.8-0.9-1.3c-0.2-0.5-0.3-1.1-0.3-1.7
		c0-0.8,0.1-1.5,0.3-2.3c0.2-0.8,0.5-1.5,1-2.2c0.4-0.7,0.9-1.3,1.4-1.9c0.5-0.5,1.1-1,1.6-1.3c0.6-0.3,1.1-0.5,1.7-0.5
		c0.4,0,0.7,0.1,1,0.3c0.2,0.2,0.4,0.5,0.4,1c0,0.3,0,0.6-0.1,1c-0.1,0.4-0.2,0.7-0.4,1c-0.2,0.3-0.3,0.6-0.5,0.8
		c-0.2,0.2-0.4,0.3-0.6,0.3c-0.1,0-0.2,0-0.2-0.1c-0.1,0-0.2-0.1-0.2-0.3c0.1-0.2,0.3-0.4,0.5-0.6c0.2-0.2,0.3-0.5,0.5-0.8
		c0.2-0.3,0.3-0.5,0.4-0.8c0.1-0.3,0.2-0.5,0.2-0.7c0-0.2-0.1-0.4-0.2-0.5c-0.1-0.1-0.3-0.2-0.5-0.2c-0.4,0-0.9,0.2-1.3,0.5
		c-0.5,0.3-0.9,0.8-1.3,1.4c-0.4,0.6-0.8,1.2-1.1,1.9c-0.3,0.7-0.6,1.4-0.8,2.1c-0.2,0.7-0.3,1.4-0.3,2.1c0,0.5,0.1,0.9,0.2,1.4
		c0.1,0.4,0.4,0.8,0.7,1c0.3,0.3,0.7,0.4,1.2,0.4c0.5,0,1-0.1,1.5-0.4c0.5-0.3,1-0.7,1.4-1.1c0.4-0.5,0.8-1,1-1.5l0.2,0.1
		c-0.3,0.6-0.7,1.2-1.2,1.7c-0.5,0.5-1,0.9-1.5,1.3C58.9,67.9,58.3,68,57.6,68z"/>
	<linearGradient id="XMLID_86_" gradientUnits="userSpaceOnUse" x1="12.9351" y1="58.4597" x2="101.9351" y2="64.7097">
		<stop  offset="0" style="stop-color:#6B3113"/>
		<stop  offset="1" style="stop-color:#C67E41"/>
	</linearGradient>
	<path id="XMLID_19_" class="st8" d="M62.5,68c-0.2-0.1-0.3-0.3-0.4-0.4C62,67.5,62,67.4,62,67.3c0-0.3,0.1-0.6,0.3-1.1
		c0.2-0.5,0.5-1,0.8-1.6c0.3-0.6,0.7-1.2,1.1-1.9c-0.4,0-0.7,0-0.9-0.1s-0.5,0-0.7,0h-0.5c0.1-0.3,0.3-0.5,0.6-0.6
		c0.3-0.1,0.6-0.2,1-0.2c0.2,0,0.3,0,0.5,0c0.2,0,0.4,0,0.5,0.1c0.5-0.7,1-1.5,1.5-2.2c0.5-0.7,1-1.3,1.5-1.9c0.5-0.5,0.8-1,1.1-1.2
		c0.3-0.3,0.5-0.4,0.7-0.4c0.1,0,0.2,0,0.4,0.1c0.1,0.1,0.3,0.2,0.4,0.3c-0.1,0.1-0.2,0.3-0.4,0.6c-0.2,0.3-0.3,0.8-0.5,1.3
		c-0.2,0.5-0.3,1.1-0.5,1.7c-0.2,0.6-0.3,1.2-0.5,1.8c-0.1,0.6-0.3,1.2-0.3,1.8C68,64.5,68,65,68,65.4c0,0.4,0,0.7,0.1,0.9
		c0.1,0.2,0.2,0.3,0.4,0.3c0.3,0,0.5-0.2,0.9-0.5c0.3-0.3,0.7-0.9,1-1.6l0.1,0.1c-0.3,0.8-0.7,1.4-1.1,1.9C69,67,68.5,67.2,68,67.2
		c-0.4,0-0.7-0.2-0.9-0.5c-0.2-0.4-0.3-0.8-0.3-1.4c0-0.3,0-0.6,0.1-1c0-0.4,0.1-0.8,0.2-1.1C66.7,63,66.3,63,66,62.9
		c-0.4,0-0.7-0.1-1-0.1c-0.5,0.8-0.9,1.7-1.3,2.6C63.2,66.3,62.8,67.2,62.5,68z M67.2,62.6c0.1-0.6,0.3-1.3,0.5-1.9
		c0.2-0.7,0.4-1.3,0.6-1.9c0.2-0.6,0.4-1.1,0.6-1.6c-0.3,0.2-0.6,0.5-1,1c-0.4,0.5-0.8,1-1.2,1.7c-0.4,0.7-0.9,1.4-1.3,2.2
		c0.3,0.1,0.7,0.1,1,0.2C66.7,62.5,67,62.5,67.2,62.6z"/>
	<linearGradient id="XMLID_87_" gradientUnits="userSpaceOnUse" x1="12.9792" y1="57.8305" x2="101.9792" y2="64.0805">
		<stop  offset="0" style="stop-color:#6B3113"/>
		<stop  offset="1" style="stop-color:#C67E41"/>
	</linearGradient>
	<path id="XMLID_22_" class="st9" d="M72.6,68c-0.4,0-0.7-0.2-0.8-0.4c-0.1-0.2-0.2-0.5-0.2-0.8c0-0.3,0.1-0.8,0.2-1.3
		c0.1-0.5,0.3-1.1,0.5-1.7c0.2-0.6,0.4-1.2,0.7-1.8c-0.1,0-0.2,0-0.4,0s-0.3,0-0.5,0.1c-0.2,0-0.4,0.1-0.8,0.1
		c0-0.3,0.1-0.4,0.3-0.6c0.2-0.1,0.4-0.2,0.7-0.3c0.3-0.1,0.6-0.1,0.9-0.1c0.3-0.7,0.5-1.5,0.8-2.2c0.3-0.7,0.6-1.4,0.9-2
		c-0.1,0-0.2,0-0.3,0c-0.1,0-0.2,0-0.3,0c-0.6,0-1.1,0.1-1.4,0.2c-0.3,0.1-0.6,0.3-0.7,0.6c-0.1,0.3-0.2,0.6-0.2,1
		c0,0.2,0,0.4,0,0.6c0,0.2,0.1,0.4,0.1,0.6c-0.3-0.1-0.6-0.2-0.7-0.4c-0.2-0.2-0.2-0.4-0.2-0.7c0-0.5,0.2-0.9,0.5-1.3
		c0.4-0.4,0.8-0.7,1.4-0.9c0.6-0.2,1.3-0.3,2-0.3c0.5,0,1,0,1.5,0.1c0.5,0.1,0.9,0.1,1.4,0.1c0.2,0,0.4,0,0.6,0
		c0.2,0,0.3-0.1,0.5-0.1c-0.4,0.4-0.7,0.7-0.9,0.8c-0.2,0.1-0.5,0.2-0.7,0.2c-0.2,0-0.5,0-0.9-0.1s-0.8-0.1-1.2-0.2
		c-0.1,0.3-0.3,0.7-0.4,1.2c-0.2,0.5-0.3,0.9-0.5,1.4c-0.2,0.5-0.3,1-0.5,1.5c0.5,0,0.9,0.1,1.4,0.1c0.4,0.1,0.8,0.1,1.2,0.1
		c-0.1,0.1-0.2,0.2-0.3,0.3c-0.1,0.1-0.2,0.1-0.4,0.1c-0.2,0-0.4,0.1-0.8,0.1c-0.3,0-0.8,0-1.3,0c-0.1,0.2-0.1,0.4-0.2,0.7
		c-0.1,0.3-0.2,0.5-0.2,0.8c-0.1,0.3-0.1,0.4-0.2,0.6c-0.2,0.7-0.4,1.4-0.5,2.1C72.7,66.9,72.7,67.5,72.6,68z"/>
	<linearGradient id="XMLID_88_" gradientUnits="userSpaceOnUse" x1="13.0092" y1="57.404" x2="102.0092" y2="63.654">
		<stop  offset="0" style="stop-color:#6B3113"/>
		<stop  offset="1" style="stop-color:#C67E41"/>
	</linearGradient>
	<path id="XMLID_24_" class="st10" d="M79.8,68c-0.6,0-1.1-0.1-1.5-0.4c-0.4-0.2-0.8-0.6-1-1c-0.2-0.4-0.3-0.8-0.3-1.3
		c0-0.4,0.1-0.9,0.3-1.3c0.2-0.4,0.5-0.8,0.8-1.2c0.3-0.4,0.7-0.6,1.2-0.9c0.5-0.2,0.9-0.4,1.5-0.4c-0.4-0.3-0.7-0.7-0.8-1.1
		c-0.2-0.4-0.3-0.8-0.3-1.2c0-0.5,0.1-1,0.4-1.5s0.6-0.8,1.1-1.1c0.5-0.3,1-0.4,1.5-0.4c0.5,0,1,0.1,1.2,0.4
		c0.3,0.3,0.4,0.7,0.4,1.2c0,0.4-0.1,0.7-0.2,1c-0.1,0.3-0.3,0.6-0.5,0.8c-0.2,0.2-0.4,0.3-0.5,0.3c-0.1,0-0.2,0-0.3-0.1
		s-0.2-0.2-0.2-0.3c0.3-0.3,0.6-0.6,0.9-1c0.2-0.3,0.4-0.7,0.4-1.1c0-0.3-0.1-0.5-0.3-0.7c-0.2-0.2-0.4-0.2-0.8-0.2
		c-0.4,0-0.8,0.1-1.1,0.4c-0.3,0.3-0.5,0.6-0.7,1.1c-0.2,0.4-0.2,0.9-0.2,1.5c0,0.3,0.1,0.7,0.2,1.1c0.1,0.4,0.3,0.8,0.7,1.1
		c-0.6,0.1-1.2,0.4-1.7,0.7c-0.5,0.4-0.9,0.8-1.1,1.4c-0.3,0.5-0.4,1-0.4,1.6c0,0.3,0.1,0.6,0.2,1c0.1,0.3,0.3,0.6,0.6,0.8
		c0.3,0.2,0.6,0.3,1.1,0.3c0.5,0,1-0.1,1.5-0.4c0.5-0.3,1-0.7,1.4-1.1c0.4-0.5,0.8-1,1-1.5l0.2,0.1c-0.3,0.7-0.7,1.2-1.2,1.8
		c-0.5,0.5-1,0.9-1.5,1.2C81,67.9,80.4,68,79.8,68z"/>
</g>
</svg>
