<?xml version="1.0" encoding="utf-8"?>
<!-- Generator: Adobe Illustrator 19.0.0, SVG Export Plug-In . SVG Version: 6.00 Build 0)  -->
<svg version="1.1" id="Layer_1" xmlns="http://www.w3.org/2000/svg" xmlns:xlink="http://www.w3.org/1999/xlink" x="0px" y="0px"
	 viewBox="0 0 200 200" style="enable-background:new 0 0 200 200;" xml:space="preserve">
<style type="text/css">
	.st0{fill:url(#XMLID_27_);}
	.st1{fill:url(#XMLID_28_);}
	.st2{fill:url(#XMLID_29_);}
	.st3{fill:url(#XMLID_30_);}
	.st4{fill:url(#XMLID_31_);}
	.st5{fill:url(#XMLID_32_);}
	.st6{fill:url(#XMLID_33_);}
	.st7{fill:url(#XMLID_34_);}
	.st8{fill:url(#XMLID_35_);}
	.st9{fill:url(#XMLID_36_);}
	.st10{fill:url(#XMLID_37_);}
</style>
<g id="XMLID_1_">
	<linearGradient id="XMLID_27_" gradientUnits="userSpaceOnUse" x1="133.8567" y1="84.3186" x2="150.367" y2="84.3298">
		<stop  offset="0" style="stop-color:#6B3113"/>
		<stop  offset="1" style="stop-color:#C67E41"/>
	</linearGradient>
	<path id="XMLID_100_" class="st0" d="M134,93.3L134,93.3l-0.2-0.1c0,0,0-0.1,0-0.2c0.1-0.2,0.7-0.6,4.5-2.8l0,0l-0.1-0.1
		c-0.1-0.2-0.1-0.3,2.5-2c1.2-0.8,2.6-1.8,4-2.7c-2.9,1.7-3,1.7-3.1,1.7l-0.1-0.1c-0.2-0.3,0.1-0.6,4-3.8c1.2-1,2.6-2.1,3.4-2.8
		c-0.7,0.4-1.7,1-2.5,1.5c-3.4,2-3.4,2-3.6,2l-0.1-0.1c-0.1-0.2-0.1-0.2,2.9-3c1-0.9,2.2-2,2.9-2.7c-0.9,0.5-2.4,1.4-3.6,2.1
		c-0.7,0.4-1.3,0.8-1.8,1.1c-0.8,0.5-0.8,0.5-0.9,0.5l-0.1-0.1c-0.1-0.1,0-0.2,0.1-0.3c-0.4,0.2-0.5,0.2-0.5,0.2l-0.1-0.1
		c-0.1-0.2-0.1-0.3,4.1-4c0.2-0.1,0.3-0.3,0.5-0.4c-1.3,0.8-3.3,1.9-4.5,2.6c-1.6,0.9-1.6,0.9-1.7,0.9l-0.1-0.1
		c-0.1-0.2-0.1-0.2,2.9-3.2c0.3-0.3,0.6-0.6,0.9-0.9c-1,0.6-2.4,1.4-3.6,2.1c-2.8,1.6-2.8,1.6-2.9,1.6L137,80
		c-0.1-0.2-0.2-0.3,3.5-3.2c-0.8,0.5-1.7,1-2.5,1.5c-3.2,1.9-3.2,1.9-3.4,1.9l-0.1-0.1c-0.1-0.1,0-0.2,0.1-0.3l0.1,0
		c0.2-0.1,1.7-1,3.1-1.8c4.5-2.7,4.5-2.6,4.6-2.6l0.1,0.1c0.1,0.2,0,0.2-0.4,0.5c-0.2,0.2-0.5,0.4-0.8,0.7c-0.7,0.6-1.9,1.5-2.8,2.3
		c0.4-0.2,0.8-0.5,1.2-0.7c4.7-2.8,4.7-2.8,4.9-2.7l0.1,0.1c0.1,0.2,0.1,0.2-1.8,2c-0.6,0.6-1.5,1.5-2.1,2.1
		c0.2-0.1,0.3-0.2,0.5-0.3c5.9-3.5,6-3.5,6.1-3.4l0.1,0.1c0.1,0.2,0.1,0.2-0.5,0.7c-0.3,0.3-0.7,0.6-1.2,1.1c-0.9,0.8-2.3,2-3.1,2.8
		c0.9-0.5,2.3-1.3,3.3-1.9c2.2-1.3,2.2-1.3,2.3-1.3l0.1,0.1c0.1,0.1,0,0.2-0.1,0.3c0.9-0.5,1-0.5,1-0.5l0.1,0.1
		c0.1,0.2,0,0.4-3.7,3.8c-0.7,0.6-1.4,1.3-2,1.8c0.7-0.4,1.5-0.9,2.3-1.4c3.5-2.1,3.5-2.1,3.7-2l0.1,0.1c0.2,0.3-0.2,0.7-4.2,3.9
		c-1.1,0.9-2.5,2-3.2,2.7c1.3-0.7,3.6-2.1,5.2-3.1c2.3-1.4,2.3-1.4,2.4-1.4l0.1,0.1c0.1,0.2,0,0.3-0.4,0.5c-0.2,0.1-0.5,0.4-0.9,0.6
		c-0.8,0.5-1.9,1.2-3,2c-1.3,0.9-3,2-4.4,2.9c0.5-0.3,1-0.6,1.5-0.9c5.3-3.2,6.6-3.9,6.8-3.9c0.1,0,0.1,0.1,0.1,0.1
		c0,0.1,0,0.1,0,0.2c0,0.1-0.2,0.3-0.5,0.5l0.1,0.1c0.1,0.1,0,0.2-0.1,0.3l-0.1,0c-0.5,0.2-4.7,2.7-8,4.7
		C135,92.9,134.3,93.3,134,93.3z M148.6,84.3c-1.4,0.8-3.6,2.1-5.3,3.2c-0.2,0.1-0.3,0.2-0.5,0.3C145,86.5,147.3,85.1,148.6,84.3z
		 M134.8,79.8L134.8,79.8L134.8,79.8z"/>
	<linearGradient id="XMLID_28_" gradientUnits="userSpaceOnUse" x1="61.2318" y1="89.0746" x2="145.336" y2="89.1315">
		<stop  offset="0" style="stop-color:#6B3113"/>
		<stop  offset="1" style="stop-color:#C67E41"/>
	</linearGradient>
	<path id="XMLID_135_" class="st1" d="M101.5,109.3L101.5,109.3l-0.2-0.1c-0.2-0.3-0.1-0.7,2.4-2.4c1.4-1,3.6-2.4,6.4-4.2
		c0.9-0.6,1.8-1.1,2.8-1.7c-1.3,0.8-2.7,1.5-3.9,2.2c-1.1,0.6-2.1,1.2-3.1,1.8c-5.7,3.5-7.3,4.4-7.6,4.4c-0.1,0-0.1,0-0.1-0.1
		c-0.2,0.1-0.2,0.1-0.3,0.1l-0.1-0.1c0-0.1-0.1-0.1,0-0.3c0-0.2,0.2-0.4,0.6-0.7c-1.6,0.8-2.2,0.9-2.4,0.9c-0.1,0-0.2-0.1-0.2-0.1
		c0,0-0.1-0.1,0-0.2c0,0,0-0.1,0.1-0.2c-1.4,0.8-1.5,0.8-1.6,0.8l-0.1-0.1c-0.1-0.2-0.2-0.4,6.6-4.7c4-2.5,9.4-5.9,14.7-9.2
		c7.6-4.7,15.9-9.9,19.5-12.3c-3.4,1.9-10.3,6-17.1,10c-6.2,3.7-12.7,7.5-17.8,10.4c-8.6,5-8.8,4.9-8.9,4.9l-0.1-0.1
		c-0.1-0.2-0.2-0.4,4.8-3.5c3-1.9,7.3-4.4,11.7-7.1c6.7-4,14.4-8.6,20.3-12.4c3.2-2,5.6-3.6,7.3-4.8c2.4-1.7,2.8-2.2,2.8-2.4
		c-0.1,0-0.2,0-0.4,0c-1.2,0.7-2.6,1.5-4.3,2.5c-5,2.9-11.9,6.9-18.5,10.7c-6.3,3.6-13,7.5-18.2,10.5c-0.2,0.1-0.4,0.2-0.5,0.3
		c-8.5,5.3-8.6,5.3-8.7,5.2l-0.1-0.1c-0.1-0.1-0.1-0.2,0.3-0.5c-0.5,0.3-0.7,0.4-0.8,0.3l-0.1-0.1c-0.2-0.4,0.2-1.2,7.9-6
		c5-3,11.8-7,18.4-10.9c6.7-3.9,13.6-7.9,18.7-11c2.8-1.7,4.8-3,6.2-4c1.5-1,2-1.6,2.2-1.8c-1.9,0.8-12.9,7.4-23.6,13.8
		c-7.7,4.6-15.6,9.4-21.8,13c-9.3,5.4-11,6.1-11.3,6c-0.1,0-0.1-0.1-0.2-0.1c0-0.1,0-0.1,0-0.2c0-0.1,0-0.2,0.6-0.5
		c-0.5,0.2-0.8,0.2-1,0.2c-0.1,0-0.2-0.1-0.2-0.2l0-0.2l0,0c-0.7,0.3-0.8,0.3-0.9,0.3c-0.1,0-0.1-0.1-0.1-0.1c0-0.1,0-0.1,0-0.2
		c0-0.1,0-0.1,0.2-0.3c-0.2,0.1-0.3,0.1-0.4,0c-0.1,0-0.2-0.1-0.2-0.1c-0.1-0.2-0.2-0.3,1.6-1.4c-1.4,0.6-2,0.7-2.3,0.7
		c-0.1,0-0.1,0-0.2,0c-0.1,0-0.1-0.1-0.2-0.1l0-0.2l0,0l0-0.1c0.1-0.3,1.2-1.3,8.6-5.7c5-3,11.6-6.8,18.6-10.7
		c7.1-4.1,14.5-8.3,20-11.6c7.2-4.3,9.1-5.7,9.4-6.1c-0.1,0-0.4,0-1.1,0.3c-2.3,2.5-14.9,9.5-32.1,18.9c-2.3,1.3-4.6,2.5-6.7,3.7
		c-1.1,0.7-2.2,1.4-3.3,2c-4.1,2.5-7.7,4.7-10.3,6.3c-4.2,2.6-4.3,2.5-4.5,2.5l-0.1-0.1c0,0-0.1-0.1,0-0.2c0-0.1,0.2-0.3,0.5-0.6
		c-0.5,0.2-0.8,0.3-1,0.2c-0.1,0-0.2-0.1-0.2-0.1c-0.1,0-0.1,0-0.2,0c-0.1,0-0.2-0.1-0.2-0.1c-0.2-0.3-0.3-0.4,7.1-4.9
		c4.3-2.6,10.2-6,16.4-9.7c12.8-7.5,28.7-16.8,30-18.3c-0.3,0-1,0.2-3.1,1.3c-1.8,0.9-4.1,2.3-7.3,4.1c-5.9,3.5-13.3,8.1-20.5,12.5
		c-6.1,3.8-11.8,7.3-16.2,9.9c-6.4,3.8-7.7,4.3-8,4.2c-0.1,0-0.2-0.1-0.2-0.1c0-0.1-0.1-0.1,0-0.3c0.4-1.3,9.9-6.8,25.7-15.7
		c6.6-3.7,13.4-7.5,18.4-10.6c2.7-1.6,4.7-2.9,6.1-3.8c1.8-1.3,2.2-1.7,2.2-1.9c-0.5,0-2.5,0.8-11,5.8c-6.1,3.6-13.7,8.3-21.1,12.8
		c-5.6,3.4-10.8,6.6-14.8,9c-6,3.6-6.8,3.8-7.1,3.8c-0.1,0-0.1-0.1-0.2-0.1c0-0.1-0.1-0.1,0-0.3c0.3-1.3,9.4-6.5,24.2-14.9
		c6.4-3.6,13-7.4,17.9-10.3c2.7-1.6,4.6-2.8,5.9-3.8c1.8-1.3,2.1-1.7,2.2-1.9c-0.2,0-0.8,0.1-2.3,0.9c-2.3,1.8-9.4,5.8-20,11.7
		c-2.9,1.8-5.9,3.6-8.7,5.4C79.5,95.7,73.9,99.1,73.2,99c-0.1,0-0.1-0.1-0.2-0.1c0-0.1-0.1-0.1,0-0.3c0.1-0.3,0.5-0.7,1.3-1.2
		c-1.6,0.9-1.7,1-1.8,0.9l-0.1-0.1c0-0.1-0.1-0.1,0-0.3c0.3-1.1,8.7-6,22.6-13.8c5.9-3.3,11.9-6.7,16.4-9.4c6.1-3.7,7.4-4.8,7.5-5.1
		c-0.5,0-2.8,0.9-12.6,6.6c-6.8,4-15.2,9.1-21.9,13.3c-3.6,2.2-6.6,4.1-8.9,5.4c-3.7,2.2-3.8,2.2-3.9,2.2L71.4,97
		c-0.1-0.2-0.2-0.4,5.8-4.1c3.5-2.2,8.3-5.1,13.4-8.2c10.1-6.2,22.6-13.8,24.3-15.3c-0.6,0.2-2.4,1-7.6,4.1
		c-4.4,2.6-10,6.1-15.5,9.5c-12.9,8-20.9,12.9-22.2,12.9l-0.1,0c-0.1,0-0.2-0.1-0.2-0.1c-0.2-0.3-0.2-0.4,12.1-7.9
		c6-3.7,12.9-7.8,18.4-11.4c7.7-4.9,9.2-6.4,9.4-6.8c-2,0.5-18.9,10.7-29.2,16.9c-10.8,6.5-11.7,7-11.9,7L68,93.5
		c-0.2-0.3,0.1-0.7,1.8-2c1.2-0.9,2.9-2,5.2-3.5c4.3-2.7,9.9-6.1,15.4-9.3c6.4-3.8,13-7.8,14.7-9.1c-2.3,1.1-11.3,6.5-19.2,11.3
		c-4.5,2.7-9.1,5.5-12.5,7.5c-5.8,3.4-6.1,3.3-6.2,3.3c-0.1,0-0.1-0.1-0.1-0.1c0-0.1,0-0.1,0-0.2c0-0.2,0.5-0.5,1.4-1.1
		c-0.6,0.3-1.1,0.5-1.4,0.6c-0.4,0.2-0.6,0.3-0.7,0.3c-0.1,0-0.1-0.1-0.1-0.1c0-0.1-0.1-0.1,0-0.2l0,0c0-0.1-0.1-0.2,0.3-0.4
		c0.5-0.5,1.9-1.5,4.2-2.8c0.3-0.2,0.5-0.3,0.8-0.5c1.9-1.2,4.2-2.6,6.5-4.1c8-5,18.9-11.8,20.7-13.3c-0.7,0.2-2.7,1.2-8.2,4.4
		c-4.6,2.7-10.1,6.1-14.9,9c-8.5,5.2-10,6.1-10.2,6l-0.1-0.1c-0.1-0.2-0.1-0.4,1.5-1.6c0.9-0.7,2.3-1.6,4.2-2.8
		c3.4-2.2,7.9-5,12.2-7.6c4.2-2.6,8.5-5.3,10.8-6.8c-2.5,1.4-7.2,4.2-11.8,7c-4.1,2.4-8.3,4.9-11.5,6.8c-5.6,3.2-5.8,3.2-5.9,3.1
		c-0.1,0-0.1-0.1-0.1-0.1c-0.1-0.2-0.1-0.2,2-1.6c1.2-0.8,3-1.9,5-3.2c6-3.8,15.2-9.6,18.5-12c-2,1.1-5.7,3.4-9.4,5.6
		c-3.8,2.3-7.7,4.6-10.8,6.5c-5.4,3.1-5.6,3.1-5.8,3c-0.1,0-0.1-0.1-0.1-0.1c-0.1-0.2-0.2-0.3,3.1-2.6c1.9-1.3,4.5-3,7.3-4.8
		c5-3.3,11.1-7.3,12.4-8.5c-1.7,0.7-8.4,4.8-13.4,7.9c-7.9,4.8-9.5,5.7-9.8,5.6c-0.1,0-0.1-0.1-0.1-0.1c-0.2-0.3-0.2-0.4,8.5-6
		c3.9-2.6,9.1-5.9,10.5-7.1c-2.2,1-10.4,6-15,8.8c-4.7,2.9-4.7,2.9-4.8,2.8l-0.1-0.1c0-0.1,0-0.1,0-0.2c0-0.1,0.1-0.2,0.2-0.3l0,0
		l-0.1-0.1c-0.1-0.2,0-0.3,0.5-0.6c0.3-0.2,0.7-0.5,1.3-1c1.1-0.8,2.7-1.8,4.3-3c2.5-1.7,5.6-3.9,7.5-5.2c-1.4,0.8-3.5,2.1-5.4,3.2
		c-6.8,4.1-8.3,5-8.6,4.9c-0.1,0-0.1-0.1-0.1-0.1c-0.2-0.3,0-0.5,6.9-4.6c2.1-1.3,4.6-2.7,6.1-3.7c-2.4,1.4-6.7,3.9-9.3,5.5
		c-3.3,2-3.3,2-3.4,1.9l-0.1-0.1c-0.1-0.2-0.1-0.2,2.3-1.9c1.3-0.9,3-2.1,4.6-3.2c0.7-0.4,1.3-0.9,1.9-1.3c-1.8,1.1-4.2,2.5-5.9,3.5
		c-3.1,1.8-3.1,1.8-3.2,1.8l-0.1-0.1c-0.2-0.3,0.2-0.7,5.3-4c1-0.6,2-1.3,2.9-1.9c-1.3,0.7-2.9,1.7-4.2,2.5
		c-4.2,2.5-4.2,2.5-4.3,2.5l-0.1-0.1c-0.2-0.3,0-0.6,5.1-4.6c0.2-0.1,0.3-0.2,0.5-0.4c-0.7,0.4-1.5,0.9-2.3,1.3
		c-2.7,1.6-2.7,1.6-2.8,1.6l-0.1-0.1c-0.1-0.2-0.1-0.2,1.3-1.2c-1.5,0.9-1.5,0.9-1.6,0.8l0.1-0.2l0.2-0.1l-0.2,0.1l-0.1-0.2
		c0.1,0,1.3-0.8,2.6-1.5c3.5-2,3.5-2,3.6-2l0.1,0.1c0.1,0.2,0,0.3-0.7,0.7c-0.3,0.2-0.8,0.5-1.3,0.8c2.9-1.7,2.9-1.7,3-1.7l0.1,0.1
		c0.1,0.2,0.1,0.2-2.2,2c-1.2,1-3.1,2.4-4.1,3.3c0.8-0.5,1.9-1.1,3-1.8c6.4-3.8,6.4-3.8,6.6-3.7l0.1,0.1c0.2,0.3-0.2,0.6-4.9,3.7
		c-0.9,0.6-2,1.3-2.9,1.9c0.2-0.1,0.3-0.2,0.5-0.3c8.3-5,8.8-5.2,9-5.1l0.1,0.1c0.1,0.2,0.1,0.2-1.5,1.3c-0.9,0.6-2,1.4-3.3,2.3
		c-1,0.7-2.2,1.5-3.3,2.2c9.4-5.6,10.5-6.2,10.8-6.1l0.1,0.1c0.2,0.4-0.4,0.9-7.9,5.3c-1.4,0.8-2.8,1.7-4,2.4c1.6-1,3.7-2.2,5.5-3.3
		c6.4-3.9,7.2-4.3,7.4-4.2l0.1,0.1c0.1,0.2,0.1,0.3-3,2.5c-1.8,1.2-4,2.8-6.2,4.3c-1.2,0.8-2.4,1.7-3.4,2.4c1.5-0.9,3.4-2,5.2-3.1
		c9.1-5.4,11.1-6.6,11.4-6.5l0.1,0.1l0,0.1c0.6-0.3,0.7-0.2,0.8-0.2c0.1,0,0.1,0.1,0.1,0.1c0.1,0.2,0.2,0.4-3.5,2.9
		c-2.1,1.4-4.9,3.2-7.5,5c-2.6,1.7-5.4,3.5-7,4.6c1.8-1,4.9-2.9,8-4.8c9.5-5.8,13.5-8.2,14.1-8c0.1,0,0.1,0.1,0.2,0.1
		c0.1,0.2,0.3,0.4-4,3.4c-2.4,1.7-5.7,3.8-8.8,5.9c-3.9,2.6-8.2,5.4-9.7,6.6c2.4-1.2,9.9-5.7,15.6-9.2c9.1-5.5,10.8-6.4,11-6.4
		l0.1,0.1c0.1,0.2,0.2,0.4-6.9,5.1c-4,2.6-9,5.7-13,8.3c-1.4,0.9-2.8,1.7-3.9,2.5c3.5-2,9.1-5.4,14-8.3c3.5-2.1,6.8-4.1,9.3-5.5
		c4.2-2.5,4.3-2.4,4.5-2.4l0.1,0.1c0.2,0.4-0.2,0.7-12.5,8.3c-6.4,4-14.9,9.2-17.2,11c1.6-0.9,5.3-3.2,9.2-5.6
		C88,75,97.9,69.1,99,69.3c0.1,0,0.2,0.1,0.2,0.1c0.1,0.2,0.2,0.4-6.9,5c-4,2.6-9.2,5.8-13.8,8.7c1.1-0.6,2.3-1.3,3.6-2
		c12.3-7.6,20.4-12.5,21.4-12.3l0.1,0.1l0.1,0c0.1,0,0.1,0.1,0.1,0.1c0,0.1,0,0.1,0,0.2l-0.1,0.1l0,0.1c0,0.1-0.3,0.4-0.7,0.7
		c2.3-1.3,2.5-1.2,2.6-1.2c0.1,0,0.1,0.1,0.1,0.1c0.1,0.2,0,0.4-1.2,1.3c-0.7,0.5-1.8,1.2-3.3,2.1c-2.8,1.7-6.7,4-10.8,6.5
		c-5.3,3.1-10.8,6.4-15,9.1c-4.7,3-6.4,4.3-7,4.9c1.5-0.8,6.1-3.6,11.3-6.7c5.8-3.5,13-7.9,18.8-11.2c10.1-5.9,10.6-5.8,10.8-5.7
		c0.1,0,0.1,0.1,0.2,0.1c0.2,0.3,0.1,0.7-2.4,2.6c-1.5,1.1-3.8,2.6-6.8,4.6c-5.6,3.6-12.9,8-18.7,11.6c-5.2,3.2-10.1,6.2-11.6,7.2
		c0.8-0.3,2.6-1.2,6.8-3.7c4.1-2.4,9.4-5.8,14.6-9c14-8.7,22.5-13.9,23.7-13.7c0.1,0,0.2,0.1,0.2,0.1c0.2,0.3,0.3,0.5-7.8,5.5
		c-4.7,2.9-10.9,6.7-16.8,10.3c-6.1,3.7-12.3,7.5-15.9,9.8c2.3-1.4,5.7-3.4,9.3-5.7c18.2-11.1,33.3-20.3,34.9-19.9
		c0.1,0,0.2,0.1,0.2,0.2c0,0.1,0.1,0.1,0,0.3c-0.1,0.4-1.1,1.2-2.8,2.3c5.3-2.9,5.6-2.8,5.8-2.8c0.1,0,0.1,0.1,0.2,0.1
		c0,0,0.1,0.1,0,0.2l0,0c0.9-0.4,1.4-0.5,1.7-0.5c0.1,0,0.2,0.1,0.2,0.2c0,0.1,0.1,0.2,0,0.3c-0.1,0.4-1,1.2-2.7,2.3
		c3.6-2,5.8-3,6.3-2.9c0.1,0,0.2,0.1,0.2,0.1c0,0.1,0.1,0.2,0,0.3c-0.1,0.3-0.7,0.9-1.9,1.7c2.5-1.4,4.1-2,4.6-1.9
		c0.1,0,0.2,0.1,0.2,0.2c0.2,0.3,0.4,0.6-9.5,6.6c-5.8,3.5-13.4,7.9-20.7,12.2c-10.3,6-20.9,12.3-23,13.8c0.5-0.3,1.8-1.1,4.8-2.8
		c3.1-1.8,7.4-4.2,12.3-6.9c3.9-2.3,8-4.9,12.1-7.4c6.8-4.2,13.3-8.1,18.4-11.1c7.4-4.4,8.8-4.9,9.2-4.8l0,0
		c0.3-0.1,0.5-0.1,0.6-0.1c0.1,0,0.2,0.1,0.2,0.1c0,0.1,0.1,0.2,0,0.3l0,0c0.4-0.1,0.7-0.2,0.9-0.1c0.2,0,0.2,0.1,0.3,0.2
		c0,0,0.1,0.1,0,0.2c-0.3,1.1-11.4,7.5-29.7,18c-7.5,4.3-15.5,8.9-20.9,12.1c0.7-0.4,1.5-0.9,2.4-1.4c5.3-3,12.2-6.9,19.5-11
		c2.9-1.7,5.9-3.3,8.9-5c5.7-3.4,11.1-6.7,15.1-9c4.2-2.5,6-3.5,6.7-3.8c0.6-0.3,0.8-0.4,0.9-0.4l0.1,0.1c0,0.1,0,0.1,0,0.2
		c0,0,0,0.1-0.2,0.3c-0.1,0.2-0.5,0.5-1.4,1.1c1.2-0.6,2-0.8,2.3-0.7c0.1,0,0.2,0.1,0.2,0.2c0,0.1,0.1,0.1,0,0.3
		c0,0.2-0.3,0.4-0.6,0.7l0.1,0.1c0,0.1,0,0.1,0,0.2c0,0.1,0,0.2-0.3,0.4c0.1,0,0.1,0.1,0.1,0.1c0,0,0,0.1,0,0.2
		c0,0.1-0.1,0.3-1.6,1.4c1.4-0.8,1.6-0.7,1.7-0.7c0.1,0,0.1,0.1,0.1,0.1c0.3,0.4-0.2,1.3-8.3,6.3c-1.3,0.8-2.8,1.7-4.4,2.7
		c11-6.4,13-7,13.6-6.9c0.1,0,0.2,0.1,0.2,0.2c0.1,0.2-0.1,0.3-0.6,0.7c-0.4,0.2-0.9,0.6-1.7,1c-0.3,0.2-0.7,0.4-1.1,0.7
		c0.1,0,0.1,0.1,0.1,0.1c0.2,0.3,0.1,0.7-2.6,2.7c-1.6,1.2-4,2.8-7.3,4.8c-6,3.8-13.8,8.5-20.7,12.6c-6.4,3.8-12.5,7.5-15.1,9.2
		c4.1-2.2,15.5-8.9,25-14.5c5-3,9.7-5.7,13.3-7.8c5.9-3.4,6-3.4,6.1-3.4l0.1,0.1c0.1,0.2,0.2,0.4-6.7,4.8c-4,2.6-9.5,6-14.8,9.2
		c-7.7,4.8-16.3,10.1-19.6,12.4c0.6-0.4,1.4-0.8,2.4-1.4c1.5-1,3.9-2.5,7.8-4.7c1.3-0.8,2.7-1.6,4.2-2.4c5.5-3.3,11.6-7,16.4-9.8
		c8.7-5.1,9.1-5,9.3-4.9c0.1,0,0.1,0.1,0.2,0.1l0,0.2c-0.1,0.2-1,0.8-11.2,6.5c-4.5,2.5-9.8,5.5-14.6,8.3c-0.3,0.2-0.5,0.3-0.8,0.5
		c-4,2.4-7.8,4.7-10.6,6.3c-0.2,0.1-0.4,0.2-0.6,0.4c-1.5,1-2,1.4-2.2,1.7c0.4-0.1,1.5-0.5,4.2-2c3.6-2.4,10.5-6.4,19.2-11.4
		c1.6-1,3.2-1.9,4.6-2.8c9.4-5.8,10.9-6.6,11.1-6.6l0.1,0.1c0,0.1,0,0.1,0,0.2c-0.1,0.5-4.3,3-14.6,8.8c-0.4,0.2-0.7,0.4-1.1,0.6
		c-4.4,2.7-9.2,5.6-13.3,8c-2.6,1.5-4.5,2.6-6,3.4c-1.1,0.7-1.7,1.2-2.1,1.5c1.8-1,7.5-4.3,13.3-7.7c10-6.2,18-11,20.7-12
		c1.9-1,1.9-1,2-1l0.1,0.1c0,0.1,0,0.1,0,0.2c0,0.1-0.1,0.2-1.1,0.9c-0.1,0.1-0.2,0.2-0.6,0.4c-0.3,0.2-0.8,0.5-1.4,0.9
		c-1.2,0.7-3,1.8-5,3c-4.6,2.7-10.9,6.4-15.9,9.6c-6.3,3.9-8.2,5.5-8.8,6c1.3-0.7,5.8-3.4,10.5-6.3c4.3-2.6,9.1-5.5,12.9-7.8
		c6.6-3.9,7-3.8,7.2-3.7c0.1,0,0.1,0.1,0.2,0.1c0.1,0.2,0.1,0.2-2.6,2.1c-1.6,1.1-3.9,2.5-6.3,4.1c-5.8,3.7-14.3,9.2-16.1,10.7
		c2.5-1,13.9-7.9,20.2-11.8c5.9-3.6,5.9-3.6,6-3.5l0.1,0.1c0.2,0.3,0,0.5-5.4,4.5c-1.5,1.1-3.2,2.4-4.3,3.2c1.6-0.9,4.8-2.8,7.9-4.7
		c10.2-6.1,12.6-7.5,13-7.4c0.1,0,0.1,0.1,0.1,0.1c0,0,0,0.1,0,0.2c-0.1,0.4-1.4,1.3-4,2.8c0,0.1,0,0.1-0.1,0.1l-0.1,0
		c-0.1,0-0.3,0.1-0.6,0.3c-0.9,0.5-1.8,1.1-2.9,1.7c-0.5,0.3-1,0.6-1.5,0.9c-4.9,3-5.2,3.1-5.4,3l-0.1-0.1l0-0.2
		c0-0.1,0-0.1,3.1-1.9c1-0.6,2.3-1.3,3.6-2.1c1.5-0.9,2.3-1.4,2.9-1.7c1.6-1,3.1-1.9,3.9-2.5c-2.1,1.1-7.4,4.3-11.9,7
		c-8.2,4.9-9,5.4-9.2,5.3l-0.1-0.1c-0.2-0.3,0-0.5,5.3-4.4c1.4-1,3-2.2,4.1-3.1c-1.1,0.7-2.7,1.6-4.4,2.7c-3.7,2.3-8.8,5.3-12.9,7.8
		c-7.4,4.3-7.8,4.2-8,4.2c-0.1,0-0.1-0.1-0.2-0.1c-0.1-0.2-0.3-0.4,5.4-4.2c3.2-2.1,7.4-4.8,11.1-7.2c3.4-2.2,6.6-4.2,8-5.2
		c-3,1.4-12.4,7.2-19,11.1C103.7,108.2,101.9,109.3,101.5,109.3z M122.9,84.9c-3.2,1.9-6.5,3.8-9.9,5.7c-6.5,3.8-13.1,7.6-18.1,10.6
		c-5.7,3.5-7.5,4.9-8,5.4c1.5-0.8,7.5-4.4,14.3-8.6C107.8,94,115.8,89.1,122.9,84.9z M86.3,104.3c-1,0.6-1.8,1.1-2.4,1.5
		c3.4-1.5,17.1-9.7,29.3-17c-2.2,1.2-4.3,2.5-6.5,3.7c-2.6,1.5-5.3,3-7.8,4.5C93.4,100.2,89.1,102.8,86.3,104.3z M107.1,91.4
		c-0.8,0.5-1.7,0.9-2.5,1.4c-10.2,5.8-19.8,11.2-21.7,12.5c0.4-0.1,1.2-0.4,2.9-1.3c0.1,0,0.2-0.1,0.3-0.1c1-0.6,2.3-1.4,4.1-2.4
		c2.5-1.4,5.4-3.1,8.6-5C101.4,94.9,104.2,93.2,107.1,91.4z M83.5,104.2c-0.5,0.3-0.8,0.5-1.1,0.7c2-1,7.2-4.1,13.5-7.8
		c-1.4,0.8-2.7,1.5-4,2.2C88.2,101.6,85.3,103.2,83.5,104.2z M85.9,101.9c-2.2,1.3-3.7,2.3-4.4,2.8c0.3-0.1,0.9-0.4,1.8-0.8
		c1-0.6,2.6-1.6,5-3c1.1-0.6,2.2-1.3,3.4-2c3.1-1.9,6.7-4.1,10.5-6.5c-1.6,1-3.1,1.9-4.6,2.8C92.2,98.4,88.5,100.5,85.9,101.9z
		 M105,89.8c-11,6.2-21.6,12.2-24.2,13.9C83.6,102.4,94.2,96.2,105,89.8z M80.9,101.5c-0.9,0.6-1.5,1-1.8,1.3c1.1-0.6,3.4-2,6.4-3.8
		C83.7,100,82.1,100.8,80.9,101.5z M86.4,101.1c-0.6,0.3-1.1,0.6-1.6,0.9c0.2-0.1,0.4-0.2,0.5-0.3c0.1-0.1,0.2-0.1,0.4-0.2
		C85.9,101.4,86.2,101.3,86.4,101.1z M106.5,83c-1.7,0.9-3.4,1.9-5.2,2.9C95,89.5,88.5,93.2,83.8,96c-6.2,3.7-7.7,4.9-7.9,5.3
		c0.5-0.1,2.3-1,7.7-4.2c4.4-2.6,10.1-6.2,16.1-9.9C102.1,85.7,104.4,84.3,106.5,83z M103.5,82.8c-1.7,0.9-3.4,1.9-5.2,3
		c-6.2,3.5-12.1,6.8-16.6,9.5c-5.5,3.3-7,4.5-7.4,5C76,99.6,86,93.5,95.6,87.6C98.3,85.9,101,84.3,103.5,82.8z M94.2,86.2
		c-4.6,2.6-9.1,5.1-12.7,7.2c-5.9,3.5-7.6,4.7-8,5.2c1.7-0.6,10.6-6.1,19.2-11.5C93.3,86.7,93.7,86.5,94.2,86.2z M94.7,84.7
		c-5.4,3-10.8,6.1-14.9,8.6c-4.1,2.5-5.9,3.7-6.6,4.3c1.7-1,6.6-3.9,12.2-7.2C88.3,88.6,91.4,86.7,94.7,84.7z M130.6,90.2
		c-2.5,1.5-6.1,3.5-9.8,5.7C124.6,93.7,128.1,91.7,130.6,90.2z M119.9,82.1c-4.1,2.5-8.4,5.2-12.6,7.8c-2.5,1.5-4.8,3-7,4.3
		c1.3-0.7,2.6-1.4,3.9-2.2c0.7-0.4,1.3-0.7,2-1.1c0.5-0.3,0.9-0.6,1.4-0.8c7.6-4.6,15.4-9.3,21.5-12.8c6.7-3.9,9.3-5.3,10.4-5.7
		c0.7-0.5,0.9-0.8,1-0.9c-0.2,0-0.9,0.1-3.4,1.4c-0.7,0.4-1.6,0.8-2.5,1.4c-1.3,0.8-2.9,1.8-4.9,3C126.7,78,123.4,80,119.9,82.1z
		 M134.9,79.2c-0.6,0.3-1.3,0.6-2.1,1.1c-2.7,1.4-6.4,3.5-11.1,6.3c-3.9,2.3-8.1,4.8-12.2,7.3c1.7-1,3.4-1.9,5-2.9
		C121.7,86.8,129.6,82.3,134.9,79.2z M140.9,75.6c-0.5,0.1-1.6,0.5-4.2,1.9c-2.4,1.3-5.7,3.1-10,5.6c-5.1,3-10.9,6.5-16.5,9.9
		c12.8-7.8,23.9-14.3,27-15.2C139,76.7,140.3,76,140.9,75.6z M106.4,91.2c-0.9,0.6-1.9,1.1-2.8,1.7c0.2-0.1,0.5-0.3,0.7-0.4
		c3.5-2,7.3-4.1,11.1-6.3l0.1,0C112.7,87.7,109.6,89.4,106.4,91.2z M117.2,82.9c-0.3,0.2-0.6,0.4-0.9,0.5c-4.2,2.5-8.7,5.2-13,7.8
		c1.4-0.8,2.8-1.6,4.2-2.4c0.9-0.5,1.9-1.1,2.8-1.6c2.8-1.7,5.5-3.4,8.2-5C118,82.4,117.6,82.6,117.2,82.9z M84,81.6
		C77.4,85.3,70.2,89.4,68,91C70.3,89.8,77.3,85.6,84,81.6z M134,85.9c-1.9,1-5.1,2.8-8.8,5C128.8,88.9,132.1,87,134,85.9z
		 M115.7,86.5c-0.7,0.4-1.3,0.8-2,1.2c-1.6,1-3.1,1.9-4.5,2.8c6.9-4,13.9-8,19.5-11.3c7.8-4.6,10.3-6.3,10.9-6.8c0,0-0.1,0-0.2,0
		c-1.2,0.9-4.1,2.7-11.1,6.7C124.6,81.4,120.2,83.9,115.7,86.5z M71.3,87.6c-1.3,0.8-2.5,1.6-3.3,2.1c1.5-0.8,3.9-2.3,6.6-3.9
		c-0.9,0.5-1.7,0.9-2.5,1.4C71.8,87.3,71.5,87.5,71.3,87.6z M122,69.6c-2.5,0.7-21,11.8-33.9,19.5c3.2-1.8,6.7-3.8,10.6-5.9
		c0.9-0.5,1.9-1,2.8-1.5c9.3-5.7,16.4-9.9,20-11.7C121.8,69.8,121.9,69.7,122,69.6z M105.8,86.8c-0.9,0.6-1.8,1.1-2.7,1.7
		c7.8-4.3,16-8.7,22.1-12.3c3.3-1.9,5.8-3.5,7.5-4.6c0.7-0.5,1.2-0.8,1.6-1.1c-0.3,0.2-0.7,0.3-1.2,0.6c-1.8,1.2-5.2,3.3-11.8,7.1
		C116.5,80.8,111.2,83.8,105.8,86.8z M80.9,82.5c-0.8,0.5-1.7,1-2.5,1.5c-1.3,0.8-2.5,1.6-3.6,2.2c2.3-1.3,4.8-2.9,7.5-4.5
		C81.8,82,81.3,82.2,80.9,82.5z M137.3,73c-4.1,2.2-12.1,7-20.4,11.9c2.3-1.3,4.5-2.6,6.7-3.8c6.1-3.8,10.7-6.5,13.5-8
		C137.1,73.1,137.2,73,137.3,73z M88,78.6c-1.4,0.8-2.7,1.7-4,2.4c2.6-1.5,5.4-3.1,8-4.6C90.8,77.2,89.4,77.9,88,78.6z M128.2,73.5
		c-2.1,1.2-4.6,2.6-7.5,4.3c-1.3,0.8-2.7,1.6-4.1,2.4c1.5-0.9,3-1.7,4.4-2.5C124,76,126.3,74.6,128.2,73.5z M97.2,72.6
		c-0.8,0.4-1.7,1-2.7,1.5c-1.7,1-3.6,2.2-5.6,3.3c0.6-0.3,1.2-0.6,1.8-1C93.3,74.9,95.4,73.7,97.2,72.6z M134.2,69.7
		c-1.2,0.6-3.7,1.9-8.6,4.8c-1.5,0.9-3.2,1.9-4.9,3c5.1-3,9.4-5.4,12.2-6.8C133.5,70.2,133.9,69.9,134.2,69.7z M118,72.3
		c-1.3,0.7-2.8,1.6-4.7,2.7c-0.7,0.4-1.5,0.9-2.2,1.3c1.3-0.7,2.6-1.5,3.7-2.1C116.1,73.5,117.1,72.8,118,72.3z M102.7,69.9
		c-1,0.5-2.6,1.5-4.6,2.7C100.1,71.4,101.7,70.5,102.7,69.9z M135,69.4c0,0.1-0.1,0.2-0.4,0.5c0.2-0.1,0.3-0.1,0.5-0.2
		c0.2-0.2,0.2-0.3,0.2-0.3C135.2,69.3,135.1,69.3,135,69.4z"/>
</g>
<g id="XMLID_2_">
	<linearGradient id="XMLID_29_" gradientUnits="userSpaceOnUse" x1="58.6334" y1="121.5595" x2="222.6334" y2="146.2261">
		<stop  offset="0" style="stop-color:#6B3113"/>
		<stop  offset="1" style="stop-color:#C67E41"/>
	</linearGradient>
	<path id="XMLID_5_" class="st2" d="M61.6,129.3c-0.6,0-1.1-0.1-1.4-0.3c-0.3-0.2-0.5-0.6-0.5-1.1c0,0,0-0.1,0.1-0.1
		c0.1,0,0.2,0,0.4,0.1c0.2,0.1,0.6,0.1,1.2,0.1c1,0,1.9-0.1,2.8-0.3s1.6-0.5,2.2-0.9c0.6-0.4,1.1-0.8,1.4-1.3s0.5-1,0.5-1.5
		c0-0.5-0.1-0.9-0.4-1.1c-0.3-0.3-0.6-0.5-1.1-0.7c-0.4-0.2-0.9-0.3-1.4-0.3c-0.5-0.1-1-0.1-1.5-0.1c-0.2,0-0.4,0-0.7,0
		s-0.4,0-0.6,0c-0.3,0.9-0.5,1.9-0.8,2.8s-0.5,1.9-0.8,2.8c-0.3,0-0.5-0.1-0.7-0.2c-0.2-0.2-0.3-0.4-0.3-0.6c0-0.1,0-0.3,0.1-0.5
		c0.1-0.2,0.1-0.4,0.2-0.5c0.1-0.2,0.2-0.6,0.4-1.2c0.2-0.5,0.4-1.2,0.6-1.9c0.2-0.7,0.5-1.5,0.8-2.3c0.3-0.8,0.6-1.6,0.9-2.3
		s0.6-1.4,0.9-2c-0.5,0.1-0.9,0.2-1.2,0.3s-0.6,0.3-0.8,0.4c-0.2,0.1-0.3,0.2-0.4,0.2c-0.1,0-0.1,0-0.2-0.1s-0.2-0.1-0.2-0.2
		c-0.1-0.1-0.1-0.1-0.1-0.2c0.6-0.2,1.2-0.5,1.8-0.7c0.6-0.2,1.4-0.3,2.3-0.3c0.4,0,0.8,0,1.3,0.1s0.9,0.2,1.3,0.4
		c0.4,0.2,0.8,0.5,1,0.8c0.3,0.4,0.4,0.8,0.4,1.5c0,0.6-0.1,1.1-0.4,1.5c-0.2,0.4-0.6,0.7-1,1c-0.4,0.3-0.8,0.5-1.3,0.6
		c-0.5,0.2-0.9,0.3-1.4,0.3c0.9,0,1.5,0.2,2.1,0.4c0.5,0.2,0.9,0.4,1.2,0.7c0.3,0.3,0.5,0.6,0.5,0.9c0.1,0.3,0.1,0.6,0.1,0.9
		c0,0.7-0.2,1.3-0.5,1.8c-0.3,0.5-0.8,1-1.4,1.4c-0.6,0.4-1.2,0.7-1.9,1c-0.7,0.3-1.3,0.5-2,0.6C62.7,129.2,62.1,129.3,61.6,129.3z
		 M62.7,121.3c0.6,0,1.3-0.1,1.9-0.2c0.6-0.1,1.2-0.3,1.7-0.6s0.9-0.6,1.3-1c0.3-0.4,0.5-1,0.5-1.6c0-0.6-0.1-1.1-0.4-1.4
		c-0.3-0.3-0.6-0.5-1.1-0.7c-0.4-0.1-0.9-0.2-1.4-0.2c-0.1,0-0.1,0-0.2,0s-0.1,0-0.2,0c-0.4,0.8-0.8,1.7-1.1,2.7
		C63.4,119.3,63,120.3,62.7,121.3z"/>
	<linearGradient id="XMLID_30_" gradientUnits="userSpaceOnUse" x1="58.8744" y1="119.9571" x2="222.8744" y2="144.6237">
		<stop  offset="0" style="stop-color:#6B3113"/>
		<stop  offset="1" style="stop-color:#C67E41"/>
	</linearGradient>
	<path id="XMLID_8_" class="st3" d="M70.2,129.3c-0.3-0.2-0.4-0.3-0.5-0.5c-0.1-0.2-0.1-0.3-0.1-0.4c0-0.3,0.1-0.8,0.4-1.3
		c0.2-0.6,0.6-1.2,1-1.9c0.4-0.7,0.8-1.5,1.3-2.2c-0.4,0-0.8-0.1-1.1-0.1c-0.3,0-0.6,0-0.8,0h-0.6c0.1-0.3,0.4-0.6,0.7-0.7
		c0.3-0.1,0.7-0.2,1.1-0.2c0.2,0,0.4,0,0.6,0c0.2,0,0.4,0.1,0.6,0.1c0.6-0.9,1.2-1.8,1.8-2.6c0.6-0.8,1.2-1.6,1.7-2.2s1-1.2,1.3-1.5
		c0.3-0.3,0.6-0.5,0.8-0.5c0.1,0,0.3,0,0.4,0.1c0.2,0.1,0.3,0.2,0.5,0.4c-0.1,0.1-0.3,0.3-0.4,0.7c-0.2,0.4-0.4,0.9-0.6,1.5
		s-0.4,1.3-0.6,2c-0.2,0.7-0.4,1.5-0.5,2.2s-0.3,1.5-0.4,2.1s-0.1,1.3-0.1,1.8c0,0.4,0,0.8,0.1,1s0.3,0.4,0.5,0.4
		c0.3,0,0.6-0.2,1-0.6s0.8-1.1,1.3-1.9l0.2,0.2c-0.3,0.9-0.8,1.7-1.3,2.3c-0.5,0.6-1.1,0.9-1.7,0.9c-0.5,0-0.8-0.2-1-0.6
		c-0.2-0.4-0.3-1-0.3-1.7c0-0.4,0-0.8,0.1-1.2c0.1-0.4,0.1-0.9,0.2-1.4c-0.5-0.1-1-0.1-1.4-0.2c-0.4-0.1-0.8-0.1-1.2-0.1
		c-0.5,1-1.1,2-1.6,3.1C71.1,127.2,70.6,128.3,70.2,129.3z M75.9,122.8c0.2-0.8,0.4-1.5,0.6-2.3c0.2-0.8,0.5-1.5,0.7-2.2
		c0.3-0.7,0.5-1.3,0.7-1.9c-0.4,0.2-0.8,0.6-1.2,1.2c-0.5,0.6-1,1.2-1.5,2.1c-0.5,0.8-1.1,1.7-1.6,2.7c0.4,0.1,0.8,0.2,1.2,0.3
		S75.6,122.7,75.9,122.8z"/>
	<linearGradient id="XMLID_31_" gradientUnits="userSpaceOnUse" x1="59.0854" y1="118.5545" x2="223.0854" y2="143.2211">
		<stop  offset="0" style="stop-color:#6B3113"/>
		<stop  offset="1" style="stop-color:#C67E41"/>
	</linearGradient>
	<path id="XMLID_11_" class="st4" d="M88.3,129.9c-0.3,0-0.6-0.2-0.9-0.5c-0.3-0.3-0.7-0.7-1.1-1.3c-0.4-0.5-0.7-1.1-1.1-1.7
		c-0.4-0.6-0.7-1.2-1-1.8s-0.6-1.2-0.8-1.7c-0.3,1.1-0.6,2.3-0.9,3.3c-0.3,1.1-0.6,2.1-0.9,3c-0.3,0-0.6-0.1-0.8-0.2
		c-0.2-0.2-0.4-0.4-0.4-0.6c0-0.1,0-0.3,0.1-0.5c0.1-0.2,0.1-0.3,0.2-0.5c0.3-0.9,0.6-1.8,0.9-2.6c0.3-0.8,0.5-1.6,0.8-2.3
		c0.3-0.8,0.5-1.5,0.8-2.2s0.6-1.5,0.9-2.2c0.3-0.8,0.6-1.5,1-2.3c-0.5,0.1-0.9,0.2-1.3,0.4c-0.4,0.2-0.6,0.3-0.9,0.4
		c-0.2,0.1-0.4,0.2-0.5,0.2c0,0-0.1,0-0.2-0.1s-0.2-0.1-0.2-0.2c-0.1-0.1-0.1-0.1-0.1-0.2c0.3-0.1,0.7-0.3,1.1-0.4
		c0.4-0.2,0.9-0.3,1.3-0.4c0.5-0.1,1-0.2,1.5-0.2c0.5,0,1,0.1,1.5,0.2c0.5,0.1,1,0.3,1.4,0.6s0.8,0.6,1.1,1s0.4,0.9,0.4,1.5
		c0,0.6-0.1,1.1-0.4,1.5c-0.3,0.4-0.6,0.8-1,1c-0.4,0.3-0.9,0.5-1.4,0.7c-0.5,0.2-1,0.3-1.5,0.4c-0.5,0.1-0.9,0.1-1.3,0.2
		c-0.4,0-0.7,0-0.9,0c0.4,0.6,0.7,1.2,1,1.8c0.3,0.6,0.7,1.2,1.1,1.7s0.8,1.2,1.4,1.7c0.5,0.6,1.2,1.2,1.9,1.8
		c-0.1,0.2-0.2,0.3-0.4,0.4C88.6,129.8,88.4,129.9,88.3,129.9z M83.7,122c0.6,0,1.3-0.1,1.9-0.3s1.2-0.4,1.8-0.7
		c0.5-0.3,1-0.7,1.3-1.2c0.3-0.5,0.5-1,0.5-1.7c0-0.6-0.2-1.1-0.5-1.5c-0.3-0.4-0.7-0.6-1.2-0.8s-1-0.2-1.5-0.2
		c-0.4,0.8-0.8,1.8-1.2,2.9C84.4,119.6,84.1,120.8,83.7,122z"/>
	<linearGradient id="XMLID_32_" gradientUnits="userSpaceOnUse" x1="59.3412" y1="116.8536" x2="223.3412" y2="141.5202">
		<stop  offset="0" style="stop-color:#6B3113"/>
		<stop  offset="1" style="stop-color:#C67E41"/>
	</linearGradient>
	<path id="XMLID_14_" class="st5" d="M93.6,129.3c-0.7,0-1.2-0.2-1.7-0.5c-0.5-0.4-0.9-0.9-1.2-1.5c-0.3-0.6-0.4-1.4-0.4-2.3
		c0-0.9,0.1-1.8,0.4-2.7c0.3-0.9,0.7-1.8,1.2-2.6c0.5-0.8,1-1.6,1.7-2.2c0.6-0.7,1.3-1.2,1.9-1.6c0.7-0.4,1.4-0.6,2-0.6
		c0.2,0,0.4,0,0.6,0.1s0.3,0.1,0.5,0.2c-0.1,0-0.1,0-0.2,0c0,0,0,0,0,0c-0.6,0-1.2,0.2-1.8,0.6c-0.6,0.4-1.2,0.9-1.8,1.6
		s-1.1,1.4-1.5,2.3c-0.4,0.8-0.8,1.7-1,2.6c-0.3,0.9-0.4,1.8-0.4,2.6c0,0.6,0.1,1.2,0.2,1.7s0.4,1,0.8,1.3c0.3,0.3,0.8,0.5,1.3,0.5
		c0.6,0,1.3-0.2,1.8-0.6c0.6-0.4,1.1-0.9,1.5-1.6c0.5-0.7,0.9-1.4,1.2-2.3s0.6-1.7,0.8-2.6c0.2-0.9,0.3-1.8,0.3-2.6
		c0-0.3,0-0.7-0.1-1c0-0.4-0.1-0.7-0.2-1c-0.1-0.3-0.3-0.4-0.5-0.4c-0.2,0-0.4,0.1-0.7,0.4s-0.5,0.6-0.7,1c-0.2,0.4-0.4,0.8-0.6,1.2
		s-0.3,0.8-0.4,1.1c-0.3-0.1-0.5-0.2-0.6-0.3c-0.1-0.2-0.2-0.3-0.2-0.5c0-0.3,0.1-0.7,0.3-1c0.2-0.4,0.5-0.7,0.8-1.1s0.7-0.6,1-0.9
		c0.4-0.2,0.7-0.3,1-0.3c0.3,0,0.5,0.1,0.7,0.3c0.2,0.2,0.3,0.5,0.5,0.8c0.1,0.3,0.2,0.7,0.2,1.1c0,0.4,0.1,0.8,0.1,1.1
		c0,1.3-0.1,2.4-0.4,3.5c-0.3,1-0.7,1.9-1.1,2.7s-1,1.5-1.6,2c-0.6,0.5-1.2,0.9-1.8,1.2C94.8,129.2,94.2,129.3,93.6,129.3z"/>
	<linearGradient id="XMLID_33_" gradientUnits="userSpaceOnUse" x1="59.5631" y1="115.3784" x2="223.5631" y2="140.045">
		<stop  offset="0" style="stop-color:#6B3113"/>
		<stop  offset="1" style="stop-color:#C67E41"/>
	</linearGradient>
	<path id="XMLID_16_" class="st6" d="M103.4,129.3c-0.4,0-0.7,0-1-0.1c-0.3-0.1-0.6-0.3-0.8-0.6c0.1-0.6,0.3-1.2,0.4-1.8
		c0.2-0.6,0.4-1.3,0.5-2s0.4-1.3,0.6-2c0.2-0.7,0.4-1.3,0.6-1.8c0.2-0.6,0.4-1.1,0.5-1.5c0.2-0.4,0.3-0.8,0.3-1
		c0-0.1,0.1-0.2,0.2-0.4s0.2-0.4,0.3-0.5c0.1-0.2,0.2-0.3,0.4-0.5c0.2-0.1,0.3-0.2,0.5-0.2c0.2,0,0.3,0.1,0.5,0.2
		c-0.4,0.8-0.7,1.8-1.1,2.8c-0.4,1-0.7,2-1.1,3.1s-0.6,2.1-0.9,3.1c-0.3,1-0.5,1.9-0.7,2.8c0.2,0,0.3,0,0.4,0.1c0.1,0,0.2,0,0.3,0
		c0.7,0,1.5-0.2,2.1-0.5c0.7-0.3,1.3-0.8,1.9-1.4s1.1-1.3,1.6-2.1c0.5-0.8,0.8-1.6,1.1-2.5s0.4-1.7,0.4-2.6c0-0.9-0.2-1.7-0.5-2.3
		c-0.3-0.6-0.7-1.1-1.3-1.3c-0.5-0.3-1.2-0.4-1.9-0.4c-0.8,0-1.4,0.2-2,0.5c-0.6,0.3-1.1,0.7-1.4,1.2s-0.5,1.1-0.5,1.7
		c0,0.1,0,0.3,0,0.4c0,0.1,0,0.2,0.1,0.3c-0.4,0-0.7-0.1-0.8-0.3c-0.2-0.2-0.2-0.4-0.2-0.7c0-0.4,0.1-0.8,0.4-1.2
		c0.3-0.4,0.7-0.8,1.2-1.1c0.5-0.3,1.1-0.6,1.7-0.8c0.7-0.2,1.4-0.3,2.1-0.3c1,0,1.9,0.2,2.5,0.6c0.6,0.4,1.1,1,1.4,1.7
		c0.3,0.7,0.4,1.5,0.4,2.4c0,1-0.2,2-0.5,2.9s-0.7,1.8-1.3,2.5c-0.5,0.8-1.2,1.4-1.9,2c-0.7,0.6-1.5,1-2.3,1.3
		C105,129.1,104.2,129.3,103.4,129.3z"/>
	<linearGradient id="XMLID_34_" gradientUnits="userSpaceOnUse" x1="59.9271" y1="112.9579" x2="223.9271" y2="137.6246">
		<stop  offset="0" style="stop-color:#6B3113"/>
		<stop  offset="1" style="stop-color:#C67E41"/>
	</linearGradient>
	<path id="XMLID_18_" class="st7" d="M120.3,129.3c-0.8,0-1.5-0.2-2-0.6s-0.9-0.9-1.1-1.6c-0.2-0.6-0.3-1.3-0.3-2
		c0-0.9,0.1-1.8,0.4-2.8c0.3-0.9,0.7-1.8,1.1-2.6c0.5-0.8,1-1.6,1.6-2.2s1.3-1.2,1.9-1.5c0.7-0.4,1.3-0.6,2-0.6
		c0.5,0,0.9,0.1,1.2,0.3c0.3,0.2,0.4,0.6,0.4,1.2c0,0.3-0.1,0.7-0.2,1.1s-0.3,0.8-0.5,1.2c-0.2,0.4-0.4,0.7-0.7,1s-0.5,0.4-0.7,0.4
		c-0.1,0-0.2,0-0.3-0.1c-0.1-0.1-0.2-0.2-0.3-0.3c0.2-0.2,0.4-0.4,0.6-0.7c0.2-0.3,0.4-0.6,0.6-0.9s0.4-0.7,0.5-1
		c0.1-0.3,0.2-0.6,0.2-0.8c0-0.2-0.1-0.4-0.2-0.6c-0.1-0.1-0.4-0.2-0.7-0.2c-0.5,0-1,0.2-1.6,0.6c-0.5,0.4-1.1,0.9-1.6,1.6
		s-1,1.4-1.4,2.3s-0.7,1.7-1,2.6s-0.4,1.7-0.4,2.5c0,0.6,0.1,1.1,0.2,1.6c0.2,0.5,0.4,0.9,0.8,1.3c0.4,0.3,0.8,0.5,1.4,0.5
		c0.6,0,1.2-0.2,1.8-0.5c0.6-0.3,1.2-0.8,1.7-1.4c0.5-0.6,0.9-1.2,1.2-1.8l0.2,0.2c-0.4,0.8-0.8,1.4-1.4,2.1
		c-0.5,0.6-1.2,1.1-1.8,1.5C121.8,129.1,121,129.3,120.3,129.3z"/>
	<linearGradient id="XMLID_35_" gradientUnits="userSpaceOnUse" x1="60.1093" y1="111.747" x2="224.1093" y2="136.4137">
		<stop  offset="0" style="stop-color:#6B3113"/>
		<stop  offset="1" style="stop-color:#C67E41"/>
	</linearGradient>
	<path id="XMLID_20_" class="st8" d="M126,129.3c-0.3-0.2-0.4-0.3-0.5-0.5c-0.1-0.2-0.1-0.3-0.1-0.4c0-0.3,0.1-0.8,0.4-1.3
		c0.2-0.6,0.6-1.2,1-1.9c0.4-0.7,0.8-1.5,1.3-2.2c-0.4,0-0.8-0.1-1.1-0.1c-0.3,0-0.6,0-0.8,0h-0.6c0.1-0.3,0.4-0.6,0.7-0.7
		c0.3-0.1,0.7-0.2,1.1-0.2c0.2,0,0.4,0,0.6,0c0.2,0,0.4,0.1,0.6,0.1c0.6-0.9,1.2-1.8,1.8-2.6c0.6-0.8,1.2-1.6,1.7-2.2s1-1.2,1.3-1.5
		c0.3-0.3,0.6-0.5,0.8-0.5c0.1,0,0.3,0,0.4,0.1c0.2,0.1,0.3,0.2,0.5,0.4c-0.1,0.1-0.3,0.3-0.4,0.7c-0.2,0.4-0.4,0.9-0.6,1.5
		c-0.2,0.6-0.4,1.3-0.6,2c-0.2,0.7-0.4,1.5-0.5,2.2s-0.3,1.5-0.4,2.1c-0.1,0.7-0.1,1.3-0.1,1.8c0,0.4,0,0.8,0.1,1
		c0.1,0.2,0.3,0.4,0.5,0.4c0.3,0,0.6-0.2,1-0.6c0.4-0.4,0.8-1.1,1.3-1.9l0.2,0.2c-0.3,0.9-0.8,1.7-1.3,2.3c-0.5,0.6-1.1,0.9-1.7,0.9
		c-0.5,0-0.8-0.2-1-0.6c-0.2-0.4-0.3-1-0.3-1.7c0-0.4,0-0.8,0.1-1.2c0.1-0.4,0.1-0.9,0.2-1.4c-0.5-0.1-1-0.1-1.4-0.2
		s-0.8-0.1-1.2-0.1c-0.5,1-1.1,2-1.6,3.1C126.9,127.2,126.5,128.3,126,129.3z M131.7,122.8c0.2-0.8,0.4-1.5,0.6-2.3s0.5-1.5,0.7-2.2
		c0.3-0.7,0.5-1.3,0.7-1.9c-0.4,0.2-0.8,0.6-1.2,1.2c-0.5,0.6-1,1.2-1.5,2.1c-0.5,0.8-1.1,1.7-1.6,2.7c0.4,0.1,0.8,0.2,1.2,0.3
		C131.1,122.6,131.4,122.7,131.7,122.8z"/>
	<linearGradient id="XMLID_36_" gradientUnits="userSpaceOnUse" x1="60.3614" y1="110.0706" x2="224.3614" y2="134.7373">
		<stop  offset="0" style="stop-color:#6B3113"/>
		<stop  offset="1" style="stop-color:#C67E41"/>
	</linearGradient>
	<path id="XMLID_23_" class="st9" d="M138.2,129.3c-0.5,0-0.9-0.2-1-0.4c-0.1-0.2-0.2-0.6-0.2-0.9c0-0.4,0.1-0.9,0.3-1.5
		c0.2-0.6,0.4-1.3,0.7-2s0.5-1.4,0.8-2.2c-0.1,0-0.3,0-0.4,0c-0.2,0-0.4,0-0.6,0.1c-0.2,0-0.5,0.1-0.9,0.1c0-0.3,0.1-0.5,0.3-0.7
		c0.2-0.2,0.5-0.3,0.8-0.4s0.7-0.1,1.1-0.1c0.3-0.9,0.7-1.8,1-2.6s0.7-1.6,1-2.3c-0.1,0-0.2,0-0.3,0s-0.2,0-0.3,0
		c-0.7,0-1.3,0.1-1.7,0.2c-0.4,0.2-0.7,0.4-0.8,0.7c-0.2,0.3-0.2,0.7-0.2,1.2c0,0.3,0,0.5,0.1,0.7c0,0.2,0.1,0.4,0.2,0.7
		c-0.4-0.1-0.7-0.2-0.9-0.5c-0.2-0.2-0.3-0.5-0.3-0.9c0-0.6,0.2-1.1,0.6-1.6c0.4-0.5,1-0.8,1.7-1.1c0.7-0.3,1.5-0.4,2.4-0.4
		c0.6,0,1.2,0,1.8,0.1c0.6,0.1,1.1,0.1,1.7,0.1c0.2,0,0.5,0,0.7,0c0.2,0,0.4-0.1,0.6-0.1c-0.4,0.5-0.8,0.8-1.1,1
		c-0.3,0.2-0.6,0.2-0.9,0.2c-0.3,0-0.6,0-1-0.1s-0.9-0.1-1.4-0.2c-0.2,0.4-0.3,0.8-0.5,1.4c-0.2,0.5-0.4,1.1-0.6,1.7
		c-0.2,0.6-0.4,1.2-0.6,1.8c0.6,0,1.1,0.1,1.6,0.2c0.5,0.1,1,0.1,1.4,0.1c-0.1,0.1-0.2,0.2-0.3,0.3c-0.1,0.1-0.3,0.1-0.5,0.2
		c-0.2,0-0.5,0.1-0.9,0.1c-0.4,0-0.9,0-1.6,0c-0.1,0.2-0.2,0.5-0.3,0.9c-0.1,0.3-0.2,0.7-0.3,1c-0.1,0.3-0.1,0.5-0.2,0.7
		c-0.3,0.9-0.5,1.7-0.7,2.5C138.3,127.9,138.2,128.7,138.2,129.3z"/>
	<linearGradient id="XMLID_37_" gradientUnits="userSpaceOnUse" x1="60.5097" y1="109.085" x2="224.5096" y2="133.7516">
		<stop  offset="0" style="stop-color:#6B3113"/>
		<stop  offset="1" style="stop-color:#C67E41"/>
	</linearGradient>
	<path id="XMLID_25_" class="st10" d="M146.7,129.3c-0.7,0-1.3-0.1-1.8-0.4c-0.5-0.3-0.9-0.7-1.2-1.2c-0.3-0.5-0.4-1-0.4-1.6
		c0-0.5,0.1-1.1,0.3-1.6s0.6-1,1-1.4c0.4-0.4,0.9-0.8,1.4-1c0.5-0.3,1.1-0.4,1.8-0.5c-0.5-0.4-0.8-0.8-1-1.3c-0.2-0.5-0.3-1-0.3-1.5
		c0-0.6,0.2-1.2,0.5-1.7c0.3-0.5,0.7-1,1.3-1.3c0.5-0.3,1.2-0.5,1.8-0.5c0.6,0,1.1,0.2,1.5,0.5s0.5,0.8,0.5,1.4
		c0,0.4-0.1,0.8-0.2,1.3s-0.3,0.7-0.5,1c-0.2,0.3-0.4,0.4-0.6,0.4c-0.1,0-0.2-0.1-0.4-0.2s-0.2-0.2-0.3-0.4c0.4-0.4,0.8-0.7,1-1.1
		c0.3-0.4,0.4-0.8,0.4-1.3c0-0.4-0.1-0.6-0.3-0.8c-0.2-0.2-0.5-0.3-0.9-0.3c-0.5,0-1,0.2-1.4,0.5c-0.4,0.3-0.7,0.7-0.8,1.3
		c-0.2,0.5-0.3,1.1-0.3,1.7c0,0.4,0.1,0.9,0.2,1.4c0.1,0.5,0.4,0.9,0.8,1.3c-0.8,0.1-1.5,0.4-2,0.9c-0.6,0.5-1,1-1.3,1.6
		c-0.3,0.6-0.5,1.2-0.5,1.9c0,0.4,0.1,0.8,0.2,1.2c0.1,0.4,0.4,0.7,0.7,1s0.8,0.4,1.3,0.4c0.6,0,1.2-0.2,1.8-0.5
		c0.6-0.3,1.2-0.8,1.7-1.4c0.5-0.6,0.9-1.2,1.2-1.8l0.2,0.2c-0.4,0.8-0.9,1.5-1.4,2.1c-0.5,0.6-1.2,1.1-1.8,1.5
		C148.2,129.1,147.5,129.3,146.7,129.3z"/>
</g>
<text id="XMLID_4_" transform="matrix(1 0 0 1 220.7448 66.5462)" style="font-family:'DancingScript-Regular'; font-size:17.3789px;">BAROD CAFE</text>
</svg>
